<svg version="1.1" id="cm-logo" xmlns="http://www.w3.org/2000/svg" xmlns:xlink="http://www.w3.org/1999/xlink" x="0px" y="0px"
	  viewBox="0 0 120 120" enable-background="new 0 0 120 120" xml:space="preserve">
    <path fill-rule="evenodd" clip-rule="evenodd" fill="#666666" d="M105.64,21.09v77.819C114.585,88.428,120,74.846,120,60
        S114.585,31.571,105.64,21.09z"/>
    <path fill-rule="evenodd" clip-rule="evenodd" fill="#666666" d="M55.067,14.89v40.707h9.866V14.89h34.588
        C88.961,5.629,75.136,0,60,0S31.041,5.629,20.479,14.89H55.067z"/>
    <path fill-rule="evenodd" clip-rule="evenodd" fill="#666666" d="M21.699,106.167C32.094,114.803,45.444,120,60,120
        c14.556,0,27.906-5.197,38.301-13.833H21.699z"/>
    <path fill-rule="evenodd" clip-rule="evenodd" fill="#666666" d="M14.361,21.09C5.415,31.571,0,45.154,0,60
        s5.415,28.428,14.361,38.909V21.09z"/>
</svg>