<svg version="1.1" id="linkedin-logo" xmlns="http://www.w3.org/2000/svg" xmlns:xlink="http://www.w3.org/1999/xlink" x="0"
	 y="0"  viewBox="0 0 18 18" enable-background="new 0 0 18 18" xml:space="preserve">
<path d="M16.668,0H1.328C0.596,0,0,0.581,0,1.298v15.403C0,17.418,0.596,18,1.328,18h15.34c0.734,0,1.331-0.582,1.331-1.299V1.298
	C17.999,0.581,17.402,0,16.668,0z M5.34,15.338H2.667v-8.59H5.34V15.338z M4.005,5.575c-0.857,0-1.55-0.694-1.55-1.548
	s0.692-1.548,1.55-1.548c0.854,0,1.547,0.694,1.547,1.548S4.858,5.575,4.005,5.575z M15.339,15.338H12.67V11.16
	c0-0.996-0.018-2.277-1.388-2.277c-1.389,0-1.602,1.086-1.602,2.206v4.249H7.015v-8.59h2.559v1.174h0.036
	c0.357-0.675,1.228-1.387,2.526-1.387c2.704,0,3.203,1.778,3.203,4.092V15.338z"/>
</svg>