<?xml version="1.0" standalone="no"?>
<!DOCTYPE svg PUBLIC "-//W3C//DTD SVG 20010904//EN"
 "http://www.w3.org/TR/2001/REC-SVG-20010904/DTD/svg10.dtd">
<svg version="1.0" xmlns="http://www.w3.org/2000/svg"
 width="700.000000pt" height="700.000000pt" viewBox="0 0 700.000000 700.000000"
 preserveAspectRatio="xMidYMid meet">
<metadata>
Created by potrace 1.11, written by Peter Selinger 2001-2013
</metadata>
<g transform="translate(0.000000,700.000000) scale(0.100000,-0.100000)"
fill="#000000" stroke="none">
<path d="M3299 6926 c-2 -2 -40 -7 -84 -10 -44 -4 -93 -9 -110 -11 -16 -3 -43
-7 -60 -9 -232 -33 -503 -104 -745 -196 -112 -43 -390 -177 -487 -236 -175
-105 -339 -220 -463 -323 -30 -25 -57 -47 -59 -48 -2 -2 -2 -6 2 -9 3 -4 447
-6 986 -6 725 0 981 -3 982 -12 0 -6 1 -531 2 -1166 l2 -1155 283 -1 282 -1 0
1168 0 1167 953 0 c523 1 969 1 990 1 47 1 49 -2 -93 109 -58 45 -111 87 -117
92 -27 23 -272 179 -334 213 -278 153 -561 265 -852 337 -131 32 -310 66 -402
75 -33 3 -71 9 -85 12 -29 6 -585 15 -591 9z"/>
<path d="M845 5623 c-171 -214 -335 -488 -463 -773 -72 -162 -176 -492 -205
-650 -3 -14 -12 -63 -21 -110 -8 -47 -18 -105 -21 -130 -3 -25 -7 -63 -10 -85
-13 -106 -19 -225 -19 -385 0 -159 9 -353 19 -383 2 -7 6 -39 9 -72 8 -73 10
-89 41 -240 94 -457 272 -872 543 -1265 73 -106 193 -260 203 -260 4 0 7 1001
7 2225 -1 1224 -2 2225 -3 2225 -1 0 -37 -44 -80 -97z"/>
<path d="M6165 3490 c0 -1226 2 -2230 5 -2230 3 1 14 14 25 29 18 27 194 263
213 286 32 40 192 323 240 425 168 353 253 645 317 1085 26 181 26 635 0 815
-7 43 -25 168 -30 195 -53 336 -210 767 -401 1105 -79 139 -272 416 -343 493
l-26 27 0 -2230z"/>
<path d="M1364 839 c-7 -11 179 -154 296 -228 36 -22 70 -44 75 -49 48 -38
320 -178 477 -245 169 -73 479 -170 608 -192 19 -3 53 -10 75 -15 90 -20 261
-42 425 -55 76 -6 392 -6 465 0 158 14 249 26 410 56 221 41 335 74 640 186
81 29 354 167 475 239 107 64 355 233 370 253 3 4 18 17 34 29 l29 22 -69 1
c-584 4 -4307 2 -4310 -2z"/>
</g>
</svg>
