<svg width="141" height="13" fill="none" xmlns="http://www.w3.org/2000/svg"><path d="M4.812 12.613c1.272 0 2.28-.408 2.952-1.176.528-.576.792-1.296 1.08-2.688l-1.68-.408c-.432 2.16-.96 2.808-2.232 2.808-1.656 0-2.592-1.752-2.592-4.8 0-3.192.912-4.872 2.616-4.872.696 0 1.224.288 1.608.864.24.36.336.624.6 1.92l1.752-.408C8.34 1.165 7.116.013 4.884.013 2.052.013.396 2.317.396 6.325c0 4.056 1.584 6.288 4.416 6.288zm5.25-.24h1.776l.912-3.408h3.552l.936 3.408h1.752L15.582.253h-1.92l-3.6 12.12zm3.048-4.8l1.416-5.592 1.392 5.592H13.11zm8.444 4.8h1.752V1.693h2.976V.253h-7.608v1.44h2.88v10.68zm6.418 0h7.2v-1.44h-5.448V6.805h4.224v-1.44h-4.224V1.693h5.304V.253h-7.056v12.12zm13.238.24c1.633 0 2.4-.552 3-2.088l.193 2.016h1.128V6.205h-4.248V7.67h2.471v.024c0 .576-.143 1.656-.311 2.064-.384.936-1.056 1.392-2.017 1.392-1.8 0-2.736-1.68-2.736-4.872s.913-4.8 2.713-4.8c1.272 0 1.824.576 2.4 2.568l1.656-.6C44.785.997 43.633.013 41.425.013c-3 0-4.68 2.256-4.68 6.264 0 4.008 1.633 6.336 4.465 6.336zm11.066 0c2.904 0 4.512-2.232 4.512-6.288 0-4.032-1.608-6.312-4.44-6.312-3.024 0-4.632 2.208-4.632 6.336 0 4.008 1.632 6.264 4.56 6.264zm-1.896-2.592c-.456-.792-.72-2.112-.72-3.72 0-3.216.888-4.824 2.64-4.824 1.656 0 2.544 1.68 2.544 4.824 0 3.192-.888 4.848-2.568 4.848-.912 0-1.44-.312-1.896-1.128zm8.975 2.352h1.752v-5.16h2.184l2.016 5.16h1.944l-2.304-5.568c1.296-.648 1.968-1.728 1.968-3.168 0-2.136-1.392-3.384-3.792-3.384h-3.768v12.12zm1.752-6.6v-4.08h1.944c1.344 0 2.064.648 2.064 1.896 0 1.44-.768 2.184-2.184 2.184h-1.824zm9.883 6.6h1.752V7.261L76.246.253h-1.704l-2.52 5.424L69.406.253h-1.92l3.504 7.008v5.112zm10.841 0h1.752V6.71h4.368v5.664h1.752V.253h-1.752V5.27h-4.368V.253h-1.752v12.12zm10.922 0h7.2v-1.44h-5.448V6.805h4.224v-1.44h-4.224V1.693h5.304V.253h-7.056v12.12zm8.247 0h1.776l.912-3.408h3.552l.936 3.408h1.752L106.52.253h-1.92l-3.6 12.12zm3.048-4.8l1.416-5.592 1.392 5.592h-2.808zm7.924 4.8h2.712c3.528 0 5.784-2.4 5.784-6.144 0-3.696-2.208-5.976-5.784-5.976h-2.712v12.12zm1.752-1.44v-9.24h.96c2.424 0 3.84 1.728 3.84 4.656 0 2.904-1.392 4.584-3.84 4.584h-.96zm9.147 1.44h7.2v-1.44h-5.448V6.805h4.224v-1.44h-4.224V1.693h5.304V.253h-7.056v12.12zm9.281 0h1.752v-5.16h2.184l2.016 5.16h1.944l-2.304-5.568c1.296-.648 1.968-1.728 1.968-3.168 0-2.136-1.392-3.384-3.792-3.384h-3.768v12.12zm1.752-6.6v-4.08h1.944c1.344 0 2.064.648 2.064 1.896 0 1.44-.768 2.184-2.184 2.184h-1.824z" fill="#fff"/></svg>