<svg width="245" height="331" fill="none" xmlns="http://www.w3.org/2000/svg"><path d="M4.608 49h7.92V27.616h14.184V49h7.92V.976h-7.92V20.92H12.528V.976h-7.92V49zm38.946 0h22.104v-5.472h-14.76V33.016h11.304v-5.472H50.898v-9.432H65.37V12.64H43.554V49zm24.164 0h6.84l2.304-8.856h9.864L89.03 49h7.344L86.366 12.64h-7.848L67.718 49zM78.23 34.672l3.672-14.544 3.672 14.544H78.23zM101.632 49h9.792c4.104 0 6.912-.648 9.432-2.088 4.968-2.88 7.848-8.856 7.848-16.416 0-6.768-2.376-12.312-6.552-15.12-2.808-1.872-6.408-2.736-11.232-2.736h-9.288V49zm7.344-5.472V18.112h2.304c6.408 0 9.648 4.32 9.648 12.672 0 8.424-3.24 12.744-9.648 12.744h-2.304zM135.945 49h22.104v-5.472h-14.76V33.016h11.304v-5.472h-11.304v-9.432h14.472V12.64h-21.816V49zm28.195 0h7.2V34.24h5.256L182.14 49h7.92l-7.2-16.2c3.672-2.088 5.472-5.256 5.472-9.576 0-3.528-1.368-6.624-3.888-8.496-2.016-1.44-4.608-2.088-8.64-2.088H164.14V49zm7.2-20.232V18.112h4.176c3.6 0 5.4 1.656 5.4 5.04 0 3.672-1.944 5.616-5.472 5.616h-4.104zM208.988 49h21.816v-5.904h-6.912V13h-5.472c-2.736 3.6-6.264 6.768-9.72 8.64v7.416c3.024-1.656 5.832-3.96 7.776-6.336v20.376h-7.488V49z" fill="#2A2E14"/><path d="M8.908 78.477a10.594 10.594 0 0 1 3.128-2.72c1.247-.726 2.697-1.088 4.352-1.088 1.7 0 2.992.396 3.876 1.19.884.793 1.326 2.085 1.326 3.876v9.112c0 1.02.986 1.53 2.958 1.53v1.938h-9.894v-1.938c1.519 0 2.278-.51 2.278-1.53V81.23c0-1.428-.193-2.448-.578-3.06-.385-.612-.963-.918-1.734-.918a4.63 4.63 0 0 0-1.734.34 6.915 6.915 0 0 0-1.598.952 7.648 7.648 0 0 0-1.36 1.462 8.544 8.544 0 0 0-1.02 1.768v7.072c0 1.02.76 1.53 2.278 1.53v1.938h-9.86v-1.938c1.95 0 2.924-.51 2.924-1.53V69.603c0-1.02-.963-1.53-2.89-1.53v-1.938h7.548v12.342zm22.976 4.93c.045 2.334.476 4.136 1.292 5.406.816 1.246 2.051 1.87 3.706 1.87 1.292 0 2.437-.318 3.434-.952.997-.635 1.689-1.666 2.074-3.094l2.108.408a9.082 9.082 0 0 1-.918 2.176 6.689 6.689 0 0 1-1.53 1.87c-.635.544-1.405.974-2.312 1.292-.884.34-1.927.51-3.128.51-1.179 0-2.323-.148-3.434-.442a7.69 7.69 0 0 1-2.992-1.462c-.861-.703-1.564-1.644-2.108-2.822-.521-1.202-.782-2.709-.782-4.522 0-1.383.204-2.64.612-3.774.43-1.156 1.043-2.142 1.836-2.958.793-.816 1.757-1.45 2.89-1.904 1.156-.454 2.47-.68 3.944-.68 5.712 0 8.568 3.026 8.568 9.078h-13.26zm9.044-1.802c0-.748-.09-1.44-.272-2.074a4.94 4.94 0 0 0-.816-1.7 3.714 3.714 0 0 0-1.36-1.156c-.521-.295-1.133-.442-1.836-.442-1.224 0-2.267.42-3.128 1.258-.861.838-1.383 2.21-1.564 4.114h8.976zm24.12 7.378c0 .997.34 1.496 1.02 1.496.318 0 .556-.148.714-.442.159-.318.238-.669.238-1.054v-2.006h1.598v1.53c0 .748-.09 1.382-.272 1.904-.181.521-.442.94-.782 1.258-.34.317-.748.544-1.224.68a5.19 5.19 0 0 1-1.496.204c-.612 0-1.133-.09-1.564-.272a3.522 3.522 0 0 1-1.088-.782 3.39 3.39 0 0 1-.68-1.088 7.753 7.753 0 0 1-.374-1.292c-.249.498-.6.974-1.054 1.428a7.21 7.21 0 0 1-1.564 1.224 8.992 8.992 0 0 1-2.074.816 9.67 9.67 0 0 1-2.482.306c-2.13 0-3.694-.43-4.692-1.292-.974-.884-1.462-2.074-1.462-3.57 0-.907.17-1.655.51-2.244a4.708 4.708 0 0 1 1.462-1.53 7.91 7.91 0 0 1 2.176-.952c.839-.25 1.723-.465 2.652-.646a95.356 95.356 0 0 1 2.924-.578 34.357 34.357 0 0 0 3.026-.68v-1.054c0-.567-.079-1.1-.238-1.598a3.018 3.018 0 0 0-.714-1.292 3.047 3.047 0 0 0-1.224-.884c-.498-.227-1.088-.34-1.768-.34-1.156 0-2.13.113-2.924.34-.77.226-1.394.532-1.87.918.522.045.964.215 1.326.51.363.294.544.714.544 1.258 0 .634-.204 1.156-.612 1.564-.408.385-1.008.578-1.802.578-.793 0-1.394-.204-1.802-.612-.385-.43-.578-1.02-.578-1.768 0-.567.182-1.134.544-1.7.363-.567.884-1.066 1.564-1.496.68-.454 1.519-.816 2.516-1.088 1.02-.272 2.176-.408 3.468-.408 1.043 0 2.052.102 3.026.306.975.181 1.836.51 2.584.986a4.777 4.777 0 0 1 1.768 1.904c.454.793.68 1.802.68 3.026v8.432zm-4.454-6.256a87.81 87.81 0 0 0-3.774 1.02c-1.065.294-1.949.623-2.652.986-.702.34-1.224.736-1.564 1.19-.34.453-.51 1.02-.51 1.7 0 .816.284 1.45.85 1.904.567.453 1.428.68 2.584.68 1.156 0 2.176-.272 3.06-.816.907-.567 1.576-1.213 2.006-1.938v-4.726zm29.059 6.12c0 1.02.997 1.53 2.992 1.53v1.938h-6.426l-.272-2.822c-.544 1.156-1.405 2.017-2.584 2.584-1.179.544-2.561.816-4.148.816-1.11 0-2.165-.17-3.162-.51A7.02 7.02 0 0 1 73.4 90.75c-.748-.748-1.349-1.7-1.802-2.856-.43-1.179-.646-2.596-.646-4.25 0-1.7.25-3.14.748-4.318.499-1.179 1.156-2.142 1.972-2.89a7.138 7.138 0 0 1 2.822-1.598 10.89 10.89 0 0 1 3.332-.51c1.088 0 2.085.147 2.992.442.93.294 1.655.702 2.176 1.224v-6.392c0-1.02-.986-1.53-2.958-1.53v-1.938h7.616v22.712zm-9.044-12.308c-.884 0-1.643.17-2.278.51a4.293 4.293 0 0 0-1.564 1.428c-.385.612-.68 1.348-.884 2.21a13.234 13.234 0 0 0-.272 2.788c0 1.02.09 1.95.272 2.788.204.838.499 1.564.884 2.176.408.612.93 1.088 1.564 1.428.635.34 1.394.51 2.278.51.884 0 1.632-.17 2.244-.51a3.84 3.84 0 0 0 1.462-1.428c.385-.612.657-1.338.816-2.176a13.22 13.22 0 0 0 .272-2.788c0-1.02-.09-1.95-.272-2.788-.159-.862-.43-1.598-.816-2.21a3.844 3.844 0 0 0-1.462-1.428c-.612-.34-1.36-.51-2.244-.51zm19.375 6.868c.045 2.334.476 4.136 1.292 5.406.816 1.246 2.051 1.87 3.706 1.87 1.292 0 2.436-.318 3.434-.952.997-.635 1.688-1.666 2.074-3.094l2.108.408a9.082 9.082 0 0 1-.918 2.176 6.71 6.71 0 0 1-1.53 1.87c-.635.544-1.406.974-2.312 1.292-.884.34-1.927.51-3.128.51-1.179 0-2.324-.148-3.434-.442a7.69 7.69 0 0 1-2.992-1.462c-.862-.703-1.564-1.644-2.108-2.822-.522-1.202-.782-2.709-.782-4.522 0-1.383.204-2.64.612-3.774.43-1.156 1.042-2.142 1.836-2.958.793-.816 1.756-1.45 2.89-1.904 1.156-.454 2.47-.68 3.944-.68 5.712 0 8.568 3.026 8.568 9.078h-13.26zm9.044-1.802c0-.748-.091-1.44-.272-2.074a4.962 4.962 0 0 0-.816-1.7 3.717 3.717 0 0 0-1.36-1.156c-.522-.295-1.134-.442-1.836-.442-1.224 0-2.267.42-3.128 1.258-.862.838-1.383 2.21-1.564 4.114h8.976zm14.464-3.366c.657-1.292 1.451-2.222 2.38-2.788a5.712 5.712 0 0 1 3.06-.884c.499 0 1.009.08 1.53.238a4.261 4.261 0 0 1 1.462.748c.431.34.782.782 1.054 1.326.272.521.408 1.144.408 1.87 0 .861-.238 1.575-.714 2.142-.453.544-1.077.816-1.87.816-.793 0-1.394-.204-1.802-.612a2.15 2.15 0 0 1-.612-1.53c0-.567.181-1.043.544-1.428.385-.386.963-.59 1.734-.612-.181-.34-.476-.6-.884-.782a3.146 3.146 0 0 0-1.292-.272c-.408 0-.85.102-1.326.306-.453.204-.907.51-1.36.918-.431.408-.85.94-1.258 1.598-.408.634-.759 1.394-1.054 2.278v7.276c0 .521.283.906.85 1.156.567.25 1.394.374 2.482.374v1.938H115.91v-1.938c1.949 0 2.924-.51 2.924-1.53v-10.37c0-1.02-.975-1.53-2.924-1.53v-1.938h7.582v3.23zm43.232 8.126c.045.294.068.612.068.952.022.34.034.634.034.884 0 .612-.068 1.19-.204 1.734a3.537 3.537 0 0 1-.714 1.428c-.318.408-.748.725-1.292.952-.522.25-1.168.374-1.938.374-1.088 0-1.984-.125-2.686-.374a16.48 16.48 0 0 1-1.938-.782 16.445 16.445 0 0 0-1.938-.782c-.68-.25-1.542-.374-2.584-.374-.862 0-1.576.17-2.142.51-.544.34-1.032.816-1.462 1.428h-1.632c.362-1.882.929-3.423 1.7-4.624.77-1.202 1.62-2.199 2.55-2.992a15.962 15.962 0 0 1 2.89-2.04 29.799 29.799 0 0 0 2.72-1.734 8.412 8.412 0 0 0 2.006-2.108c.521-.816.782-1.87.782-3.162 0-1.224-.374-2.256-1.122-3.094-.726-.839-1.859-1.258-3.4-1.258-.658 0-1.224.056-1.7.17a4.309 4.309 0 0 0-1.224.476c-.34.181-.624.396-.85.646a5.46 5.46 0 0 0-.578.748c.476.022.906.238 1.292.646.385.385.578.872.578 1.462 0 .702-.216 1.292-.646 1.768-.431.453-1.043.68-1.836.68-.771 0-1.372-.238-1.802-.714-.408-.499-.612-1.134-.612-1.904 0-.635.147-1.315.442-2.04.317-.726.793-1.394 1.428-2.006.657-.612 1.496-1.11 2.516-1.496 1.02-.408 2.244-.612 3.672-.612 1.156 0 2.278.124 3.366.374s2.04.657 2.856 1.224c.838.544 1.507 1.28 2.006 2.21.521.906.782 2.028.782 3.366 0 1.473-.329 2.686-.986 3.638a8.578 8.578 0 0 1-2.448 2.414 18.34 18.34 0 0 1-3.264 1.632c-1.179.43-2.301.872-3.366 1.326-1.066.43-2.006.93-2.822 1.496-.794.544-1.304 1.246-1.53 2.108.77-.68 1.53-1.134 2.278-1.36a7.924 7.924 0 0 1 2.312-.34c.748 0 1.405.09 1.972.272a17.55 17.55 0 0 1 1.564.578c.498.204.974.396 1.428.578.476.181.986.272 1.53.272.272 0 .532-.023.782-.068a1.67 1.67 0 0 0 .714-.374c.226-.204.419-.465.578-.782.158-.34.283-.782.374-1.326h1.496z" fill="#8F2100"/><path d="M2.17 142.368h2.51v-9.827h7.503v9.827h2.51v-20.677h-2.51v8.773H4.68v-8.773H2.17v20.677zm16.647 0h9.3v-1.86H21.08v-5.332h5.456v-1.86H21.08v-4.743h6.851v-1.86h-9.114v15.655zm10.653 0h2.293l1.178-4.402h4.588l1.21 4.402H41l-4.4-15.655h-2.48l-4.65 15.655zm3.936-6.2l1.83-7.223 1.797 7.223h-3.627zm10.236 6.2h3.503c4.557 0 7.47-3.1 7.47-7.936 0-4.774-2.851-7.719-7.47-7.719h-3.503v15.655zm2.263-1.86v-11.935h1.24c3.13 0 4.96 2.232 4.96 6.014 0 3.751-1.798 5.921-4.96 5.921h-1.24zm11.814 1.86h9.3v-1.86h-7.037v-5.332h5.456v-1.86h-5.456v-4.743h6.85v-1.86H57.72v15.655zm11.988 0h2.263v-6.665h2.821l2.604 6.665h2.511l-2.976-7.192c1.674-.837 2.542-2.232 2.542-4.092 0-2.759-1.798-4.371-4.898-4.371h-4.867v15.655zm2.263-8.525v-5.27h2.511c1.736 0 2.666.837 2.666 2.449 0 1.86-.992 2.821-2.82 2.821H71.97zm14.58 9.083c.279 1.395.588 2.108 1.27 2.883 1.179 1.395 3.07 2.17 5.24 2.17 3.968 0 6.665-2.449 6.665-6.076 0-2.728-1.364-4.464-4.061-5.146 2.48-1.116 3.347-2.325 3.347-4.557 0-3.348-2.262-5.518-5.765-5.518-1.767 0-3.317.589-4.402 1.643-.837.806-1.24 1.519-1.674 3.1l1.983.589c.403-1.302.713-1.891 1.302-2.449.651-.589 1.674-.992 2.636-.992 2.015 0 3.379 1.519 3.379 3.751 0 1.209-.403 2.201-1.147 2.852-.744.651-1.364.806-3.286.806h-1.365v1.86h1.365c1.704 0 2.758.217 3.502.775.962.713 1.457 1.798 1.457 3.224 0 2.542-1.611 4.247-3.968 4.247-1.085 0-2.325-.527-3.1-1.302-.62-.62-.93-1.24-1.332-2.573l-2.047.713z" fill="#645D54"/><path d="M1.494 177.574h7.074v-1.314H3.024v-10.692h-1.53v12.006zm8.738-1.314c.72 1.044 1.675 1.548 2.97 1.548 2.395 0 4.104-1.908 4.104-4.572 0-2.898-1.548-4.77-3.96-4.77-2.376 0-4.014 1.908-4.014 4.644 0 1.242.306 2.286.9 3.15zm3.079.414c-1.566 0-2.466-1.314-2.466-3.582 0-1.08.215-1.944.611-2.52.396-.594 1.135-.972 1.837-.972.72 0 1.44.378 1.872.972.432.594.63 1.404.63 2.574 0 2.196-.937 3.528-2.485 3.528zm5.934.9h1.386v-4.698c0-1.89 1.314-3.222 2.988-3.078v-1.314a7.241 7.241 0 0 0-.504-.036c-.684 0-1.35.306-1.746.774-.324.396-.486.666-.918 1.548v-2.07h-1.206v8.874zm12.951-4.32c-.018-1.224-.163-1.962-.522-2.736-.63-1.296-1.854-2.052-3.348-2.052-2.43 0-4.123 1.926-4.123 4.716 0 2.772 1.639 4.626 4.069 4.626 1.8 0 3.186-.972 3.761-2.61l-1.277-.27c-.198.468-.343.72-.54.936-.45.522-1.135.81-1.855.81-.954 0-1.872-.54-2.268-1.35-.27-.558-.36-1.026-.36-2.07h6.463zm-6.39-1.026c.09-.846.233-1.278.63-1.764.486-.612 1.134-.936 1.907-.936.793 0 1.387.306 1.837.936.36.522.486.936.503 1.764h-4.878zm8.258 5.346h1.314v-5.31c0-1.494.954-2.664 2.178-2.664.504 0 .99.234 1.332.648.288.36.414.792.414 1.494v5.832h1.332v-5.004c0-.99.18-1.566.684-2.142.45-.486 1.026-.774 1.584-.774s1.134.306 1.422.792c.234.396.288.648.288 1.62v5.508h1.35v-5.508c0-1.278-.09-1.818-.414-2.34a2.652 2.652 0 0 0-2.268-1.26c-1.224 0-2.214.738-2.808 2.124-.342-1.35-1.26-2.124-2.484-2.124-1.17 0-2.07.648-2.736 1.944v-1.71h-1.188v8.874zm19.088-10.476h1.494v-1.53h-1.494v1.53zm.054 10.476h1.386V168.7h-1.386v8.874zm5.517-1.35c.756 1.152 1.476 1.584 2.628 1.584 2.106 0 3.546-1.89 3.546-4.68 0-2.772-1.422-4.662-3.51-4.662-1.26 0-2.106.594-2.808 1.962V168.7h-1.242v11.88h1.386v-4.356zm0-1.872v-2.484c.36-1.368 1.26-2.196 2.358-2.196 1.44 0 2.304 1.314 2.304 3.546 0 1.17-.216 2.034-.666 2.628-.378.486-1.044.828-1.638.828-1.134 0-2.142-.99-2.358-2.322zm10.244-2.196c-.936-.162-1.386-.576-1.386-1.242 0-.792.756-1.314 1.908-1.314 1.134 0 1.854.45 2.268 1.386l1.26-.27c-.432-1.476-1.638-2.25-3.492-2.25-2.016 0-3.348 1.044-3.348 2.61 0 1.26.882 2.178 2.394 2.448l1.872.342c1.008.18 1.53.666 1.53 1.368 0 .864-.846 1.44-2.088 1.44-.846 0-1.674-.252-2.178-.666-.288-.234-.432-.504-.576-1.008l-1.314.27c.216.774.45 1.152.918 1.548.756.648 1.782.99 3.024.99 2.178 0 3.654-1.098 3.654-2.718 0-1.44-.882-2.304-2.7-2.628l-1.746-.306zm6.405 2.214c0 2.124 1.116 3.438 2.916 3.438 1.242 0 2.196-.666 2.826-1.926v1.692h1.242V168.7H80.97v5.004c0 1.638-1.098 2.97-2.466 2.97-.486 0-.972-.216-1.296-.612-.306-.36-.45-.882-.45-1.692v-5.67h-1.386v5.67zm9.738 3.204h1.315v-5.31c0-1.494.954-2.664 2.178-2.664.504 0 .99.234 1.332.648.288.36.414.792.414 1.494v5.832h1.332v-5.004c0-.99.18-1.566.684-2.142.45-.486 1.026-.774 1.584-.774s1.134.306 1.422.792c.234.396.288.648.288 1.62v5.508h1.35v-5.508c0-1.278-.09-1.818-.414-2.34a2.652 2.652 0 0 0-2.268-1.26c-1.224 0-2.214.738-2.808 2.124-.342-1.35-1.26-2.124-2.484-2.124-1.17 0-2.07.648-2.736 1.944v-1.71H85.11v8.874zm24.813 0h1.26v-12.006h-1.386v4.338c-.792-1.062-1.494-1.458-2.61-1.458-2.142 0-3.636 1.962-3.636 4.77 0 2.682 1.476 4.608 3.564 4.608 1.278 0 2.07-.504 2.808-1.764v1.512zm-.126-3.6c0 .882-.216 1.296-.648 1.818-.486.558-1.134.9-1.8.9-1.44 0-2.286-1.35-2.286-3.654 0-2.124.918-3.492 2.34-3.492.702 0 1.458.36 1.872.918.342.432.522.828.522 1.656v1.854zm4.269 2.286c.72 1.044 1.674 1.548 2.97 1.548 2.394 0 4.104-1.908 4.104-4.572 0-2.898-1.548-4.77-3.96-4.77-2.376 0-4.014 1.908-4.014 4.644 0 1.242.306 2.286.9 3.15zm3.078.414c-1.566 0-2.466-1.314-2.466-3.582 0-1.08.216-1.944.612-2.52.396-.594 1.134-.972 1.836-.972.72 0 1.44.378 1.872.972.432.594.63 1.404.63 2.574 0 2.196-.936 3.528-2.484 3.528zm5.935.9h1.386v-12.006h-1.386v12.006zm4.259-1.314c.72 1.044 1.674 1.548 2.97 1.548 2.394 0 4.104-1.908 4.104-4.572 0-2.898-1.548-4.77-3.96-4.77-2.376 0-4.014 1.908-4.014 4.644 0 1.242.306 2.286.9 3.15zm3.078.414c-1.566 0-2.466-1.314-2.466-3.582 0-1.08.216-1.944.612-2.52.396-.594 1.134-.972 1.836-.972.72 0 1.44.378 1.872.972.432.594.63 1.404.63 2.574 0 2.196-.936 3.528-2.484 3.528zm5.935.9h1.386v-4.698c0-1.89 1.314-3.222 2.988-3.078v-1.314a7.241 7.241 0 0 0-.504-.036c-.684 0-1.35.306-1.746.774-.324.396-.486.666-.918 1.548v-2.07h-1.206v8.874zm12.368-5.418c-.936-.162-1.386-.576-1.386-1.242 0-.792.756-1.314 1.908-1.314 1.134 0 1.854.45 2.268 1.386l1.26-.27c-.432-1.476-1.638-2.25-3.492-2.25-2.016 0-3.348 1.044-3.348 2.61 0 1.26.882 2.178 2.394 2.448l1.872.342c1.008.18 1.53.666 1.53 1.368 0 .864-.846 1.44-2.088 1.44-.846 0-1.674-.252-2.178-.666-.288-.234-.432-.504-.576-1.008l-1.314.27c.216.774.45 1.152.918 1.548.756.648 1.782.99 3.024.99 2.178 0 3.654-1.098 3.654-2.718 0-1.44-.882-2.304-2.7-2.628l-1.746-.306zm6.333-5.058h1.494v-1.53h-1.494v1.53zm.054 10.476h1.386V168.7h-1.386v8.874zm4.294-2.448c0 1.782.864 2.7 2.538 2.7.378 0 .702-.018 1.314-.108v-1.098c-.486.09-.738.108-1.062.108-.954 0-1.44-.468-1.44-1.386v-5.562h1.998v-1.08h-1.998v-2.34l-1.296.108-.054 2.232h-1.566v1.08h1.566v5.346zm16.823 2.448c-.144-.54-.198-1.08-.198-1.728v-3.762c0-1.296-.162-1.998-.594-2.592-.522-.702-1.422-1.044-2.754-1.044-1.476 0-2.592.36-3.294 1.08-.378.378-.54.72-.666 1.386l1.278.216c.234-1.062 1.044-1.62 2.376-1.62.954 0 1.62.234 1.98.72.234.306.342.828.342 1.566v.288c-.558-.036-.828-.036-1.152-.036-1.548 0-2.754.216-3.564.648a2.747 2.747 0 0 0-1.494 2.43c0 1.584 1.26 2.682 3.096 2.682 1.512 0 2.394-.522 3.114-1.836.054 1.008.072 1.17.162 1.602h1.368zm-6.264-2.412c0-1.35 1.26-2.07 3.564-2.07.234 0 .702.018 1.17.036.018.234.018.414.018.576 0 1.71-1.26 3.042-2.862 3.042-1.152 0-1.89-.63-1.89-1.584zm8.843 2.412h1.314v-5.31c0-1.494.954-2.664 2.178-2.664.504 0 .99.234 1.332.648.288.36.414.792.414 1.494v5.832h1.332v-5.004c0-.99.18-1.566.684-2.142.45-.486 1.026-.774 1.584-.774s1.134.306 1.422.792c.234.396.288.648.288 1.62v5.508h1.35v-5.508c0-1.278-.09-1.818-.414-2.34a2.652 2.652 0 0 0-2.268-1.26c-1.224 0-2.214.738-2.808 2.124-.342-1.35-1.26-2.124-2.484-2.124-1.17 0-2.07.648-2.736 1.944v-1.71h-1.188v8.874zm21.81-4.32c-.018-1.224-.162-1.962-.522-2.736-.63-1.296-1.854-2.052-3.348-2.052-2.43 0-4.122 1.926-4.122 4.716 0 2.772 1.638 4.626 4.068 4.626 1.8 0 3.186-.972 3.762-2.61l-1.278-.27c-.198.468-.342.72-.54.936-.45.522-1.134.81-1.854.81-.954 0-1.872-.54-2.268-1.35-.27-.558-.36-1.026-.36-2.07h6.462zm-6.39-1.026c.09-.846.234-1.278.63-1.764.486-.612 1.134-.936 1.908-.936.792 0 1.386.306 1.836.936.36.522.486.936.504 1.764h-4.878zm8.49 2.898c0 1.782.864 2.7 2.538 2.7.378 0 .702-.018 1.314-.108v-1.098c-.486.09-.738.108-1.062.108-.954 0-1.44-.468-1.44-1.386v-5.562h1.998v-1.08h-1.998v-2.34l-1.296.108-.054 2.232h-1.566v1.08h1.566v5.346zm5.285 2.448h.9l-1.044 2.25h.756l1.314-2.448v-1.8h-1.926v1.998zM6.624 199.46c-.306 1.458-1.044 2.214-2.16 2.214-1.458 0-2.34-1.332-2.34-3.564 0-2.16.918-3.51 2.358-3.51.684 0 1.278.306 1.674.846.234.342.36.666.468 1.35l1.242-.234c-.36-2.016-1.548-3.096-3.366-3.096-2.286 0-3.816 1.872-3.816 4.68 0 2.826 1.476 4.662 3.744 4.662.99 0 1.764-.306 2.394-.954.576-.576.828-1.098 1.044-2.178l-1.242-.216zm3.345 1.8c.72 1.044 1.674 1.548 2.97 1.548 2.394 0 4.104-1.908 4.104-4.572 0-2.898-1.548-4.77-3.96-4.77-2.376 0-4.014 1.908-4.014 4.644 0 1.242.306 2.286.9 3.15zm3.078.414c-1.566 0-2.466-1.314-2.466-3.582 0-1.08.216-1.944.612-2.52.396-.594 1.134-.972 1.836-.972.72 0 1.44.378 1.872.972.432.594.63 1.404.63 2.574 0 2.196-.936 3.528-2.484 3.528zm5.935.9h1.386v-4.878c0-1.746 1.062-3.042 2.484-3.042 1.188 0 1.836.774 1.836 2.214v5.706h1.296v-5.13c0-1.314-.09-1.98-.324-2.43-.504-.972-1.44-1.548-2.556-1.548-1.224 0-1.926.468-2.844 1.872V193.7h-1.278v8.874zm11.7-5.418c-.936-.162-1.386-.576-1.386-1.242 0-.792.756-1.314 1.908-1.314 1.134 0 1.854.45 2.268 1.386l1.26-.27c-.432-1.476-1.638-2.25-3.492-2.25-2.016 0-3.348 1.044-3.348 2.61 0 1.26.882 2.178 2.394 2.448l1.872.342c1.008.18 1.53.666 1.53 1.368 0 .864-.846 1.44-2.088 1.44-.846 0-1.674-.252-2.178-.666-.288-.234-.432-.504-.576-1.008l-1.314.27c.216.774.45 1.152.918 1.548.756.648 1.782.99 3.024.99 2.178 0 3.654-1.098 3.654-2.718 0-1.44-.882-2.304-2.7-2.628l-1.746-.306zm13.695 1.098c-.018-1.224-.162-1.962-.522-2.736-.63-1.296-1.854-2.052-3.348-2.052-2.43 0-4.122 1.926-4.122 4.716 0 2.772 1.638 4.626 4.068 4.626 1.8 0 3.186-.972 3.762-2.61l-1.278-.27c-.198.468-.342.72-.54.936-.45.522-1.134.81-1.854.81-.954 0-1.872-.54-2.268-1.35-.27-.558-.36-1.026-.36-2.07h6.462zm-6.39-1.026c.09-.846.234-1.278.63-1.764.486-.612 1.134-.936 1.908-.936.792 0 1.386.306 1.836.936.36.522.486.936.504 1.764h-4.878zm13.69 2.232c-.306 1.458-1.044 2.214-2.16 2.214-1.458 0-2.34-1.332-2.34-3.564 0-2.16.918-3.51 2.358-3.51.684 0 1.278.306 1.674.846.234.342.36.666.468 1.35l1.242-.234c-.36-2.016-1.548-3.096-3.366-3.096-2.286 0-3.816 1.872-3.816 4.68 0 2.826 1.476 4.662 3.744 4.662.99 0 1.764-.306 2.394-.954.576-.576.828-1.098 1.044-2.178l-1.242-.216zm3.414.666c0 1.782.864 2.7 2.538 2.7.378 0 .702-.018 1.314-.108v-1.098c-.486.09-.738.108-1.062.108-.954 0-1.44-.468-1.44-1.386v-5.562h1.998v-1.08h-1.998v-2.34l-1.296.108-.054 2.232h-1.566v1.08h1.566v5.346zm12.349-1.872c-.018-1.224-.162-1.962-.522-2.736-.63-1.296-1.854-2.052-3.348-2.052-2.43 0-4.122 1.926-4.122 4.716 0 2.772 1.638 4.626 4.068 4.626 1.8 0 3.186-.972 3.762-2.61l-1.278-.27c-.198.468-.342.72-.54.936-.45.522-1.134.81-1.854.81-.954 0-1.872-.54-2.268-1.35-.27-.558-.36-1.026-.36-2.07h6.462zm-6.39-1.026c.09-.846.234-1.278.63-1.764.486-.612 1.134-.936 1.908-.936.792 0 1.386.306 1.836.936.36.522.486.936.504 1.764H61.05zm8.49 2.898c0 1.782.864 2.7 2.538 2.7.378 0 .702-.018 1.314-.108v-1.098c-.486.09-.738.108-1.062.108-.954 0-1.44-.468-1.44-1.386v-5.562h1.998v-1.08H70.89v-2.34l-1.296.108-.054 2.232h-1.566v1.08h1.566v5.346zm5.375-.756c0 2.124 1.116 3.438 2.916 3.438 1.242 0 2.196-.666 2.826-1.926v1.692H81.9V193.7h-1.386v5.004c0 1.638-1.098 2.97-2.466 2.97-.486 0-.972-.216-1.296-.612-.306-.36-.45-.882-.45-1.692v-5.67h-1.386v5.67zm9.739 3.204h1.386v-4.698c0-1.89 1.314-3.222 2.988-3.078v-1.314a7.241 7.241 0 0 0-.504-.036c-.684 0-1.35.306-1.746.774-.324.396-.486.666-.918 1.548v-2.07h-1.206v8.874zm17.371 0c-.144-.54-.198-1.08-.198-1.728v-3.762c0-1.296-.162-1.998-.594-2.592-.522-.702-1.422-1.044-2.754-1.044-1.476 0-2.592.36-3.294 1.08-.378.378-.54.72-.666 1.386l1.278.216c.234-1.062 1.044-1.62 2.376-1.62.954 0 1.62.234 1.98.72.234.306.342.828.342 1.566v.288c-.558-.036-.828-.036-1.152-.036-1.548 0-2.754.216-3.564.648a2.747 2.747 0 0 0-1.494 2.43c0 1.584 1.26 2.682 3.096 2.682 1.512 0 2.394-.522 3.114-1.836.054 1.008.072 1.17.162 1.602h1.368zm-6.264-2.412c0-1.35 1.26-2.07 3.564-2.07.234 0 .702.018 1.17.036.018.234.018.414.018.576 0 1.71-1.26 3.042-2.862 3.042-1.152 0-1.89-.63-1.89-1.584zm14.338 2.412h1.26v-12.006h-1.386v4.338c-.792-1.062-1.494-1.458-2.61-1.458-2.142 0-3.636 1.962-3.636 4.77 0 2.682 1.476 4.608 3.564 4.608 1.278 0 2.07-.504 2.808-1.764v1.512zm-.126-3.6c0 .882-.216 1.296-.648 1.818-.486.558-1.134.9-1.8.9-1.44 0-2.286-1.35-2.286-3.654 0-2.124.918-3.492 2.34-3.492.702 0 1.458.36 1.872.918.342.432.522.828.522 1.656v1.854zm4.087-6.876h1.494v-1.53h-1.494v1.53zm.054 10.476h1.386V193.7h-1.386v8.874zm5.517-1.35c.756 1.152 1.476 1.584 2.628 1.584 2.106 0 3.546-1.89 3.546-4.68 0-2.772-1.422-4.662-3.51-4.662-1.26 0-2.106.594-2.808 1.962V193.7h-1.242v11.88h1.386v-4.356zm0-1.872v-2.484c.36-1.368 1.26-2.196 2.358-2.196 1.44 0 2.304 1.314 2.304 3.546 0 1.17-.216 2.034-.666 2.628-.378.486-1.044.828-1.638.828-1.134 0-2.142-.99-2.358-2.322zm8.052-7.254h1.494v-1.53h-1.494v1.53zm.054 10.476h1.386V193.7h-1.386v8.874zm6.075-5.418c-.936-.162-1.386-.576-1.386-1.242 0-.792.756-1.314 1.908-1.314 1.134 0 1.854.45 2.268 1.386l1.26-.27c-.432-1.476-1.638-2.25-3.492-2.25-2.016 0-3.348 1.044-3.348 2.61 0 1.26.882 2.178 2.394 2.448l1.872.342c1.008.18 1.53.666 1.53 1.368 0 .864-.846 1.44-2.088 1.44-.846 0-1.674-.252-2.178-.666-.288-.234-.432-.504-.576-1.008l-1.314.27c.216.774.45 1.152.918 1.548.756.648 1.782.99 3.024.99 2.178 0 3.654-1.098 3.654-2.718 0-1.44-.882-2.304-2.7-2.628l-1.746-.306zm11.644 2.304c-.306 1.458-1.044 2.214-2.16 2.214-1.458 0-2.34-1.332-2.34-3.564 0-2.16.918-3.51 2.358-3.51.684 0 1.278.306 1.674.846.234.342.36.666.468 1.35l1.242-.234c-.36-2.016-1.548-3.096-3.366-3.096-2.286 0-3.816 1.872-3.816 4.68 0 2.826 1.476 4.662 3.744 4.662.99 0 1.764-.306 2.394-.954.576-.576.828-1.098 1.044-2.178l-1.242-.216zm3.075-7.362h1.494v-1.53h-1.494v1.53zm.054 10.476h1.386V193.7h-1.386v8.874zm4.131 0h1.386v-4.878c0-1.746 1.062-3.042 2.484-3.042 1.188 0 1.836.774 1.836 2.214v5.706h1.296v-5.13c0-1.314-.09-1.98-.324-2.43-.504-.972-1.44-1.548-2.556-1.548-1.224 0-1.926.468-2.844 1.872V193.7h-1.278v8.874zm16.816-10.26c-.18-.018-.252-.018-.36-.018-.828 0-1.188.09-1.494.396-.306.288-.468.63-.558 1.152a3.96 3.96 0 0 0-1.818-.414c-1.944 0-3.384 1.296-3.384 3.024 0 .972.324 1.638 1.152 2.358-.9.432-1.224.846-1.224 1.566 0 .612.216.99.864 1.44-.936.36-1.35.9-1.35 1.764 0 1.53 1.404 2.34 4.05 2.34 2.952 0 4.464-.864 4.464-2.538 0-.738-.342-1.35-.972-1.764-.558-.36-1.152-.468-2.988-.522-1.638-.054-1.998-.09-2.304-.234-.288-.144-.45-.36-.45-.648 0-.432.468-.846.936-.846.072 0 .288.036.576.09.18.036.378.054.612.054 1.98 0 3.402-1.224 3.402-2.952 0-.756-.288-1.494-.846-2.142.126-.792.522-1.026 1.692-1.008v-1.098zm-4.212 6.138c-1.188 0-1.98-.774-1.98-1.944 0-1.152.828-1.98 1.998-1.98 1.134 0 1.962.864 1.962 2.016 0 1.116-.828 1.908-1.98 1.908zm-2.628 4.986c0-.558.252-.864.972-1.224.414.054 1.242.108 2.142.126 1.548.036 1.71.054 2.142.252.414.18.612.45.612.846 0 .504-.324.9-.936 1.098a7.17 7.17 0 0 1-2.106.324c-1.044 0-1.998-.27-2.484-.666a1.062 1.062 0 0 1-.342-.756zm20.236-5.184c-.018-1.224-.162-1.962-.522-2.736-.63-1.296-1.854-2.052-3.348-2.052-2.43 0-4.122 1.926-4.122 4.716 0 2.772 1.638 4.626 4.068 4.626 1.8 0 3.186-.972 3.762-2.61l-1.278-.27c-.198.468-.342.72-.54.936-.45.522-1.134.81-1.854.81-.954 0-1.872-.54-2.268-1.35-.27-.558-.36-1.026-.36-2.07h6.462zm-6.39-1.026c.09-.846.234-1.278.63-1.764.486-.612 1.134-.936 1.908-.936.792 0 1.386.306 1.836.936.36.522.486.936.504 1.764h-4.878zm8.258 5.346h1.386v-12.006h-1.386v12.006zm4.077-10.476h1.494v-1.53h-1.494v1.53zm.054 10.476h1.386V193.7h-1.386v8.874zm4.293-2.448c0 1.782.864 2.7 2.538 2.7.378 0 .702-.018 1.314-.108v-1.098c-.486.09-.738.108-1.062.108-.954 0-1.44-.468-1.44-1.386v-5.562h1.998v-1.08h-1.998v-2.34l-1.296.108-.054 2.232h-1.566v1.08h1.566v5.346zm5.285 2.448h.9l-1.044 2.25h.756l1.314-2.448v-1.8h-1.926v1.998zm11.034-5.418c-.936-.162-1.386-.576-1.386-1.242 0-.792.756-1.314 1.908-1.314 1.134 0 1.854.45 2.268 1.386l1.26-.27c-.432-1.476-1.638-2.25-3.492-2.25-2.016 0-3.348 1.044-3.348 2.61 0 1.26.882 2.178 2.394 2.448l1.872.342c1.008.18 1.53.666 1.53 1.368 0 .864-.846 1.44-2.088 1.44-.846 0-1.674-.252-2.178-.666-.288-.234-.432-.504-.576-1.008l-1.314.27c.216.774.45 1.152.918 1.548.756.648 1.782.99 3.024.99 2.178 0 3.654-1.098 3.654-2.718 0-1.44-.882-2.304-2.7-2.628l-1.746-.306zm13.696 1.098c-.018-1.224-.162-1.962-.522-2.736-.63-1.296-1.854-2.052-3.348-2.052-2.43 0-4.122 1.926-4.122 4.716 0 2.772 1.638 4.626 4.068 4.626 1.8 0 3.186-.972 3.762-2.61l-1.278-.27c-.198.468-.342.72-.54.936-.45.522-1.134.81-1.854.81-.954 0-1.872-.54-2.268-1.35-.27-.558-.36-1.026-.36-2.07h6.462zm-6.39-1.026c.09-.846.234-1.278.63-1.764.486-.612 1.134-.936 1.908-.936.792 0 1.386.306 1.836.936.36.522.486.936.504 1.764h-4.878zm14.103 5.346h1.26v-12.006h-1.386v4.338c-.792-1.062-1.494-1.458-2.61-1.458-2.142 0-3.636 1.962-3.636 4.77 0 2.682 1.476 4.608 3.564 4.608 1.278 0 2.07-.504 2.808-1.764v1.512zm-.126-3.6c0 .882-.216 1.296-.648 1.818-.486.558-1.134.9-1.8.9-1.44 0-2.286-1.35-2.286-3.654 0-2.124.918-3.492 2.34-3.492.702 0 1.458.36 1.872.918.342.432.522.828.522 1.656v1.854zm-223.784 28.6h1.26v-12.006H6.912v4.338c-.792-1.062-1.494-1.458-2.61-1.458-2.142 0-3.636 1.962-3.636 4.77 0 2.682 1.476 4.608 3.564 4.608 1.278 0 2.07-.504 2.808-1.764v1.512zm-.126-3.6c0 .882-.216 1.296-.648 1.818-.486.558-1.134.9-1.8.9-1.44 0-2.286-1.35-2.286-3.654 0-2.124.918-3.492 2.34-3.492.702 0 1.458.36 1.872.918.342.432.522.828.522 1.656v1.854zm4.27 2.286c.72 1.044 1.674 1.548 2.97 1.548 2.394 0 4.104-1.908 4.104-4.572 0-2.898-1.548-4.77-3.96-4.77-2.376 0-4.014 1.908-4.014 4.644 0 1.242.306 2.286.9 3.15zm3.078.414c-1.566 0-2.466-1.314-2.466-3.582 0-1.08.216-1.944.612-2.52.396-.594 1.134-.972 1.836-.972.72 0 1.44.378 1.872.972.432.594.63 1.404.63 2.574 0 2.196-.936 3.528-2.484 3.528zm17.848-3.42c-.018-1.224-.162-1.962-.522-2.736-.63-1.296-1.854-2.052-3.348-2.052-2.43 0-4.122 1.926-4.122 4.716 0 2.772 1.638 4.626 4.068 4.626 1.8 0 3.186-.972 3.762-2.61l-1.278-.27c-.198.468-.342.72-.54.936-.45.522-1.134.81-1.854.81-.954 0-1.872-.54-2.268-1.35-.27-.558-.36-1.026-.36-2.07h6.462zm-6.39-1.026c.09-.846.234-1.278.63-1.764.486-.612 1.134-.936 1.908-.936.792 0 1.386.306 1.836.936.36.522.486.936.504 1.764h-4.878zm8.186-5.13h1.494v-1.53h-1.494v1.53zm.054 10.476h1.386V218.7h-1.386v8.874zm4.132-3.204c0 2.124 1.115 3.438 2.915 3.438 1.242 0 2.196-.666 2.826-1.926v1.692h1.242V218.7h-1.386v5.004c0 1.638-1.098 2.97-2.466 2.97-.486 0-.972-.216-1.296-.612-.306-.36-.45-.882-.45-1.692v-5.67H38.09v5.67zm11.681-2.214c-.936-.162-1.386-.576-1.386-1.242 0-.792.756-1.314 1.908-1.314 1.134 0 1.854.45 2.268 1.386l1.26-.27c-.432-1.476-1.638-2.25-3.492-2.25-2.016 0-3.348 1.044-3.348 2.61 0 1.26.882 2.178 2.394 2.448l1.872.342c1.008.18 1.53.666 1.53 1.368 0 .864-.846 1.44-2.088 1.44-.846 0-1.674-.252-2.178-.666-.288-.234-.432-.504-.576-1.008l-1.314.27c.216.774.45 1.152.918 1.548.756.648 1.782.99 3.024.99 2.178 0 3.654-1.098 3.654-2.718 0-1.44-.882-2.304-2.7-2.628l-1.746-.306zm6.406 5.418h1.314v-5.31c0-1.494.954-2.664 2.178-2.664.504 0 .99.234 1.332.648.288.36.414.792.414 1.494v5.832h1.332v-5.004c0-.99.18-1.566.684-2.142.45-.486 1.026-.774 1.584-.774s1.134.306 1.422.792c.234.396.288.648.288 1.62v5.508h1.35v-5.508c0-1.278-.09-1.818-.414-2.34a2.652 2.652 0 0 0-2.268-1.26c-1.224 0-2.214.738-2.808 2.124-.342-1.35-1.26-2.124-2.484-2.124-1.17 0-2.07.648-2.736 1.944v-1.71h-1.188v8.874zm14.718-1.314c.72 1.044 1.674 1.548 2.97 1.548 2.394 0 4.104-1.908 4.104-4.572 0-2.898-1.548-4.77-3.96-4.77-2.376 0-4.014 1.908-4.014 4.644 0 1.242.306 2.286.9 3.15zm3.078.414c-1.566 0-2.466-1.314-2.466-3.582 0-1.08.216-1.944.612-2.52.396-.594 1.134-.972 1.836-.972.72 0 1.44.378 1.872.972.432.594.63 1.404.63 2.574 0 2.196-.936 3.528-2.484 3.528zm11.71.9h1.26v-12.006h-1.386v4.338c-.793-1.062-1.495-1.458-2.61-1.458-2.142 0-3.636 1.962-3.636 4.77 0 2.682 1.475 4.608 3.563 4.608 1.279 0 2.07-.504 2.809-1.764v1.512zm-.127-3.6c0 .882-.215 1.296-.647 1.818-.487.558-1.135.9-1.8.9-1.44 0-2.286-1.35-2.286-3.654 0-2.124.918-3.492 2.34-3.492.702 0 1.458.36 1.871.918.342.432.522.828.522 1.656v1.854zm8.822 1.152c0 1.782.864 2.7 2.538 2.7.378 0 .702-.018 1.314-.108v-1.098c-.486.09-.738.108-1.062.108-.954 0-1.44-.468-1.44-1.386v-5.562h1.998v-1.08h-1.998v-2.34l-1.296.108-.054 2.232h-1.566v1.08h1.566v5.346zm12.349-1.872c-.018-1.224-.162-1.962-.522-2.736-.63-1.296-1.854-2.052-3.348-2.052-2.43 0-4.122 1.926-4.122 4.716 0 2.772 1.638 4.626 4.068 4.626 1.8 0 3.186-.972 3.762-2.61l-1.278-.27c-.198.468-.342.72-.54.936-.45.522-1.134.81-1.854.81-.954 0-1.872-.54-2.268-1.35-.27-.558-.36-1.026-.36-2.07h6.462zm-6.39-1.026c.09-.846.234-1.278.63-1.764.486-.612 1.134-.936 1.908-.936.792 0 1.386.306 1.836.936.36.522.486.936.504 1.764h-4.878zm8.258 5.346h1.314v-5.31c0-1.494.954-2.664 2.178-2.664.504 0 .99.234 1.332.648.288.36.414.792.414 1.494v5.832h1.332v-5.004c0-.99.18-1.566.684-2.142.45-.486 1.026-.774 1.584-.774s1.134.306 1.422.792c.234.396.288.648.288 1.62v5.508h1.35v-5.508c0-1.278-.09-1.818-.414-2.34a2.652 2.652 0 0 0-2.268-1.26c-1.224 0-2.214.738-2.808 2.124-.342-1.35-1.26-2.124-2.484-2.124-1.17 0-2.07.648-2.736 1.944v-1.71h-1.188v8.874zm15.818-1.35c.756 1.152 1.476 1.584 2.628 1.584 2.106 0 3.546-1.89 3.546-4.68 0-2.772-1.422-4.662-3.51-4.662-1.26 0-2.106.594-2.808 1.962V218.7h-1.242v11.88h1.386v-4.356zm0-1.872v-2.484c.36-1.368 1.26-2.196 2.358-2.196 1.44 0 2.304 1.314 2.304 3.546 0 1.17-.216 2.034-.666 2.628-.378.486-1.044.828-1.638.828-1.134 0-2.142-.99-2.358-2.322zm8.427 1.908c.72 1.044 1.674 1.548 2.97 1.548 2.394 0 4.104-1.908 4.104-4.572 0-2.898-1.548-4.77-3.96-4.77-2.376 0-4.014 1.908-4.014 4.644 0 1.242.306 2.286.9 3.15zm3.078.414c-1.566 0-2.466-1.314-2.466-3.582 0-1.08.216-1.944.612-2.52.396-.594 1.134-.972 1.836-.972.72 0 1.44.378 1.872.972.432.594.63 1.404.63 2.574 0 2.196-.936 3.528-2.484 3.528zm5.935.9h1.386v-4.698c0-1.89 1.314-3.222 2.988-3.078v-1.314a7.241 7.241 0 0 0-.504-.036c-.684 0-1.35.306-1.746.774-.324.396-.486.666-.918 1.548v-2.07h-1.206v8.874zm10.352-10.476h1.494v-1.53h-1.494v1.53zm.054 10.476h1.386V218.7h-1.386v8.874zm4.131 0h1.386v-4.878c0-1.746 1.062-3.042 2.484-3.042 1.188 0 1.836.774 1.836 2.214v5.706h1.296v-5.13c0-1.314-.09-1.98-.324-2.43-.504-.972-1.44-1.548-2.556-1.548-1.224 0-1.926.468-2.844 1.872V218.7h-1.278v8.874zm14.853-3.114c-.306 1.458-1.044 2.214-2.16 2.214-1.458 0-2.34-1.332-2.34-3.564 0-2.16.918-3.51 2.358-3.51.684 0 1.278.306 1.674.846.234.342.36.666.468 1.35l1.242-.234c-.36-2.016-1.548-3.096-3.366-3.096-2.286 0-3.816 1.872-3.816 4.68 0 2.826 1.476 4.662 3.744 4.662.99 0 1.764-.306 2.394-.954.576-.576.828-1.098 1.044-2.178l-1.242-.216zm3.075-7.362h1.494v-1.53h-1.494v1.53zm.054 10.476h1.386V218.7h-1.386v8.874zm9.678 0h1.26v-12.006h-1.386v4.338c-.792-1.062-1.494-1.458-2.61-1.458-2.142 0-3.636 1.962-3.636 4.77 0 2.682 1.476 4.608 3.564 4.608 1.278 0 2.07-.504 2.808-1.764v1.512zm-.126-3.6c0 .882-.216 1.296-.648 1.818-.486.558-1.134.9-1.8.9-1.44 0-2.286-1.35-2.286-3.654 0-2.124.918-3.492 2.34-3.492.702 0 1.458.36 1.872.918.342.432.522.828.522 1.656v1.854zm4.087-6.876h1.494v-1.53h-1.494v1.53zm.054 10.476h1.386V218.7h-1.386v8.874zm9.678 0h1.26v-12.006h-1.386v4.338c-.792-1.062-1.494-1.458-2.61-1.458-2.142 0-3.636 1.962-3.636 4.77 0 2.682 1.476 4.608 3.564 4.608 1.278 0 2.07-.504 2.808-1.764v1.512zm-.126-3.6c0 .882-.216 1.296-.648 1.818-.486.558-1.134.9-1.8.9-1.44 0-2.286-1.35-2.286-3.654 0-2.124.918-3.492 2.34-3.492.702 0 1.458.36 1.872.918.342.432.522.828.522 1.656v1.854zm4.16.396c0 2.124 1.116 3.438 2.916 3.438 1.242 0 2.196-.666 2.826-1.926v1.692h1.242V218.7h-1.386v5.004c0 1.638-1.098 2.97-2.466 2.97-.486 0-.972-.216-1.296-.612-.306-.36-.45-.882-.45-1.692v-5.67h-1.386v5.67zm9.738 3.204h1.386v-4.878c0-1.746 1.062-3.042 2.484-3.042 1.188 0 1.836.774 1.836 2.214v5.706h1.296v-5.13c0-1.314-.09-1.98-.324-2.43-.504-.972-1.44-1.548-2.556-1.548-1.224 0-1.926.468-2.844 1.872V218.7h-1.278v8.874zm9.707-2.448c0 1.782.864 2.7 2.538 2.7.378 0 .702-.018 1.314-.108v-1.098c-.486.09-.738.108-1.062.108-.954 0-1.44-.468-1.44-1.386v-5.562h1.998v-1.08h-1.998v-2.34l-1.296.108-.054 2.232h-1.566v1.08h1.566v5.346zm9.875-.756c0 2.124 1.116 3.438 2.916 3.438 1.242 0 2.196-.666 2.826-1.926v1.692h1.242V218.7h-1.386v5.004c0 1.638-1.098 2.97-2.466 2.97-.486 0-.972-.216-1.296-.612-.306-.36-.45-.882-.45-1.692v-5.67h-1.386v5.67zm9.9.756c0 1.782.864 2.7 2.538 2.7.378 0 .702-.018 1.314-.108v-1.098c-.486.09-.738.108-1.062.108-.954 0-1.44-.468-1.44-1.386v-5.562h1.998v-1.08h-1.998v-2.34l-1.296.108-.054 2.232h-1.566v1.08h1.566v5.346zM1.386 252.574h1.386v-12.006H1.386v12.006zm10.956 0c-.144-.54-.198-1.08-.198-1.728v-3.762c0-1.296-.162-1.998-.594-2.592-.522-.702-1.422-1.044-2.754-1.044-1.476 0-2.592.36-3.294 1.08-.378.378-.54.72-.666 1.386l1.278.216c.234-1.062 1.044-1.62 2.376-1.62.954 0 1.62.234 1.98.72.234.306.342.828.342 1.566v.288c-.558-.036-.828-.036-1.152-.036-1.548 0-2.754.216-3.564.648a2.747 2.747 0 0 0-1.494 2.43c0 1.584 1.26 2.682 3.096 2.682 1.512 0 2.394-.522 3.114-1.836.054 1.008.072 1.17.162 1.602h1.368zm-6.264-2.412c0-1.35 1.26-2.07 3.564-2.07.234 0 .702.018 1.17.036.018.234.018.414.018.576 0 1.71-1.26 3.042-2.862 3.042-1.152 0-1.89-.63-1.89-1.584zm8.597 2.412h.666l.504-1.476c.702 1.17 1.566 1.71 2.772 1.71 2.142 0 3.654-1.962 3.654-4.716 0-2.754-1.458-4.626-3.6-4.626-1.152 0-1.89.486-2.61 1.71v-4.608h-1.386v12.006zm1.386-5.472c.126-.792.288-1.188.702-1.674.486-.54 1.062-.828 1.71-.828.648 0 1.278.324 1.62.828.45.666.72 1.746.72 2.844 0 2.07-.918 3.402-2.34 3.402-.702 0-1.44-.36-1.872-.918-.324-.45-.45-.828-.54-1.656v-1.998zm8.48 4.158c.72 1.044 1.674 1.548 2.97 1.548 2.394 0 4.104-1.908 4.104-4.572 0-2.898-1.548-4.77-3.96-4.77-2.376 0-4.014 1.908-4.014 4.644 0 1.242.306 2.286.9 3.15zm3.078.414c-1.566 0-2.466-1.314-2.466-3.582 0-1.08.216-1.944.612-2.52.396-.594 1.134-.972 1.836-.972.72 0 1.44.378 1.872.972.432.594.63 1.404.63 2.574 0 2.196-.936 3.528-2.484 3.528zm5.935.9h1.386v-4.698c0-1.89 1.314-3.222 2.988-3.078v-1.314a7.241 7.241 0 0 0-.504-.036c-.684 0-1.35.306-1.746.774-.324.396-.486.666-.918 1.548v-2.07h-1.206v8.874zm12.95-4.32c-.018-1.224-.162-1.962-.522-2.736-.63-1.296-1.854-2.052-3.348-2.052-2.43 0-4.122 1.926-4.122 4.716 0 2.772 1.638 4.626 4.068 4.626 1.8 0 3.186-.972 3.762-2.61l-1.278-.27c-.198.468-.342.72-.54.936-.45.522-1.134.81-1.854.81-.954 0-1.872-.54-2.268-1.35-.27-.558-.36-1.026-.36-2.07h6.462zm-6.39-1.026c.09-.846.234-1.278.63-1.764.486-.612 1.134-.936 1.908-.936.792 0 1.386.306 1.836.936.36.522.486.936.504 1.764h-4.878zm20.242 1.026c-.018-1.224-.162-1.962-.522-2.736-.63-1.296-1.854-2.052-3.348-2.052-2.43 0-4.122 1.926-4.122 4.716 0 2.772 1.638 4.626 4.068 4.626 1.8 0 3.186-.972 3.762-2.61l-1.278-.27c-.198.468-.342.72-.54.936-.45.522-1.134.81-1.854.81-.954 0-1.872-.54-2.268-1.35-.27-.558-.36-1.026-.36-2.07h6.462zm-6.39-1.026c.09-.846.234-1.278.63-1.764.486-.612 1.134-.936 1.908-.936.792 0 1.386.306 1.836.936.36.522.486.936.504 1.764h-4.878zm8.49 2.898c0 1.782.864 2.7 2.538 2.7.378 0 .702-.018 1.314-.108v-1.098c-.486.09-.738.108-1.062.108-.954 0-1.44-.468-1.44-1.386v-5.562h1.998v-1.08h-1.998v-2.34l-1.296.108-.054 2.232H60.89v1.08h1.566v5.346zm15.527 2.448h1.26v-12.006h-1.386v4.338c-.792-1.062-1.494-1.458-2.61-1.458-2.142 0-3.636 1.962-3.636 4.77 0 2.682 1.476 4.608 3.564 4.608 1.278 0 2.07-.504 2.808-1.764v1.512zm-.126-3.6c0 .882-.216 1.296-.648 1.818-.486.558-1.134.9-1.8.9-1.44 0-2.286-1.35-2.286-3.654 0-2.124.918-3.492 2.34-3.492.702 0 1.458.36 1.872.918.342.432.522.828.522 1.656v1.854zm4.27 2.286c.72 1.044 1.674 1.548 2.97 1.548 2.394 0 4.104-1.908 4.104-4.572 0-2.898-1.548-4.77-3.96-4.77-2.376 0-4.014 1.908-4.014 4.644 0 1.242.306 2.286.9 3.15zm3.078.414c-1.566 0-2.466-1.314-2.466-3.582 0-1.08.216-1.944.612-2.52.396-.594 1.134-.972 1.836-.972.72 0 1.44.378 1.872.972.432.594.63 1.404.63 2.574 0 2.196-.936 3.528-2.484 3.528zm5.935.9h1.386v-12.006H91.14v12.006zm4.258-1.314c.72 1.044 1.675 1.548 2.97 1.548 2.394 0 4.104-1.908 4.104-4.572 0-2.898-1.548-4.77-3.96-4.77-2.376 0-4.013 1.908-4.013 4.644 0 1.242.306 2.286.9 3.15zm3.079.414c-1.567 0-2.467-1.314-2.467-3.582 0-1.08.216-1.944.612-2.52.397-.594 1.135-.972 1.837-.972.72 0 1.44.378 1.871.972.432.594.63 1.404.63 2.574 0 2.196-.936 3.528-2.483 3.528zm5.934.9h1.386v-4.698c0-1.89 1.314-3.222 2.988-3.078v-1.314a7.241 7.241 0 0 0-.504-.036c-.684 0-1.35.306-1.746.774-.324.396-.486.666-.918 1.548v-2.07h-1.206v8.874zm12.951-4.32c-.018-1.224-.162-1.962-.522-2.736-.63-1.296-1.854-2.052-3.348-2.052-2.43 0-4.122 1.926-4.122 4.716 0 2.772 1.638 4.626 4.068 4.626 1.8 0 3.186-.972 3.762-2.61l-1.278-.27c-.198.468-.342.72-.54.936-.45.522-1.134.81-1.854.81-.954 0-1.872-.54-2.268-1.35-.27-.558-.36-1.026-.36-2.07h6.462zm-6.39-1.026c.09-.846.234-1.278.63-1.764.486-.612 1.134-.936 1.908-.936.792 0 1.386.306 1.836.936.36.522.486.936.504 1.764h-4.878zm12.951 5.346h1.314v-5.31c0-1.494.954-2.664 2.178-2.664.504 0 .99.234 1.332.648.288.36.414.792.414 1.494v5.832h1.332v-5.004c0-.99.18-1.566.684-2.142.45-.486 1.026-.774 1.584-.774s1.134.306 1.422.792c.234.396.288.648.288 1.62v5.508h1.35v-5.508c0-1.278-.09-1.818-.414-2.34a2.652 2.652 0 0 0-2.268-1.26c-1.224 0-2.214.738-2.808 2.124-.342-1.35-1.26-2.124-2.484-2.124-1.17 0-2.07.648-2.736 1.944v-1.71h-1.188v8.874zm21.432 0c-.144-.54-.197-1.08-.197-1.728v-3.762c0-1.296-.162-1.998-.594-2.592-.522-.702-1.423-1.044-2.755-1.044-1.476 0-2.591.36-3.293 1.08-.378.378-.54.72-.666 1.386l1.278.216c.234-1.062 1.043-1.62 2.375-1.62.954 0 1.621.234 1.981.72.234.306.342.828.342 1.566v.288c-.558-.036-.829-.036-1.153-.036-1.548 0-2.754.216-3.564.648a2.747 2.747 0 0 0-1.494 2.43c0 1.584 1.261 2.682 3.097 2.682 1.512 0 2.394-.522 3.114-1.836.054 1.008.072 1.17.162 1.602h1.367zm-6.263-2.412c0-1.35 1.26-2.07 3.564-2.07.234 0 .702.018 1.17.036.018.234.018.414.018.576 0 1.71-1.26 3.042-2.862 3.042-1.152 0-1.89-.63-1.89-1.584zm15.903-7.848c-.18-.018-.252-.018-.36-.018-.828 0-1.188.09-1.494.396-.306.288-.468.63-.558 1.152a3.96 3.96 0 0 0-1.818-.414c-1.944 0-3.384 1.296-3.384 3.024 0 .972.324 1.638 1.152 2.358-.9.432-1.224.846-1.224 1.566 0 .612.216.99.864 1.44-.936.36-1.35.9-1.35 1.764 0 1.53 1.404 2.34 4.05 2.34 2.952 0 4.464-.864 4.464-2.538 0-.738-.342-1.35-.972-1.764-.558-.36-1.152-.468-2.988-.522-1.638-.054-1.998-.09-2.304-.234-.288-.144-.45-.36-.45-.648 0-.432.468-.846.936-.846.072 0 .288.036.576.09.18.036.378.054.612.054 1.98 0 3.402-1.224 3.402-2.952 0-.756-.288-1.494-.846-2.142.126-.792.522-1.026 1.692-1.008v-1.098zm-4.212 6.138c-1.188 0-1.98-.774-1.98-1.944 0-1.152.828-1.98 1.998-1.98 1.134 0 1.962.864 1.962 2.016 0 1.116-.828 1.908-1.98 1.908zm-2.628 4.986c0-.558.252-.864.972-1.224.414.054 1.242.108 2.142.126 1.548.036 1.71.054 2.142.252.414.18.612.45.612.846 0 .504-.324.9-.936 1.098a7.17 7.17 0 0 1-2.106.324c-1.044 0-1.998-.27-2.484-.666a1.062 1.062 0 0 1-.342-.756zm8.446-.864h1.386v-4.878c0-1.746 1.062-3.042 2.484-3.042 1.188 0 1.836.774 1.836 2.214v5.706h1.296v-5.13c0-1.314-.09-1.98-.324-2.43-.504-.972-1.44-1.548-2.556-1.548-1.224 0-1.926.468-2.844 1.872V243.7h-1.278v8.874zm16.528 0c-.144-.54-.198-1.08-.198-1.728v-3.762c0-1.296-.162-1.998-.594-2.592-.522-.702-1.422-1.044-2.754-1.044-1.476 0-2.592.36-3.294 1.08-.378.378-.54.72-.666 1.386l1.278.216c.234-1.062 1.044-1.62 2.376-1.62.954 0 1.62.234 1.98.72.234.306.342.828.342 1.566v.288c-.558-.036-.828-.036-1.152-.036-1.548 0-2.754.216-3.564.648a2.747 2.747 0 0 0-1.494 2.43c0 1.584 1.26 2.682 3.096 2.682 1.512 0 2.394-.522 3.114-1.836.054 1.008.072 1.17.162 1.602h1.368zm-6.264-2.412c0-1.35 1.26-2.07 3.564-2.07.234 0 .702.018 1.17.036.018.234.018.414.018.576 0 1.71-1.26 3.042-2.862 3.042-1.152 0-1.89-.63-1.89-1.584zm20.291 2.412c-.144-.54-.198-1.08-.198-1.728v-3.762c0-1.296-.162-1.998-.594-2.592-.522-.702-1.422-1.044-2.754-1.044-1.476 0-2.592.36-3.294 1.08-.378.378-.54.72-.666 1.386l1.278.216c.234-1.062 1.044-1.62 2.376-1.62.954 0 1.62.234 1.98.72.234.306.342.828.342 1.566v.288c-.558-.036-.828-.036-1.152-.036-1.548 0-2.754.216-3.564.648a2.747 2.747 0 0 0-1.494 2.43c0 1.584 1.26 2.682 3.096 2.682 1.512 0 2.394-.522 3.114-1.836.054 1.008.072 1.17.162 1.602h1.368zm-6.264-2.412c0-1.35 1.26-2.07 3.564-2.07.234 0 .702.018 1.17.036.018.234.018.414.018.576 0 1.71-1.26 3.042-2.862 3.042-1.152 0-1.89-.63-1.89-1.584zm8.844 2.412h1.386v-12.006h-1.386v12.006zm4.076-10.476h1.494v-1.53h-1.494v1.53zm.054 10.476h1.386V243.7h-1.386v8.874zm9.498 3.006h1.386v-12.006h-.702l-.54 1.584c-.828-1.314-1.458-1.71-2.682-1.71-2.16 0-3.654 1.926-3.654 4.752 0 2.772 1.404 4.608 3.51 4.608 1.224 0 2.088-.612 2.682-1.854v4.626zm0-6.948c0 .864-.162 1.242-.45 1.746-.432.792-1.134 1.242-1.944 1.242-1.404 0-2.286-1.35-2.286-3.474s.936-3.546 2.304-3.546c.594 0 1.224.288 1.656.756.45.504.612.99.72 2.088v1.188zm3.915.738c0 2.124 1.116 3.438 2.916 3.438 1.242 0 2.196-.666 2.826-1.926v1.692h1.242V243.7h-1.386v5.004c0 1.638-1.098 2.97-2.466 2.97-.486 0-.972-.216-1.296-.612-.306-.36-.45-.882-.45-1.692v-5.67h-1.386v5.67zm16.58 3.204c-.144-.54-.198-1.08-.198-1.728v-3.762c0-1.296-.162-1.998-.594-2.592-.522-.702-1.422-1.044-2.754-1.044-1.476 0-2.592.36-3.294 1.08-.378.378-.54.72-.666 1.386l1.278.216c.234-1.062 1.044-1.62 2.376-1.62.954 0 1.62.234 1.98.72.234.306.342.828.342 1.566v.288c-.558-.036-.828-.036-1.152-.036-1.548 0-2.754.216-3.564.648a2.747 2.747 0 0 0-1.494 2.43c0 1.584 1.26 2.682 3.096 2.682 1.512 0 2.394-.522 3.114-1.836.054 1.008.072 1.17.162 1.602h1.368zm-6.264-2.412c0-1.35 1.26-2.07 3.564-2.07.234 0 .702.018 1.17.036.018.234.018.414.018.576 0 1.71-1.26 3.042-2.862 3.042-1.152 0-1.89-.63-1.89-1.584zm8.613 2.412h1.962v-1.962h-1.962v1.962zM9.576 265.568H8.334v7.848c0 1.062-.162 1.692-.594 2.196-.468.558-1.278.882-2.214.882-.936 0-1.818-.342-2.232-.882-.342-.45-.486-1.08-.486-2.196v-7.848H1.314v7.848c0 1.368.216 2.232.72 2.97.666.954 1.782 1.422 3.366 1.422 1.512 0 2.664-.486 3.366-1.422.576-.756.81-1.602.81-2.97v-7.848zm2.941 9.558c0 1.782.864 2.7 2.538 2.7.378 0 .702-.018 1.314-.108v-1.098c-.486.09-.738.108-1.062.108-.954 0-1.44-.468-1.44-1.386v-5.562h1.998v-1.08h-1.998v-2.34l-1.296.108-.054 2.232H10.95v1.08h1.566v5.346zm17.165-1.872c-.018-1.224-.162-1.962-.522-2.736-.63-1.296-1.854-2.052-3.348-2.052-2.43 0-4.122 1.926-4.122 4.716 0 2.772 1.638 4.626 4.068 4.626 1.8 0 3.186-.972 3.762-2.61l-1.278-.27c-.198.468-.342.72-.54.936-.45.522-1.134.81-1.854.81-.954 0-1.872-.54-2.268-1.35-.27-.558-.36-1.026-.36-2.07h6.462zm-6.39-1.026c.09-.846.234-1.278.63-1.764.486-.612 1.134-.936 1.908-.936.792 0 1.386.306 1.836.936.36.522.486.936.504 1.764h-4.878zm8.258 5.346h1.386v-4.878c0-1.746 1.062-3.042 2.484-3.042 1.188 0 1.836.774 1.836 2.214v5.706h1.296v-5.13c0-1.314-.09-1.98-.324-2.43-.504-.972-1.44-1.548-2.556-1.548-1.224 0-1.926.468-2.844 1.872V268.7H31.55v8.874zm9.684-10.476h1.494v-1.53h-1.494v1.53zm.054 10.476h1.386V268.7h-1.386v8.874zm4.132 0h1.313v-5.31c0-1.494.954-2.664 2.178-2.664.504 0 .99.234 1.332.648.288.36.414.792.414 1.494v5.832h1.332v-5.004c0-.99.18-1.566.684-2.142.45-.486 1.026-.774 1.584-.774s1.134.306 1.422.792c.234.396.288.648.288 1.62v5.508h1.35v-5.508c0-1.278-.09-1.818-.414-2.34a2.652 2.652 0 0 0-2.268-1.26c-1.224 0-2.214.738-2.808 2.124-.342-1.35-1.26-2.124-2.484-2.124-1.17 0-2.07.648-2.736 1.944v-1.71H45.42v8.874zm26.107 0c-.144-.54-.198-1.08-.198-1.728v-3.762c0-1.296-.162-1.998-.594-2.592-.522-.702-1.422-1.044-2.754-1.044-1.476 0-2.592.36-3.294 1.08-.378.378-.54.72-.666 1.386l1.278.216c.234-1.062 1.044-1.62 2.376-1.62.954 0 1.62.234 1.98.72.234.306.342.828.342 1.566v.288c-.558-.036-.828-.036-1.152-.036-1.548 0-2.754.216-3.564.648a2.747 2.747 0 0 0-1.494 2.43c0 1.584 1.26 2.682 3.096 2.682 1.512 0 2.394-.522 3.114-1.836.054 1.008.072 1.17.162 1.602h1.368zm-6.264-2.412c0-1.35 1.26-2.07 3.564-2.07.234 0 .702.018 1.17.036.018.234.018.414.018.576 0 1.71-1.26 3.042-2.862 3.042-1.152 0-1.89-.63-1.89-1.584zm14.337 2.412h1.26v-12.006h-1.385v4.338c-.792-1.062-1.494-1.458-2.61-1.458-2.142 0-3.636 1.962-3.636 4.77 0 2.682 1.475 4.608 3.564 4.608 1.277 0 2.07-.504 2.807-1.764v1.512zm-.125-3.6c0 .882-.216 1.296-.648 1.818-.486.558-1.135.9-1.8.9-1.44 0-2.287-1.35-2.287-3.654 0-2.124.919-3.492 2.34-3.492.703 0 1.459.36 1.873.918.341.432.522.828.522 1.656v1.854zm8.659 3.6h1.314v-5.31c0-1.494.954-2.664 2.178-2.664.504 0 .99.234 1.332.648.288.36.414.792.414 1.494v5.832h1.332v-5.004c0-.99.18-1.566.684-2.142.45-.486 1.026-.774 1.584-.774s1.134.306 1.422.792c.234.396.288.648.288 1.62v5.508h1.35v-5.508c0-1.278-.09-1.818-.414-2.34a2.652 2.652 0 0 0-2.268-1.26c-1.224 0-2.214.738-2.808 2.124-.342-1.35-1.26-2.124-2.484-2.124-1.17 0-2.07.648-2.736 1.944v-1.71h-1.188v8.874zm14.588-10.476h1.494v-1.53h-1.494v1.53zm.054 10.476h1.386V268.7h-1.386v8.874zm4.132 0h1.386v-4.878c0-1.746 1.061-3.042 2.483-3.042 1.188 0 1.837.774 1.837 2.214v5.706h1.296v-5.13c0-1.314-.09-1.98-.324-2.43-.504-.972-1.44-1.548-2.556-1.548-1.224 0-1.926.468-2.844 1.872V268.7h-1.278v8.874zm9.683-10.476h1.494v-1.53h-1.494v1.53zm.054 10.476h1.386V268.7h-1.386v8.874zm4.132 0h1.314v-5.31c0-1.494.954-2.664 2.178-2.664.504 0 .99.234 1.332.648.288.36.414.792.414 1.494v5.832h1.332v-5.004c0-.99.18-1.566.684-2.142.45-.486 1.026-.774 1.584-.774s1.134.306 1.422.792c.234.396.288.648.288 1.62v5.508h1.35v-5.508c0-1.278-.09-1.818-.414-2.34a2.652 2.652 0 0 0-2.268-1.26c-1.224 0-2.214.738-2.808 2.124-.342-1.35-1.26-2.124-2.484-2.124-1.17 0-2.07.648-2.736 1.944v-1.71h-1.188v8.874zm21.158 0h1.44l3.06-8.874h-1.224l-2.448 7.218-2.466-7.218h-1.53l3.168 8.874zm13.132-4.32c-.018-1.224-.162-1.962-.522-2.736-.63-1.296-1.854-2.052-3.348-2.052-2.43 0-4.122 1.926-4.122 4.716 0 2.772 1.638 4.626 4.068 4.626 1.8 0 3.186-.972 3.762-2.61l-1.278-.27c-.198.468-.342.72-.54.936-.45.522-1.134.81-1.854.81-.954 0-1.872-.54-2.268-1.35-.27-.558-.36-1.026-.36-2.07h6.462zm-6.39-1.026c.09-.846.234-1.278.63-1.764.486-.612 1.134-.936 1.908-.936.792 0 1.386.306 1.836.936.36.522.486.936.504 1.764h-4.878zm8.258 5.346h1.386v-4.878c0-1.746 1.062-3.042 2.484-3.042 1.188 0 1.836.774 1.836 2.214v5.706h1.296v-5.13c0-1.314-.09-1.98-.324-2.43-.504-.972-1.44-1.548-2.556-1.548-1.224 0-1.926.468-2.844 1.872V268.7h-1.278v8.874zm9.684-10.476h1.494v-1.53h-1.494v1.53zm.054 10.476h1.386V268.7h-1.386v8.874zm10.938 0c-.144-.54-.198-1.08-.198-1.728v-3.762c0-1.296-.162-1.998-.594-2.592-.522-.702-1.422-1.044-2.754-1.044-1.476 0-2.592.36-3.294 1.08-.378.378-.54.72-.666 1.386l1.278.216c.234-1.062 1.044-1.62 2.376-1.62.954 0 1.62.234 1.98.72.234.306.342.828.342 1.566v.288c-.558-.036-.828-.036-1.152-.036-1.548 0-2.754.216-3.564.648a2.747 2.747 0 0 0-1.494 2.43c0 1.584 1.26 2.682 3.096 2.682 1.512 0 2.394-.522 3.114-1.836.054 1.008.072 1.17.162 1.602h1.368zm-6.264-2.412c0-1.35 1.26-2.07 3.564-2.07.234 0 .702.018 1.17.036.018.234.018.414.018.576 0 1.71-1.26 3.042-2.862 3.042-1.152 0-1.89-.63-1.89-1.584zm8.844 2.412h1.314v-5.31c0-1.494.954-2.664 2.178-2.664.504 0 .99.234 1.332.648.288.36.414.792.414 1.494v5.832h1.332v-5.004c0-.99.18-1.566.684-2.142.45-.486 1.026-.774 1.584-.774s1.134.306 1.422.792c.234.396.288.648.288 1.62v5.508h1.35v-5.508c0-1.278-.09-1.818-.414-2.34a2.652 2.652 0 0 0-2.268-1.26c-1.224 0-2.214.738-2.808 2.124-.342-1.35-1.26-2.124-2.484-2.124-1.17 0-2.07.648-2.736 1.944v-1.71h-1.188v8.874zm14.429 0h.9l-1.044 2.25h.756l1.314-2.448v-1.8h-1.926v1.998zm14.58 3.006h1.386v-12.006h-.702l-.54 1.584c-.828-1.314-1.458-1.71-2.682-1.71-2.16 0-3.654 1.926-3.654 4.752 0 2.772 1.404 4.608 3.51 4.608 1.224 0 2.088-.612 2.682-1.854v4.626zm0-6.948c0 .864-.162 1.242-.45 1.746-.432.792-1.134 1.242-1.944 1.242-1.404 0-2.286-1.35-2.286-3.474s.936-3.546 2.304-3.546c.594 0 1.224.288 1.656.756.45.504.612.99.72 2.088v1.188zm3.915.738c0 2.124 1.116 3.438 2.916 3.438 1.242 0 2.196-.666 2.826-1.926v1.692h1.242V268.7h-1.386v5.004c0 1.638-1.098 2.97-2.466 2.97-.486 0-.972-.216-1.296-.612-.306-.36-.45-.882-.45-1.692v-5.67h-1.386v5.67zm9.666-7.272h1.494v-1.53h-1.494v1.53zm.054 10.476h1.386V268.7h-1.386v8.874zm6.075-5.418c-.936-.162-1.386-.576-1.386-1.242 0-.792.756-1.314 1.908-1.314 1.134 0 1.854.45 2.268 1.386l1.26-.27c-.432-1.476-1.638-2.25-3.492-2.25-2.016 0-3.348 1.044-3.348 2.61 0 1.26.882 2.178 2.394 2.448l1.872.342c1.008.18 1.53.666 1.53 1.368 0 .864-.846 1.44-2.088 1.44-.846 0-1.674-.252-2.178-.666-.288-.234-.432-.504-.576-1.008l-1.314.27c.216.774.45 1.152.918 1.548.756.648 1.782.99 3.024.99 2.178 0 3.654-1.098 3.654-2.718 0-1.44-.882-2.304-2.7-2.628l-1.746-.306zM1.386 302.574h1.386v-4.878c0-1.746 1.062-3.042 2.484-3.042 1.188 0 1.836.774 1.836 2.214v5.706h1.296v-5.13c0-1.314-.09-1.98-.324-2.43-.504-.972-1.44-1.548-2.556-1.548-1.224 0-1.926.468-2.844 1.872V293.7H1.386v8.874zm9.814-1.314c.72 1.044 1.673 1.548 2.97 1.548 2.393 0 4.103-1.908 4.103-4.572 0-2.898-1.548-4.77-3.96-4.77-2.376 0-4.014 1.908-4.014 4.644 0 1.242.306 2.286.9 3.15zm3.077.414c-1.566 0-2.466-1.314-2.466-3.582 0-1.08.216-1.944.612-2.52.396-.594 1.134-.972 1.836-.972.72 0 1.44.378 1.872.972.432.594.63 1.404.63 2.574 0 2.196-.936 3.528-2.484 3.528zm8.073-4.518c-.937-.162-1.387-.576-1.387-1.242 0-.792.756-1.314 1.909-1.314 1.134 0 1.854.45 2.268 1.386l1.26-.27c-.432-1.476-1.638-2.25-3.492-2.25-2.017 0-3.349 1.044-3.349 2.61 0 1.26.883 2.178 2.394 2.448l1.873.342c1.008.18 1.53.666 1.53 1.368 0 .864-.847 1.44-2.089 1.44-.845 0-1.674-.252-2.177-.666-.288-.234-.433-.504-.576-1.008l-1.314.27c.216.774.45 1.152.918 1.548.756.648 1.782.99 3.024.99 2.178 0 3.654-1.098 3.654-2.718 0-1.44-.883-2.304-2.7-2.628l-1.747-.306zm6.567 2.97c0 1.782.864 2.7 2.538 2.7.378 0 .702-.018 1.314-.108v-1.098c-.486.09-.738.108-1.062.108-.954 0-1.44-.468-1.44-1.386v-5.562h1.998v-1.08h-1.998v-2.34l-1.296.108-.054 2.232h-1.566v1.08h1.566v5.346zm5.375 2.448h1.386v-4.698c0-1.89 1.314-3.222 2.988-3.078v-1.314a7.241 7.241 0 0 0-.504-.036c-.684 0-1.35.306-1.746.774-.324.396-.486.666-.918 1.548v-2.07h-1.206v8.874zm5.836-3.204c0 2.124 1.116 3.438 2.916 3.438 1.242 0 2.196-.666 2.826-1.926v1.692h1.242V293.7h-1.386v5.004c0 1.638-1.098 2.97-2.466 2.97-.486 0-.972-.216-1.296-.612-.306-.36-.45-.882-.45-1.692v-5.67h-1.386v5.67zm15.32 3.204h1.26v-12.006h-1.386v4.338c-.792-1.062-1.494-1.458-2.61-1.458-2.142 0-3.636 1.962-3.636 4.77 0 2.682 1.476 4.608 3.564 4.608 1.278 0 2.07-.504 2.808-1.764v1.512zm-.126-3.6c0 .882-.216 1.296-.648 1.818-.486.558-1.134.9-1.8.9-1.44 0-2.286-1.35-2.286-3.654 0-2.124.918-3.492 2.34-3.492.702 0 1.458.36 1.872.918.342.432.522.828.522 1.656v1.854zm15.95-.72c-.018-1.224-.162-1.962-.522-2.736-.63-1.296-1.854-2.052-3.348-2.052-2.43 0-4.122 1.926-4.122 4.716 0 2.772 1.638 4.626 4.068 4.626 1.8 0 3.186-.972 3.762-2.61l-1.278-.27c-.198.468-.342.72-.54.936-.45.522-1.134.81-1.854.81-.954 0-1.872-.54-2.268-1.35-.27-.558-.36-1.026-.36-2.07h6.462zm-6.39-1.026c.09-.846.234-1.278.63-1.764.486-.612 1.134-.936 1.908-.936.792 0 1.386.306 1.836.936.36.522.486.936.504 1.764h-4.878zm6.821 5.346h1.35l2.303-3.6 2.25 3.6h1.603l-3.06-4.896 2.591-3.978h-1.33l-1.927 3.024-1.907-3.024H71.99l2.7 4.266-2.987 4.608zm15.917-4.32c-.019-1.224-.163-1.962-.523-2.736-.63-1.296-1.854-2.052-3.348-2.052-2.43 0-4.122 1.926-4.122 4.716 0 2.772 1.638 4.626 4.068 4.626 1.8 0 3.186-.972 3.762-2.61l-1.278-.27c-.198.468-.342.72-.54.936-.45.522-1.134.81-1.854.81-.954 0-1.872-.54-2.268-1.35-.27-.558-.36-1.026-.36-2.07h6.462zm-6.39-1.026c.09-.846.233-1.278.63-1.764.485-.612 1.133-.936 1.907-.936.792 0 1.386.306 1.836.936.36.522.486.936.504 1.764H81.23zm8.258 5.346h1.386v-4.698c0-1.89 1.314-3.222 2.988-3.078v-1.314a7.241 7.241 0 0 0-.504-.036c-.684 0-1.35.306-1.746.774-.324.396-.486.666-.918 1.548v-2.07h-1.206v8.874zm10.95-3.114c-.306 1.458-1.044 2.214-2.16 2.214-1.458 0-2.34-1.332-2.34-3.564 0-2.16.918-3.51 2.358-3.51.684 0 1.278.306 1.674.846.234.342.36.666.468 1.35l1.242-.234c-.36-2.016-1.548-3.096-3.366-3.096-2.285 0-3.815 1.872-3.815 4.68 0 2.826 1.476 4.662 3.744 4.662.99 0 1.763-.306 2.393-.954.576-.576.828-1.098 1.044-2.178l-1.242-.216zm3.075-7.362h1.494v-1.53h-1.494v1.53zm.054 10.476h1.386V293.7h-1.386v8.874zm4.294-2.448c0 1.782.864 2.7 2.538 2.7.378 0 .702-.018 1.314-.108v-1.098c-.486.09-.738.108-1.062.108-.954 0-1.44-.468-1.44-1.386v-5.562h1.998v-1.08h-1.998v-2.34l-1.296.108-.054 2.232h-1.566v1.08h1.566v5.346zm12.393 2.448c-.144-.54-.198-1.08-.198-1.728v-3.762c0-1.296-.162-1.998-.594-2.592-.522-.702-1.422-1.044-2.754-1.044-1.476 0-2.592.36-3.294 1.08-.378.378-.54.72-.666 1.386l1.278.216c.234-1.062 1.044-1.62 2.376-1.62.954 0 1.62.234 1.98.72.234.306.342.828.342 1.566v.288c-.558-.036-.828-.036-1.152-.036-1.548 0-2.754.216-3.564.648a2.747 2.747 0 0 0-1.494 2.43c0 1.584 1.26 2.682 3.096 2.682 1.512 0 2.394-.522 3.114-1.836.054 1.008.072 1.17.162 1.602h1.368zm-6.264-2.412c0-1.35 1.26-2.07 3.564-2.07.234 0 .702.018 1.17.036.018.234.018.414.018.576 0 1.71-1.26 3.042-2.862 3.042-1.152 0-1.89-.63-1.89-1.584zm8.812-.036c0 1.782.864 2.7 2.538 2.7.378 0 .702-.018 1.314-.108v-1.098c-.486.09-.738.108-1.062.108-.954 0-1.44-.468-1.44-1.386v-5.562h1.998v-1.08h-1.998v-2.34l-1.296.108-.054 2.232h-1.566v1.08h1.566v5.346zm5.303-8.028h1.494v-1.53h-1.494v1.53zm.054 10.476h1.386V293.7h-1.386v8.874zm4.206-1.314c.72 1.044 1.674 1.548 2.97 1.548 2.394 0 4.104-1.908 4.104-4.572 0-2.898-1.548-4.77-3.96-4.77-2.376 0-4.014 1.908-4.014 4.644 0 1.242.306 2.286.9 3.15zm3.078.414c-1.566 0-2.466-1.314-2.466-3.582 0-1.08.216-1.944.612-2.52.396-.594 1.134-.972 1.836-.972.72 0 1.44.378 1.872.972.432.594.63 1.404.63 2.574 0 2.196-.936 3.528-2.484 3.528zm5.935.9h1.386v-4.878c0-1.746 1.062-3.042 2.484-3.042 1.188 0 1.836.774 1.836 2.214v5.706h1.296v-5.13c0-1.314-.09-1.98-.324-2.43-.504-.972-1.44-1.548-2.556-1.548-1.224 0-1.926.468-2.844 1.872V293.7h-1.278v8.874zm14.256-3.204c0 2.124 1.116 3.438 2.916 3.438 1.242 0 2.196-.666 2.826-1.926v1.692h1.242V293.7h-1.386v5.004c0 1.638-1.098 2.97-2.466 2.97-.486 0-.972-.216-1.296-.612-.306-.36-.45-.882-.45-1.692v-5.67h-1.386v5.67zm9.738 3.204h1.386v-12.006h-1.386v12.006zm4.149 0h1.386v-12.006h-1.386v12.006zm10.956 0c-.144-.54-.198-1.08-.198-1.728v-3.762c0-1.296-.162-1.998-.594-2.592-.522-.702-1.422-1.044-2.754-1.044-1.476 0-2.592.36-3.294 1.08-.378.378-.54.72-.666 1.386l1.278.216c.234-1.062 1.044-1.62 2.376-1.62.954 0 1.62.234 1.98.72.234.306.342.828.342 1.566v.288c-.558-.036-.828-.036-1.152-.036-1.548 0-2.754.216-3.564.648a2.747 2.747 0 0 0-1.494 2.43c0 1.584 1.26 2.682 3.096 2.682 1.512 0 2.394-.522 3.114-1.836.054 1.008.072 1.17.162 1.602h1.368zm-6.264-2.412c0-1.35 1.26-2.07 3.564-2.07.234 0 .702.018 1.17.036.018.234.018.414.018.576 0 1.71-1.26 3.042-2.862 3.042-1.152 0-1.89-.63-1.89-1.584zm8.843 2.412h1.314v-5.31c0-1.494.954-2.664 2.178-2.664.504 0 .99.234 1.332.648.288.36.414.792.414 1.494v5.832h1.332v-5.004c0-.99.18-1.566.684-2.142.45-.486 1.026-.774 1.584-.774s1.134.306 1.422.792c.234.396.288.648.288 1.62v5.508h1.35v-5.508c0-1.278-.09-1.818-.414-2.34a2.652 2.652 0 0 0-2.268-1.26c-1.224 0-2.214.738-2.808 2.124-.342-1.35-1.26-2.124-2.484-2.124-1.17 0-2.07.648-2.736 1.944v-1.71h-1.188v8.874zm19.898-3.114c-.306 1.458-1.044 2.214-2.16 2.214-1.458 0-2.34-1.332-2.34-3.564 0-2.16.918-3.51 2.358-3.51.684 0 1.278.306 1.674.846.234.342.36.666.468 1.35l1.242-.234c-.36-2.016-1.548-3.096-3.366-3.096-2.286 0-3.816 1.872-3.816 4.68 0 2.826 1.476 4.662 3.744 4.662.99 0 1.764-.306 2.394-.954.576-.576.828-1.098 1.044-2.178l-1.242-.216zm3.345 1.8c.72 1.044 1.674 1.548 2.97 1.548 2.394 0 4.104-1.908 4.104-4.572 0-2.898-1.548-4.77-3.96-4.77-2.376 0-4.014 1.908-4.014 4.644 0 1.242.306 2.286.9 3.15zm3.078.414c-1.566 0-2.466-1.314-2.466-3.582 0-1.08.216-1.944.612-2.52.396-.594 1.134-.972 1.836-.972.72 0 1.44.378 1.872.972.432.594.63 1.404.63 2.574 0 2.196-.936 3.528-2.484 3.528zm-207.991 25.9h1.386v-12.006H1.386v12.006zm10.956 0c-.144-.54-.198-1.08-.198-1.728v-3.762c0-1.296-.162-1.998-.594-2.592-.522-.702-1.422-1.044-2.754-1.044-1.476 0-2.592.36-3.294 1.08-.378.378-.54.72-.666 1.386l1.278.216c.234-1.062 1.044-1.62 2.376-1.62.954 0 1.62.234 1.98.72.234.306.342.828.342 1.566v.288c-.558-.036-.828-.036-1.152-.036-1.548 0-2.754.216-3.564.648a2.747 2.747 0 0 0-1.494 2.43c0 1.584 1.26 2.682 3.096 2.682 1.512 0 2.394-.522 3.114-1.836.054 1.008.072 1.17.162 1.602h1.368zm-6.264-2.412c0-1.35 1.26-2.07 3.564-2.07.234 0 .702.018 1.17.036.018.234.018.414.018.576 0 1.71-1.26 3.042-2.862 3.042-1.152 0-1.89-.63-1.89-1.584zm8.597 2.412h.666l.504-1.476c.702 1.17 1.566 1.71 2.772 1.71 2.142 0 3.654-1.962 3.654-4.716 0-2.754-1.458-4.626-3.6-4.626-1.152 0-1.89.486-2.61 1.71v-4.608h-1.386v12.006zm1.386-5.472c.126-.792.288-1.188.702-1.674.486-.54 1.062-.828 1.71-.828.648 0 1.278.324 1.62.828.45.666.72 1.746.72 2.844 0 2.07-.918 3.402-2.34 3.402-.702 0-1.44-.36-1.872-.918-.324-.45-.45-.828-.54-1.656v-1.998zm8.48 4.158c.72 1.044 1.674 1.548 2.97 1.548 2.394 0 4.104-1.908 4.104-4.572 0-2.898-1.548-4.77-3.96-4.77-2.376 0-4.014 1.908-4.014 4.644 0 1.242.306 2.286.9 3.15zm3.078.414c-1.566 0-2.466-1.314-2.466-3.582 0-1.08.216-1.944.612-2.52.396-.594 1.134-.972 1.836-.972.72 0 1.44.378 1.872.972.432.594.63 1.404.63 2.574 0 2.196-.936 3.528-2.484 3.528zm5.935.9h1.386v-4.698c0-1.89 1.314-3.222 2.988-3.078v-1.314a7.241 7.241 0 0 0-.504-.036c-.684 0-1.35.306-1.746.774-.324.396-.486.666-.918 1.548v-2.07h-1.206v8.874zm5.764-10.476h1.494v-1.53h-1.494v1.53zm.054 10.476h1.386V318.7h-1.386v8.874zm6.075-5.418c-.936-.162-1.386-.576-1.386-1.242 0-.792.756-1.314 1.908-1.314 1.134 0 1.854.45 2.268 1.386l1.26-.27c-.432-1.476-1.638-2.25-3.492-2.25-2.016 0-3.348 1.044-3.348 2.61 0 1.26.882 2.178 2.394 2.448l1.872.342c1.008.18 1.53.666 1.53 1.368 0 .864-.846 1.44-2.088 1.44-.846 0-1.674-.252-2.178-.666-.288-.234-.432-.504-.576-1.008l-1.314.27c.216.774.45 1.152.918 1.548.756.648 1.782.99 3.024.99 2.178 0 3.654-1.098 3.654-2.718 0-1.44-.882-2.304-2.7-2.628l-1.746-.306zm10.906 5.418h1.386v-4.878c0-1.746 1.062-3.042 2.484-3.042 1.188 0 1.836.774 1.836 2.214v5.706h1.296v-5.13c0-1.314-.09-1.98-.324-2.43-.504-.972-1.44-1.548-2.556-1.548-1.224 0-1.926.468-2.844 1.872V318.7h-1.278v8.874zm9.684-10.476h1.494v-1.53h-1.494v1.53zm.054 10.476h1.386V318.7H66.09v8.874zm6.075-5.418c-.936-.162-1.386-.576-1.386-1.242 0-.792.756-1.314 1.908-1.314 1.134 0 1.854.45 2.268 1.386l1.26-.27c-.432-1.476-1.638-2.25-3.492-2.25-2.016 0-3.348 1.044-3.348 2.61 0 1.26.882 2.178 2.394 2.448l1.872.342c1.008.18 1.53.666 1.53 1.368 0 .864-.846 1.44-2.088 1.44-.846 0-1.674-.252-2.178-.666-.288-.234-.432-.504-.576-1.008l-1.314.27c.216.774.45 1.152.918 1.548.756.648 1.782.99 3.024.99 2.178 0 3.654-1.098 3.654-2.718 0-1.44-.882-2.304-2.7-2.628l-1.746-.306zm6.334-5.058h1.494v-1.53H78.5v1.53zm.054 10.476h1.386V318.7h-1.386v8.874zm8.631-3.204c0 2.124 1.116 3.438 2.916 3.438 1.242 0 2.196-.666 2.826-1.926v1.692h1.242V318.7h-1.386v5.004c0 1.638-1.098 2.97-2.466 2.97-.486 0-.972-.216-1.296-.612-.306-.36-.45-.882-.45-1.692v-5.67h-1.386v5.67zm9.9.756c0 1.782.864 2.7 2.538 2.7.378 0 .702-.018 1.314-.108v-1.098c-.486.09-.738.108-1.062.108-.954 0-1.44-.468-1.44-1.386v-5.562h1.998v-1.08h-1.998v-2.34l-1.296.108-.054 2.232H95.52v1.08h1.566v5.346zm16.823 2.448c-.144-.54-.198-1.08-.198-1.728v-3.762c0-1.296-.162-1.998-.594-2.592-.522-.702-1.422-1.044-2.754-1.044-1.476 0-2.592.36-3.294 1.08-.378.378-.54.72-.666 1.386l1.278.216c.234-1.062 1.044-1.62 2.376-1.62.954 0 1.62.234 1.98.72.234.306.342.828.342 1.566v.288c-.558-.036-.828-.036-1.152-.036-1.548 0-2.754.216-3.564.648a2.747 2.747 0 0 0-1.494 2.43c0 1.584 1.26 2.682 3.096 2.682 1.512 0 2.394-.522 3.114-1.836.054 1.008.072 1.17.162 1.602h1.368zm-6.264-2.412c0-1.35 1.26-2.07 3.564-2.07.234 0 .702.018 1.17.036.018.234.018.414.018.576 0 1.71-1.26 3.042-2.862 3.042-1.152 0-1.89-.63-1.89-1.584zm8.844 2.412h1.386v-12.006h-1.386v12.006zm4.076-10.476h1.494v-1.53h-1.494v1.53zm.054 10.476h1.386V318.7h-1.386v8.874zm9.498 3.006h1.386v-12.006h-.702l-.54 1.584c-.828-1.314-1.458-1.71-2.682-1.71-2.16 0-3.654 1.926-3.654 4.752 0 2.772 1.404 4.608 3.51 4.608 1.224 0 2.088-.612 2.682-1.854v4.626zm0-6.948c0 .864-.162 1.242-.45 1.746-.432.792-1.134 1.242-1.944 1.242-1.404 0-2.286-1.35-2.286-3.474s.936-3.546 2.304-3.546c.594 0 1.224.288 1.656.756.45.504.612.99.72 2.088v1.188zm3.915.738c0 2.124 1.116 3.438 2.916 3.438 1.242 0 2.196-.666 2.826-1.926v1.692h1.242V318.7h-1.386v5.004c0 1.638-1.098 2.97-2.466 2.97-.486 0-.972-.216-1.296-.612-.306-.36-.45-.882-.45-1.692v-5.67h-1.386v5.67zm9.666-7.272h1.494v-1.53h-1.494v1.53zm.054 10.476h1.386V318.7h-1.386v8.874zm5.517-1.35c.756 1.152 1.476 1.584 2.628 1.584 2.106 0 3.546-1.89 3.546-4.68 0-2.772-1.422-4.662-3.51-4.662-1.26 0-2.106.594-2.808 1.962V318.7h-1.242v11.88h1.386v-4.356zm0-1.872v-2.484c.36-1.368 1.26-2.196 2.358-2.196 1.44 0 2.304 1.314 2.304 3.546 0 1.17-.216 2.034-.666 2.628-.378.486-1.044.828-1.638.828-1.134 0-2.142-.99-2.358-2.322zm20.019-1.098c-.018-1.224-.162-1.962-.522-2.736-.63-1.296-1.854-2.052-3.348-2.052-2.43 0-4.122 1.926-4.122 4.716 0 2.772 1.638 4.626 4.068 4.626 1.8 0 3.186-.972 3.762-2.61l-1.278-.27c-.198.468-.342.72-.54.936-.45.522-1.134.81-1.854.81-.954 0-1.872-.54-2.268-1.35-.27-.558-.36-1.026-.36-2.07h6.462zm-6.39-1.026c.09-.846.234-1.278.63-1.764.486-.612 1.134-.936 1.908-.936.792 0 1.386.306 1.836.936.36.522.486.936.504 1.764h-4.878zm6.821 5.346h1.35l2.304-3.6 2.25 3.6h1.602l-3.06-4.896 2.592-3.978h-1.332l-1.926 3.024-1.908-3.024h-1.584l2.7 4.266-2.988 4.608zm8.853 0h1.962v-1.962h-1.962v1.962z" fill="#392E25"/></svg>