<svg width="211" height="194" fill="none" xmlns="http://www.w3.org/2000/svg"><path fill-rule="evenodd" clip-rule="evenodd" d="M9.278 48.066V27.188h8.389v20.878h7.88V.96h-7.88v19.182H9.278V.96h-7.88v47.106h7.88zm45.882 0V41.02H41.053V27.188H51.22v-7.046H41.053V8.006H54.27V.96H33.173v47.106H55.16zm16.46-37.711h.126L74.86 30.58h-6.354l3.114-20.226zm-4.258 27.272h8.642l1.398 10.44h7.626L76.576.96H66.79l-8.452 47.106h7.626l1.398-10.439zM97.484 7.614h2.732c4.194 0 5.656 1.632 5.656 6.59v20.618c0 4.958-1.462 6.59-5.656 6.59h-2.732V7.614zm-7.88 40.452h11.692c8.135 0 12.456-4.567 12.456-14.223v-18.66c0-9.656-4.321-14.223-12.456-14.223H89.603v47.106zm53.762 0V41.02h-14.108V27.188h10.168v-7.046h-10.168V8.006h13.218V.96h-21.098v47.106h21.988zm14.107-40.452h2.796c4.258 0 5.847 1.632 5.847 7.243 0 5.611-1.589 7.242-5.847 7.242h-2.796V7.614zm0 21.14c1.398 0 3.051-.065 4.067-.196l5.593 19.508h8.007l-6.673-21.335c2.669-1.24 5.529-4.306 5.529-11.874 0-10.048-4.512-13.897-13.345-13.897h-11.058v47.106h7.88V28.754zm45.438 19.312h7.117V.308h-4.004c-2.605 2.284-5.846 4.24-9.342 6.067v4.372h6.229v37.32zM1.398 84.359v40.56h4.268v-19.325h11.6v19.325h4.268v-40.56h-4.268v17.527h-11.6V84.359H1.398zm27.359 0v40.56H47.47v-3.708H33.025v-15.617h10.177v-3.708H33.025v-13.82h13.788V84.36H28.757zm32.775 3.033h.11l4.377 21.797h-8.864l4.377-21.796zm-2.9-3.033l-8.7 40.56H54.2l2.353-12.022H66.62l2.352 12.022h4.268l-8.7-40.56h-5.909zm22.981 3.708h2.298c6.238 0 9.849 2.696 9.849 16.572 0 13.875-3.611 16.572-9.849 16.572h-2.298V88.067zm-4.268 36.852h7.332c8.317 0 13.35-4.719 13.35-20.28s-5.033-20.28-13.35-20.28h-7.332v40.56zm27.358-40.56v40.56h18.713v-3.708h-14.445v-15.617h10.177v-3.708h-10.177v-13.82h13.789V84.36h-18.057zm28.562 3.708h3.721c6.129 0 8.098 2.471 8.098 7.022 0 4.55-1.969 7.022-8.098 7.022h-3.721V88.067zm-4.267 36.852h4.267v-18.988l5.581-.225 6.348 19.213h4.486l-6.675-20.112c4.377-1.573 6.347-5.393 6.347-9.943 0-6.685-4.487-10.505-10.834-10.505h-9.52v40.56zm57.124 0v-3.371h-14.993c5.91-14.156 14.773-17.302 14.773-27.414 0-6.741-3.61-10.337-8.808-10.337-4.761 0-8.81 2.697-9.248 11.91h3.612c.328-6.067 2.626-8.54 5.745-8.54 2.681 0 4.761 2.135 4.761 6.405 0 9.213-10.944 15.954-14.446 27.976v3.371h18.604zM1.398 160.076v32.241h3.393v-15.361h9.22v15.361h3.393v-32.241h-3.392v13.933H4.79v-13.933H1.398zm21.747 0v32.241H38.02v-2.947H26.538v-12.414h8.09v-2.947h-8.09v-10.985h10.96v-2.948H23.145zm26.053 2.412h.087l3.48 17.326h-7.047l3.48-17.326zm-2.305-2.412l-6.916 32.241h3.393l1.87-9.556h8.003l1.87 9.556h3.393l-6.916-32.241h-4.697zm18.267 2.948h1.827c4.958 0 7.829 2.143 7.829 13.173 0 11.029-2.871 13.173-7.83 13.173H65.16v-26.346zm-3.393 29.293h5.828c6.611 0 10.613-3.751 10.613-16.12 0-12.37-4.002-16.121-10.612-16.121h-5.829v32.241zm21.747-32.241v32.241H98.39v-2.947H86.907v-12.414h8.09v-2.947h-8.09v-10.985h10.96v-2.948H83.514zm22.704 2.948h2.958c4.871 0 6.437 1.964 6.437 5.581 0 3.617-1.566 5.582-6.437 5.582h-2.958v-11.163zm-3.393 29.293h3.393v-15.093l4.436-.179 5.046 15.272h3.566l-5.306-15.986c3.479-1.251 5.045-4.287 5.045-7.904 0-5.314-3.566-8.351-8.612-8.351h-7.568v32.241zm34.012-25.453c.087-2.233 1.044-4.555 3.741-4.555 2.174 0 3.653 1.518 3.653 5.359 0 5.001-1.914 6.162-6.611 6.162v2.679c4.958 0 7.133 1.518 7.133 6.832 0 4.421-2.088 6.743-4.175 6.743-2.784 0-4.263-1.965-4.524-5.448h-2.87c.043 4.689 2.87 8.127 7.046 8.127 3.914 0 7.655-2.947 7.655-9.556 0-3.438-1.088-6.832-4.611-8.037v-.09c2.262-.446 4.089-3.036 4.089-7.591 0-5.359-3.48-7.859-7.003-7.859-4.045 0-6.045 3.081-6.393 6.877l2.87.357z" fill="#216D98"/><path d="M1.398 136.558h185.105" stroke="#216D98" stroke-linecap="square"/></svg>