<svg width="544" height="153" fill="none" xmlns="http://www.w3.org/2000/svg"><path fill-rule="evenodd" clip-rule="evenodd" d="M115.69 75.303h2.488v16.61h9.906v2.097H115.69V75.303zm24.448 17.056c4.559 0 6.472-3.93 6.472-7.702 0-3.774-1.913-7.704-6.472-7.704s-6.472 3.93-6.472 7.704c0 3.772 1.913 7.702 6.472 7.702zm0-17.502c5.948 0 8.961 4.719 8.961 9.8 0 5.084-3.013 9.798-8.961 9.798-5.947 0-8.961-4.714-8.961-9.798 0-5.081 3.014-9.8 8.961-9.8zm27.122 6.079c-.523-2.646-2.645-3.983-5.24-3.983-4.454 0-6.341 3.67-6.341 7.572 0 4.272 1.887 7.834 6.368 7.834 3.273 0 5.162-2.304 5.398-5.395h2.488c-.471 4.662-3.38 7.491-8.097 7.491-5.816 0-8.646-4.295-8.646-9.746 0-5.423 3.092-9.852 8.857-9.852 3.904 0 7.126 2.096 7.703 6.08h-2.49zm10.956 5.346h6.34l-3.118-8.725h-.051l-3.171 8.725zm1.86-10.979h2.752l7.309 18.707h-2.751l-2.044-5.631h-7.913l-2.094 5.631h-2.569l7.31-18.707zm13.864 0h2.488v16.61h9.905v2.097H193.94V75.303zm38.94 5.633c-.524-2.646-2.647-3.983-5.239-3.983-4.456 0-6.342 3.67-6.342 7.572 0 4.272 1.886 7.834 6.366 7.834 3.276 0 5.162-2.304 5.398-5.395h2.489c-.471 4.662-3.38 7.491-8.095 7.491-5.818 0-8.649-4.295-8.649-9.746 0-5.423 3.094-9.852 8.857-9.852 3.904 0 7.127 2.096 7.703 6.08h-2.488zm15.41 2.987c2.331 0 4.323-.602 4.323-3.328 0-1.833-.998-3.196-3.33-3.196h-6.182v6.524h5.189zm-7.678-8.62h8.803c3.512 0 5.687 1.913 5.687 4.899 0 2.255-.996 4.115-3.25 4.744v.05c2.175.422 2.62 2.018 2.804 3.854.157 1.834.053 3.877 1.099 5.16h-2.775c-.708-.76-.315-2.778-.683-4.612-.261-1.833-.706-3.379-3.117-3.379h-6.079v7.991h-2.489V75.303zM264.8 86.282h6.339l-3.118-8.725h-.051l-3.17 8.725zm1.859-10.979h2.751l7.311 18.707h-2.752l-2.043-5.631h-7.914l-2.095 5.631h-2.568l7.31-18.707zm13.864 0h12.289V77.4h-9.801v5.947h8.596v2.097h-8.596v8.567h-2.488V75.303zm22.301 2.096h-6.236v-2.096h14.959V77.4h-6.234v16.61h-2.489V77.399zm22.013-2.096h2.489v16.61h9.904v2.097h-12.393V75.303zm19.758 10.979h6.341l-3.118-8.725h-.052l-3.171 8.725zm1.861-10.979h2.751l7.311 18.707h-2.753l-2.043-5.631h-7.911l-2.097 5.631h-2.569l7.311-18.707zm27.856 16.377c-1.441 1.966-3.8 2.775-6.002 2.775-5.579 0-8.907-4.559-8.907-9.43 0-5.45 2.987-10.168 8.907-10.168 4.089 0 7.338 1.836 8.045 6.209h-2.488c-.498-2.828-2.78-4.113-5.557-4.113-4.532 0-6.418 3.93-6.418 7.94 0 3.904 2.255 7.466 6.418 7.466 3.854 0 6.158-2.697 6.002-6.105h-5.975V84.16h8.2v9.85h-1.573l-.652-2.33zm7.864-16.377h12.915V77.4h-10.427v5.947h9.72v2.097h-9.72v6.47h10.506v2.097h-12.994V75.303zm25.655 8.62c2.331 0 4.323-.602 4.323-3.328 0-1.833-.998-3.196-3.328-3.196h-6.183v6.524h5.188zm-7.677-8.62h8.802c3.512 0 5.686 1.913 5.686 4.899 0 2.255-.995 4.115-3.249 4.744v.05c2.176.422 2.62 2.018 2.804 3.854.156 1.834.052 3.877 1.102 5.16h-2.779c-.708-.76-.314-2.778-.68-4.612-.263-1.833-.709-3.379-3.12-3.379h-6.077v7.991h-2.489V75.303zm30.738 5.475c-.29-2.673-2.071-3.825-4.639-3.825-2.095 0-4.193.76-4.193 3.199 0 2.305 2.989 2.644 5.999 3.325 2.989.683 5.975 1.728 5.975 5.399 0 3.98-3.904 5.58-7.309 5.58-4.193 0-7.731-2.043-7.731-6.604h2.36c0 3.146 2.62 4.507 5.448 4.507 2.253 0 4.744-.706 4.744-3.404 0-2.569-2.986-3.015-5.975-3.67-2.986-.656-6-1.52-6-4.95 0-3.8 3.38-5.478 6.786-5.478 3.826 0 6.734 1.807 6.893 5.92h-2.358zM0 32.57h5.512v32.35h22.57v4.786H0V32.57zm58.038 22.885c-.78.884-2.183 1.249-5.097 1.612l-5.876.73c-4.057.518-6.189 1.61-6.189 4.472 0 2.547 2.548 4.314 6.345 4.314 5.876 0 10.817-3.119 10.817-7.642v-3.486zm-21.166-4.473c.676-6.812 5.356-9.465 13.52-9.465 5.566 0 12.535 1.403 12.535 7.75v14.666c0 1.61.727 2.34 2.34 2.34.572 0 1.3-.105 1.82-.209v3.642c-1.248.206-2.808.31-4.056.31-2.601 0-4.317-.73-4.68-3.798-2.081 2.809-7.178 4.422-11.598 4.422-9.048 0-11.078-4.68-11.078-8.215 0-4.994 2.965-7.541 11.701-8.48l5.93-.625c2.911-.31 4.732-.83 4.732-3.273 0-3.744-3.64-4.473-7.853-4.473-4.473 0-8.27 1.195-8.425 5.408h-4.889zm53.307-4.784c-6.347 0-10.038 4.158-10.038 9.776 0 5.617 3.691 9.623 10.038 9.623 6.291 0 10.036-4.006 10.036-9.623 0-5.617-3.745-9.776-10.036-9.776zm10.036-3.743h5.2v24.961c0 9.776-4.68 13.73-15.862 13.73-5.877 0-12.637-.934-13.73-8.476h5.202c.936 3.534 4.108 4.42 9.049 4.42 7.383 0 10.141-3.745 10.141-8.218V64.92h-.104c-2.914 4.213-7.021 5.047-10.558 5.047-7.28 0-14.926-3.952-14.926-14.043 0-10.14 7.647-14.093 14.874-14.093 4.473 0 8.582 1.506 10.61 4.628h.104v-4.003zm39.265 11.126c-.78-4.94-4.629-7.697-9.517-7.697-4.785 0-9.101 2.809-9.882 7.697h19.399zm-19.554 4.057c.416 5.617 5.408 8.635 10.037 8.635 2.964 0 7.021-.99 8.788-4.838h5.512c-2.599 6.553-8.684 9.205-14.04 9.205-10.61 0-15.81-6.707-15.81-14.562 0-7.851 5.2-14.562 15.81-14.562 7.176 0 14.77 4.163 14.77 15.447v.675h-25.067zm35.573-15.183h5.2v4.992h.104c2.443-4.317 5.929-5.93 9.36-5.93 1.3 0 1.977.053 2.964.313v5.617c-1.299-.313-2.287-.522-3.692-.522-5.147 0-8.736 3.017-8.736 8.944v13.837h-5.2V42.454zm30.735-8.375h5.199v8.375h7.801v4.053h-7.801V63.31c0 2.184 1.561 2.964 4.213 2.964 1.196 0 2.392-.155 3.588-.365v4.367c-1.767.314-3.691.365-5.824.365-5.096 0-7.176-2.498-7.176-6.447V46.508h-5.617v-4.053h5.617V34.08zm36.767 11.804c-7.541 0-10.298 5.252-10.298 10.194 0 4.942 2.757 10.195 10.298 10.195 7.54 0 10.299-5.253 10.299-10.195s-2.759-10.194-10.299-10.194zm0-4.367c10.609 0 15.81 6.71 15.81 14.561 0 7.855-5.201 14.562-15.81 14.562-10.609 0-15.809-6.707-15.809-14.562 0-7.851 5.2-14.562 15.809-14.562zm64.174.938h5.513l-10.766 27.25h-5.667l-6.813-20.803h-.104l-6.812 20.803h-5.514l-10.555-27.25h5.771l7.541 20.8h.105l6.76-20.8h5.72l6.918 20.8h.103l7.8-20.8zm14.355 0h5.203v4.108h.102c2.443-3.798 6.762-5.047 10.661-5.047 6.553 0 11.442 2.81 11.442 9.62v18.57h-5.201v-17.53c0-4.003-2.496-6.292-8.062-6.292-4.733 0-8.942 2.757-8.942 8.115v15.707h-5.203V42.454zm62.253-9.885h5.512v23.77c0 6.71 4.471 9.518 11.284 9.518 6.814 0 11.285-2.808 11.285-9.518V32.57h5.513v23.092c0 9.934-5.513 14.977-16.798 14.977-11.284 0-16.796-5.043-16.796-14.977V32.571zm45.034 37.136h6.45V63.67h-6.45v6.035zm24.498-12.223c.105 6.657 6.343 8.374 11.96 8.374 5.877 0 10.038-2.237 10.038-6.295 0-3.38-2.654-4.782-6.918-5.513l-8.426-1.402c-4.419-.73-11.023-2.496-11.023-9.727 0-6.761 5.356-11.285 14.873-11.285 7.435 0 15.289 2.704 15.811 11.65h-5.513c-.468-2.912-2.133-6.865-11.026-6.865-4.057 0-8.634 1.717-8.634 6.086 0 2.288 1.508 4.107 6.085 4.887l9.101 1.56c2.914.52 11.183 1.924 11.183 9.518 0 9.467-8.478 12.17-15.967 12.17-8.374 0-17.057-2.913-17.057-13.158h5.513zm36.924 12.223h6.447V63.67h-6.447v6.035zm36.611-32.038l-6.968 16.436h14.093l-7.125-16.436zm9.154 21.219h-18.203l-4.732 10.819h-5.929l16.797-37.135h6.294l16.798 37.135h-6.293l-4.732-10.82zm21.477 10.819h6.449V63.67h-6.449v6.035z" fill="#862C25"/><path fill-rule="evenodd" clip-rule="evenodd" d="M195.646 10.532c-.32-2.31-2.118-3.531-4.622-3.531-3.85 0-5.327 3.401-5.327 6.804 0 3.402 1.477 6.806 5.327 6.806 2.794 0 4.398-1.604 4.622-4.237h5.971c-.321 5.904-4.655 9.37-10.464 9.37-6.932 0-11.426-5.295-11.426-11.939 0-6.643 4.494-11.938 11.426-11.938 4.943 0 10.303 3.144 10.464 8.665h-5.971zm12.301-8.185h5.97v8.344h7.863V2.347h5.969v22.918h-5.969v-9.437h-7.863v9.437h-5.97V2.347zm27.065 22.918h5.969V2.347h-5.969v22.918zm28.536-14.733C263.227 8.222 261.429 7 258.925 7c-3.85 0-5.326 3.401-5.326 6.804 0 3.402 1.476 6.806 5.326 6.806 2.794 0 4.398-1.604 4.623-4.237h5.969c-.32 5.904-4.653 9.37-10.463 9.37-6.932 0-11.426-5.295-11.426-11.939 0-6.643 4.494-11.938 11.426-11.938 4.945 0 10.304 3.144 10.463 8.665h-5.969zm18.976 6.195h5.2l-2.535-8.026h-.065l-2.6 8.026zm-.386-14.38h6.066l8.57 22.918h-6.226l-1.413-4.11h-7.991l-1.445 4.11h-6.129l8.568-22.918zm40.738 22.918h-3.851l-.355-2.504c-1.573 2.213-4.266 2.984-6.387 2.984-6.93 0-11.425-5.296-11.425-11.94 0-6.643 4.495-11.938 11.425-11.938 4.752 0 9.823 2.534 10.369 8.278h-5.971c-.192-1.957-2.119-3.144-4.526-3.144-3.85 0-5.325 3.401-5.325 6.804 0 3.402 1.475 6.806 5.325 6.806 2.953 0 4.942-1.382 5.264-3.466h-4.171v-4.431h9.628v12.551zm17.47-4.655c3.85 0 5.327-3.403 5.327-6.805 0-3.403-1.477-6.804-5.327-6.804-3.854 0-5.33 3.401-5.33 6.804 0 3.402 1.476 6.806 5.33 6.806zm0-18.743c7.219 0 11.297 5.295 11.297 11.938 0 6.644-4.078 11.94-11.297 11.94-7.223 0-11.299-5.296-11.299-11.94 0-6.643 4.076-11.938 11.299-11.938z" fill="#373834"/><path fill-rule="evenodd" clip-rule="evenodd" d="M100.791 14.838l-3.707-3.19H74.395v5.7H98.36l2.431-2.51zm33.3-3.189h-15.763l-2.427 2.505 3.707 3.194h15.762l2.429-2.51-3.708-3.19zm21.247 0l-2.431 2.505 3.708 3.194h15.347v-5.7h-16.624z" fill="#229DC9"/><path fill-rule="evenodd" clip-rule="evenodd" d="M157.422 20.755l-9.609-2.41-1.845 9.736-2.717-9.53-9.353 3.272 6.894-7.116-7.509-6.469 9.611 2.414 1.845-9.737 2.717 9.527 9.354-3.268-6.893 7.116 7.505 6.465zm-37.006 0l-9.611-2.41-1.844 9.736-2.718-9.53-9.354 3.272 6.895-7.116-7.51-6.469 9.611 2.414L107.73.915l2.717 9.527 9.354-3.268-6.894 7.116 7.509 6.465z" fill="#862C25"/><path fill-rule="evenodd" clip-rule="evenodd" d="M428.665 14.838l3.705-3.19h22.686v5.7h-23.962l-2.429-2.51zm-33.305-3.189h15.765l2.425 2.505-3.706 3.194h-15.759l-2.435-2.51 3.71-3.19zm-21.247 0l2.431 2.505-3.708 3.194h-15.344v-5.7h16.621z" fill="#229DC9"/><path fill-rule="evenodd" clip-rule="evenodd" d="M372.026 20.755l9.612-2.41 1.846 9.736 2.716-9.53 9.357 3.272-6.899-7.116 7.512-6.469-9.61 2.414-1.844-9.737-2.72 9.527-9.353-3.268 6.893 7.116-7.51 6.465zm37.012 0l9.609-2.41 1.845 9.736 2.718-9.53 9.354 3.272-6.892-7.116 7.507-6.469-9.611 2.414-1.847-9.737-2.714 9.527-9.356-3.268 6.898 7.116-7.511 6.465z" fill="#862C25"/><mask id="a" maskUnits="userSpaceOnUse" x="31" y="73" width="482" height="80"><path fill-rule="evenodd" clip-rule="evenodd" d="M31.081 152.671H512.85v-79.07H31.081m154.303 32.751h172.273V77.085H185.384" fill="#fff"/></mask><g mask="url(#a)" fill-rule="evenodd" clip-rule="evenodd" fill="#373834"><path d="M439.731 117.449c-1.786-.132-3.137.091-4.651.772-.236.335-.475.652-.709.958 3.013.76 7.188 2.054 10.364 3.487l.176.075c1.399-.811 2.766-1.899 4.141-3.313-3.012-.972-7.174-1.808-9.321-1.979zm13.087 1.051c-.418.387-.836.772-1.261 1.154a273.606 273.606 0 0 0 31.338-14.809c.813-.692 1.629-1.384 2.436-2.088-1.05.325-2.092.64-3.143.95a273.23 273.23 0 0 1-30.393 14.413c-.046.036-.094.07-.142.112l1.165.268zm-28.429 3.532l-.27.329c3.025.881 7.168 2.322 10.296 3.862.795.392 1.593.786 2.399 1.172-.597.635-1.192 1.274-1.795 1.91-.37.392-.744.76-1.114 1.111 2.301-.557 5.37-1.955 8.846-5.736-3.783-1.608-9.101-3.171-11.807-3.607-2.926-.465-4.727.072-6.555.959zm30.919-8.75c-.319.328-.641.645-.961.96a268.165 268.165 0 0 0 39.336-20.35c.9-.832 1.791-1.671 2.677-2.514-1.141.48-2.286.946-3.429 1.406a267.063 267.063 0 0 1-36.043 18.922l-.841.838c-.243.247-.487.492-.739.738zm-10.307 12.115c-.286.295-.577.551-.874.826a279.35 279.35 0 0 0 25.994-10.853 320.65 320.65 0 0 0 1.908-1.712c-.855.184-1.705.363-2.552.537a278.288 278.288 0 0 1-21.554 9.199c-.738.509-1.488.93-2.251 1.322-.224.227-.445.455-.671.681zm2.441-16.276a262.378 262.378 0 0 0 29.603-13.958c.789-.708 1.569-1.422 2.343-2.137-1.002.337-2.012.665-3.018.986a260.691 260.691 0 0 1-30.014 14.098c.569-.004 1.136-.016 1.698-.026l-.612 1.037zm7.056.861c.674-.112 1.354-.226 2.032-.345a264.154 264.154 0 0 0 35.253-18.546c.876-.84 1.75-1.688 2.607-2.54-1.115.485-2.232.964-3.35 1.433a263.396 263.396 0 0 1-39.46 20.295c.167-.021.347-.031.507-.045.934-.077 1.817-.156 2.411-.252zm-11.433-2.172a261.648 261.648 0 0 0 18.79-8.025c.646-.613 1.286-1.23 1.922-1.849-.873.16-1.749.312-2.621.462a261.088 261.088 0 0 1-23.333 9.694c.31.051.617.102.928.15a22.296 22.296 0 0 1 4.314-.432zm-14.978 3.091c.847.169 1.7.332 2.553.493-.323.758-.654 1.515-.985 2.272-.749 1.7-1.8 3.452-2.714 4.851 1.393-.237 2.846-.223 4.488.031 1.763-2.099 4.005-5.551 5.299-8.542-5.057-.749-8.129-.185-10.178.627.5.078 1.005.163 1.537.268zm21.632 6.003c1.361-1.319 2.574-2.974 3.823-4.736a.89.89 0 0 0 .033-.042 49.45 49.45 0 0 1-1.8-.084c-1.546-.094-3.284-.213-4.936-.136a36.748 36.748 0 0 1-2.335 3.704c1.885.382 3.709.831 5.215 1.294zm-12.521-1.94a13.92 13.92 0 0 1 2.824-.058c.437.031.958.093 1.518.177 1.317-1.702 2.524-3.612 3.304-5.18-1.987-.11-3.705-.045-5.248.226a2.157 2.157 0 0 0-.066.164c-.658 1.67-1.545 3.353-2.332 4.671zm-53.517 25.739a13.79 13.79 0 0 0 1.468-.249c.011-.003.023-.003.031-.003a16.722 16.722 0 0 0 3.089-1.02c.031-.014.07-.036.103-.05 1.391-.619 2.903-1.479 4.551-2.699-3.548-2.247-8.673-4.727-11.337-5.635-1.944-.654-3.526-.813-5.272-.518-.492.47-.975.911-1.456 1.33 3.118 1.585 6.236 3.407 8.448 4.993a176.55 176.55 0 0 0 2.223 1.582c-.531.387-1.058.771-1.593 1.156-.188.133-.38.269-.566.404-.406.284-.801.556-1.205.807.412 0 .862-.03 1.319-.078a2.74 2.74 0 0 0 .197-.02zm15.361-12.955c2.914 1.156 6.767 2.896 9.678 4.651.766.466 1.532.926 2.306 1.384-.656.586-1.317 1.165-1.985 1.741-.305.269-.614.519-.922.766 2.464-.111 6.23-.868 10.921-5.12-3.676-1.919-8.904-3.931-11.59-4.595-3.634-.888-5.584-.093-8.408 1.173z"/><path d="M421.218 129.323c.781.428 1.563.858 2.35 1.281-.625.611-1.253 1.219-1.887 1.824a28.41 28.41 0 0 1-1.514 1.341c.446.057.829.076 1.163.048 2.436-.167 6.299-.944 11.006-5.653-3.737-1.75-9.027-3.508-11.728-4.048-3.502-.688-5.408.103-7.984 1.411 2.585.955 5.935 2.332 8.594 3.796zm-73.435 3.827h.003l-.365.082c.004.072.007.21.007.21.265 3.265 4.162 7.106 7.734 8.586.005 0 .011.009.011.009.274.11.54.208.797.293.403.138.8.249 1.165.307.318.046.656.088 1.018.12a15.28 15.28 0 0 0 2.446.003c.003-.005.009 0 .013 0 .323-.029.674-.087 1.027-.141.147-.017.278-.029.435-.057-.002.002-.007.002-.007.002 1.308-.236 2.793-.7 4.43-1.441h.006c.446-.2.881-.41 1.343-.649a24.188 24.188 0 0 0 1.69-.95c-1.677-1.246-3.759-2.567-5.736-3.734-.004-.01-.011-.015-.024-.017-2.032-1.193-3.956-2.212-5.29-2.776-3.73-1.576-5.891-1.007-9.237-.188-.467.112-.954.231-1.466.341zm40.11-3.915c-.389.412-.778.793-1.171 1.169 3.157 1.455 6.324 3.151 8.574 4.641.751.501 1.506.998 2.263 1.49-.689.551-1.38 1.099-2.075 1.648-.264.201-.519.392-.776.584.034.004.073.004.106.006 2.477.057 6.438-.371 11.626-4.63-3.615-2.077-8.798-4.32-11.472-5.101-2.993-.864-4.913-.533-7.075.193z"/><path d="M374.741 141.397c.567-.178 1.16-.383 1.794-.645.059-.024.117-.057.176-.081a21.697 21.697 0 0 0 1.652-.796c.161-.08.309-.17.473-.26a23.73 23.73 0 0 0 2.013-1.227 45.088 45.088 0 0 0-2.146-1.386c-.007-.007-.014-.009-.02-.011 0 0-.002 0-.002.002-3.19-1.967-6.883-3.885-9.024-4.701-1.127-.426-2.152-.674-3.154-.769a8.75 8.75 0 0 0-1.229-.047c-.51.451-1.026.881-1.533 1.285.93.516 1.845 1.053 2.75 1.599a96.284 96.284 0 0 1 2.417 1.516c.329.212.652.428.956.634a49.888 49.888 0 0 1 2.204 1.57c.72.561 1.445 1.117 2.175 1.667-.74.496-1.482.987-2.227 1.476-.466.302-.924.582-1.376.844 1.127-.025 2.472-.197 4.011-.646.027-.009.058-.021.09-.024zm39.932-23.869c-6.181-1.432-9.565-.643-11.696.235.383.102.754.203 1.148.317.85.245 1.701.483 2.551.717a166.58 166.58 0 0 1-1.205 2.171 27.048 27.048 0 0 1-1.768 2.717c1.426-.109 2.878.029 4.495.424.417.102.904.24 1.421.393 1.976-2.171 3.883-4.82 5.054-6.974zm-24.938 5.18c-4.521-1.458-7.587-1.59-9.799-1.282-.068.007-.134.013-.202.027-.434.069-.844.144-1.214.232.45.153.901.316 1.374.498.232.083.458.171.692.259.611.229 1.217.458 1.834.681-.468.686-.941 1.371-1.416 2.055-.554.796-1.248 1.668-2.156 2.692 1.193.095 2.422.36 3.727.802.413.136.9.32 1.407.517 2.194-1.98 4.369-4.447 5.753-6.481zm-25.432 5.868c.21-.192.397-.381.607-.579.292-.294.586-.585.855-.874.159-.159.31-.312.451-.473.417-.45.823-.893 1.163-1.315a30.56 30.56 0 0 0-1.861-.69c-5.268-1.836-8.456-1.509-10.51-1.011-2.326.557-4.998 2.936-6.47 5.542a9.729 9.729 0 0 0-.605 1.237c.12-.028.232-.057.347-.083.558-.127 1.109-.262 1.654-.383.021-.01.037-.01.054-.012a24.214 24.214 0 0 1 1.67-.307c2.321-.351 4.79-.278 8.002 1.076.413.172.887.392 1.387.633a33.23 33.23 0 0 0 2.119-1.737 40.38 40.38 0 0 0 1.137-1.024zm12.341-2.412c0 .003.007 0 .01-.005a32.533 32.533 0 0 0 1.542-1.865 34.92 34.92 0 0 0-2.397-.775c-.175-.057-.352-.105-.523-.156a28.856 28.856 0 0 0-2.06-.483c-.01 0-.027-.003-.042 0-.641-.124-1.238-.2-1.802-.252a5.629 5.629 0 0 0-.316-.031c-1.34-.104-2.47-.05-3.4.09.489.183.993.382 1.511.6.833.35 1.67.697 2.508 1.04-.281.372-.56.748-.838 1.122-.222.293-.439.584-.659.874-.627.826-1.432 1.745-2.453 2.795.435.071.87.181 1.311.298a15.85 15.85 0 0 1 1.706.54c.413.155.891.358 1.393.579a40.165 40.165 0 0 0 4.509-4.371zm-31.625 6.483l.057-.906a284.723 284.723 0 0 1-14.984-.437 289.85 289.85 0 0 1-12.522-.959c-35.825-3.524-72.546-13.827-107.872-31.942-.348.998-.694 1.998-1.038 3.001 35.14 17.952 71.644 28.265 107.32 31.927 4.164.429 8.324.769 12.469 1.018a293.035 293.035 0 0 0 15.918.519l.979.002c-.142-.476-.278-.956-.316-1.423a5.488 5.488 0 0 1-.011-.8zm57.628-12.315c-6.519-1.806-10.005-.983-12.155-.143-.029.009-.064.017-.094.032.307.095.618.194.932.306.844.282 1.689.562 2.538.836-.438.706-.877 1.41-1.316 2.113a30.613 30.613 0 0 1-1.848 2.555c1.635-.133 3.293.061 5.13.589.413.12.898.278 1.407.456 2.084-2.08 4.127-4.648 5.406-6.744z"/><path d="M418.598 115.822c-.361.744-.727 1.481-1.099 2.222-.544 1.09-1.278 2.31-2.183 3.629 1.854-.464 3.716-.477 5.878-.059 1.849-2.035 4.239-5.401 5.645-8.339-6.517-1.222-9.851-.097-11.877.928a5.33 5.33 0 0 0-.884.586c.639.121 1.288.256 1.969.426.851.205 1.702.41 2.551.607zm-314.466 1.627c1.787-.132 3.138.091 4.651.772.236.335.475.652.708.958-3.016.76-7.185 2.054-10.363 3.487l-.176.075c-1.4-.811-2.769-1.899-4.142-3.313 3.014-.972 7.173-1.808 9.322-1.979zM91.045 118.5c.415.387.837.772 1.26 1.154a273.663 273.663 0 0 1-31.337-14.809c-.814-.692-1.628-1.384-2.435-2.088 1.047.325 2.092.64 3.142.95a273.046 273.046 0 0 0 30.39 14.413c.049.036.096.07.142.112l-1.162.268zm28.43 3.532l.269.329c-3.023.881-7.169 2.322-10.296 3.862-.795.392-1.595.786-2.4 1.172.594.635 1.192 1.274 1.792 1.91.372.392.747.76 1.117 1.111-2.297-.557-5.37-1.955-8.846-5.736 3.784-1.608 9.101-3.171 11.809-3.607 2.923-.465 4.725.072 6.555.959zm-30.923-8.75c.325.328.646.645.966.96a268.14 268.14 0 0 1-39.342-20.35 276.367 276.367 0 0 1-2.672-2.514c1.14.48 2.284.946 3.43 1.406a266.922 266.922 0 0 0 36.041 18.922c.279.278.558.559.84.838.245.247.49.492.737.738zm10.31 12.115c.288.295.576.551.872.826A279.593 279.593 0 0 1 73.74 115.37c-.64-.572-1.272-1.138-1.907-1.712.853.184 1.703.363 2.554.537a277.026 277.026 0 0 0 21.553 9.199c.74.509 1.488.93 2.248 1.322.225.227.446.455.673.681zm-2.44-16.276a262.563 262.563 0 0 1-29.606-13.958 262.855 262.855 0 0 1-2.342-2.137c1.002.337 2.01.665 3.017.986a260.936 260.936 0 0 0 30.014 14.098c-.567-.004-1.133-.016-1.7-.026.207.344.41.691.617 1.037zm-7.055.861a196.07 196.07 0 0 1-2.034-.345 264.335 264.335 0 0 1-35.256-18.546c-.876-.84-1.744-1.688-2.605-2.54 1.115.485 2.231.964 3.351 1.433a263.479 263.479 0 0 0 39.458 20.295c-.166-.021-.345-.031-.505-.045-.932-.077-1.814-.156-2.409-.252zm11.432-2.172a260.47 260.47 0 0 1-18.79-8.025 196.54 196.54 0 0 1-1.923-1.849c.873.16 1.75.312 2.624.462a260.424 260.424 0 0 0 23.328 9.694c-.309.051-.617.102-.926.15a22.26 22.26 0 0 0-4.313-.432zm14.979 3.091c-.85.169-1.703.332-2.555.493.323.758.653 1.515.986 2.272.745 1.7 1.797 3.452 2.714 4.851-1.392-.237-2.85-.223-4.489.031-1.763-2.099-4.005-5.551-5.299-8.542 5.057-.749 8.128-.185 10.176.627-.5.078-1.005.163-1.533.268zm-21.635 6.003c-1.36-1.319-2.572-2.974-3.823-4.736a.51.51 0 0 1-.03-.042 49.56 49.56 0 0 0 1.798-.084c1.545-.094 3.283-.213 4.935-.136a35.975 35.975 0 0 0 2.338 3.704c-1.888.382-3.712.831-5.218 1.294zm12.52-1.94a13.906 13.906 0 0 0-2.823-.058c-.437.031-.956.093-1.517.177-1.317-1.702-2.526-3.612-3.305-5.18 1.986-.11 3.706-.045 5.249.226.022.054.045.107.066.164.659 1.67 1.545 3.353 2.33 4.671zm53.521 25.739a13.713 13.713 0 0 1-1.471-.249c-.01-.003-.021-.003-.029-.003a16.689 16.689 0 0 1-3.091-1.02c-.028-.014-.069-.036-.103-.05-1.39-.619-2.902-1.479-4.549-2.699 3.545-2.247 8.669-4.727 11.336-5.635 1.944-.654 3.527-.813 5.272-.518.489.47.974.911 1.454 1.33-3.115 1.585-6.236 3.407-8.448 4.993-.736.531-1.477 1.059-2.22 1.582.528.387 1.058.771 1.592 1.156l.569.404c.401.284.797.556 1.201.807-.415 0-.864-.03-1.317-.078a2.5 2.5 0 0 1-.196-.02zm-15.362-12.955c-2.919 1.156-6.767 2.896-9.677 4.651-.767.466-1.536.926-2.31 1.384.66.586 1.321 1.165 1.985 1.741.307.269.612.519.922.766-2.462-.111-6.23-.868-10.92-5.12 3.677-1.919 8.907-3.931 11.59-4.595 3.634-.888 5.581-.093 8.41 1.173z"/><path d="M122.646 129.323c-.781.428-1.566.858-2.352 1.281.628.611 1.254 1.219 1.887 1.824.505.483 1.011.923 1.515 1.341a5.615 5.615 0 0 1-1.164.048c-2.436-.167-6.297-.944-11.005-5.653 3.736-1.75 9.027-3.508 11.729-4.048 3.502-.688 5.406.103 7.983 1.411-2.584.955-5.935 2.332-8.593 3.796zm73.435 3.827h-.004l.364.082c-.002.072-.005.21-.008.21-.262 3.265-4.165 7.106-7.732 8.586-.005 0-.013.009-.013.009-.271.11-.538.208-.797.293a7.09 7.09 0 0 1-1.164.307 18.67 18.67 0 0 1-1.014.12 15.31 15.31 0 0 1-2.448.003c-.006-.005-.011 0-.016 0-.321-.029-.67-.087-1.024-.141-.146-.017-.282-.029-.437-.057.002.002.004.002.006.002-1.307-.236-2.791-.7-4.431-1.441h-.003c-.444-.2-.884-.41-1.341-.649a23.778 23.778 0 0 1-1.693-.95c1.677-1.246 3.758-2.567 5.735-3.734.005-.01.011-.015.022-.017 2.035-1.193 3.962-2.212 5.293-2.776 3.729-1.576 5.89-1.007 9.238-.188.464.112.956.231 1.467.341zm-40.11-3.915c.39.412.778.793 1.17 1.169-3.157 1.455-6.324 3.151-8.573 4.641-.752.501-1.505.998-2.263 1.49a395.08 395.08 0 0 0 2.074 1.648c.261.201.518.392.776.584-.035.004-.074.004-.107.006-2.477.057-6.438-.371-11.627-4.63 3.617-2.077 8.799-4.32 11.475-5.101 2.991-.864 4.914-.533 7.075.193z"/><path d="M169.122 141.397a21.203 21.203 0 0 1-1.793-.645c-.059-.024-.119-.057-.176-.081a20.825 20.825 0 0 1-1.652-.796c-.163-.08-.314-.17-.474-.26a23.584 23.584 0 0 1-2.014-1.227 45.647 45.647 0 0 1 2.166-1.397l.003.002c3.191-1.967 6.882-3.885 9.024-4.701 1.128-.426 2.154-.674 3.153-.769a8.748 8.748 0 0 1 1.228-.047c.512.451 1.029.881 1.536 1.285a81.253 81.253 0 0 0-2.75 1.599 98.416 98.416 0 0 0-2.42 1.516 49.6 49.6 0 0 0-.955.634c-.234.158-.456.308-.668.46-.54.377-1.071.757-1.534 1.11-.719.561-1.446 1.117-2.175 1.667.739.496 1.482.987 2.226 1.476.467.302.924.582 1.376.844-1.126-.025-2.473-.197-4.009-.646-.027-.009-.061-.021-.092-.024zm-39.934-23.869c6.182-1.432 9.567-.643 11.696.235-.382.102-.754.203-1.147.317-.848.245-1.698.483-2.551.717.397.726.798 1.447 1.204 2.171.462.82 1.05 1.731 1.767 2.717-1.422-.109-2.874.029-4.494.424-.415.102-.904.24-1.42.393-1.975-2.171-3.88-4.82-5.055-6.974zm24.941 5.18c4.521-1.458 7.584-1.59 9.799-1.282.066.007.134.013.2.027.434.069.843.144 1.215.232a33.09 33.09 0 0 0-1.372.498c-.232.083-.461.171-.694.259-.609.229-1.219.458-1.833.681.469.686.939 1.371 1.413 2.055.555.796 1.249 1.668 2.158 2.692-1.194.095-2.421.36-3.726.802-.415.136-.9.32-1.409.517-2.193-1.98-4.367-4.447-5.751-6.481zm25.432 5.868c-.209-.192-.399-.381-.608-.579a40.909 40.909 0 0 1-.857-.874 8.513 8.513 0 0 1-.448-.473c-.42-.45-.822-.893-1.164-1.315a30.316 30.316 0 0 1 1.861-.69c5.266-1.836 8.457-1.509 10.511-1.011 2.323.557 4.998 2.936 6.47 5.542.229.409.441.819.602 1.237-.117-.028-.23-.057-.346-.083-.558-.127-1.105-.262-1.655-.383-.019-.01-.037-.01-.055-.012a23.94 23.94 0 0 0-1.668-.307c-2.322-.351-4.789-.278-8.003 1.076-.41.172-.885.392-1.386.633a33.479 33.479 0 0 1-2.117-1.737c-.39-.337-.769-.679-1.137-1.024zm-12.342-2.412c0 .003-.007 0-.012-.005a32.461 32.461 0 0 1-1.54-1.865 35.241 35.241 0 0 1 2.395-.775c.177-.057.356-.105.524-.156a29.371 29.371 0 0 1 2.06-.483c.013 0 .026-.003.041 0 .645-.124 1.241-.2 1.805-.252.104-.014.209-.023.315-.031 1.339-.104 2.468-.05 3.4.09-.491.183-.992.382-1.511.6-.832.35-1.669.697-2.507 1.04.278.372.559.748.835 1.122.223.293.441.584.663.874.626.826 1.43 1.745 2.45 2.795-.434.071-.87.181-1.308.298-.561.142-1.13.321-1.707.54-.415.155-.891.358-1.394.579a39.996 39.996 0 0 1-4.509-4.371zm31.623 6.483c-.018-.302-.036-.604-.056-.906a284.861 284.861 0 0 0 14.985-.437c4.157-.228 8.336-.547 12.523-.959 35.826-3.524 72.543-13.827 107.87-31.942.351.998.694 1.998 1.04 3.001-35.14 17.952-71.647 28.265-107.32 31.927-4.166.429-8.325.769-12.471 1.018a292.955 292.955 0 0 1-15.921.519l-.976.002c.142-.476.278-.956.317-1.423.022-.271.026-.534.009-.8zm-57.626-12.315c6.52-1.806 10.005-.983 12.156-.143.027.009.064.017.091.032-.307.095-.615.194-.93.306-.843.282-1.689.562-2.537.836.436.706.874 1.41 1.314 2.113a29.569 29.569 0 0 0 1.85 2.555c-1.637-.133-3.296.061-5.129.589-.415.12-.902.278-1.411.456-2.085-2.08-4.127-4.648-5.404-6.744z"/><path d="M125.262 115.822c.363.744.73 1.481 1.1 2.222.545 1.09 1.282 2.31 2.185 3.629-1.853-.464-3.716-.477-5.876-.059-1.85-2.035-4.24-5.401-5.646-8.339 6.514-1.222 9.849-.097 11.876.928.274.142.563.33.884.586-.639.121-1.289.256-1.968.426-.852.205-1.704.41-2.555.607z"/></g></svg>