<svg width="544" height="153" viewBox="0 0 544 153" fill="none" xmlns="http://www.w3.org/2000/svg">
<path fill-rule="evenodd" clip-rule="evenodd" d="M115.69 75.3033H118.178V91.9135H128.084V94.01H115.69V75.3033Z" fill="#862C25"/>
<path fill-rule="evenodd" clip-rule="evenodd" d="M140.138 92.3589C144.697 92.3589 146.61 88.4293 146.61 84.6572C146.61 80.8829 144.697 76.9533 140.138 76.9533C135.579 76.9533 133.666 80.8829 133.666 84.6572C133.666 88.4293 135.579 92.3589 140.138 92.3589ZM140.138 74.8568C146.086 74.8568 149.099 79.5755 149.099 84.6572C149.099 89.741 146.086 94.4554 140.138 94.4554C134.191 94.4554 131.177 89.741 131.177 84.6572C131.177 79.5755 134.191 74.8568 140.138 74.8568Z" fill="#862C25"/>
<path fill-rule="evenodd" clip-rule="evenodd" d="M167.26 80.9364C166.737 78.2896 164.615 76.9533 162.02 76.9533C157.566 76.9533 155.679 80.6227 155.679 84.5255C155.679 88.7966 157.566 92.3589 162.047 92.3589C165.32 92.3589 167.209 90.0547 167.445 86.9635H169.933C169.462 91.6255 166.553 94.4554 161.836 94.4554C156.02 94.4554 153.19 90.1596 153.19 84.7086C153.19 79.2864 156.282 74.8568 162.047 74.8568C165.951 74.8568 169.173 76.9533 169.75 80.9364H167.26Z" fill="#862C25"/>
<path fill-rule="evenodd" clip-rule="evenodd" d="M178.216 86.2825H184.556L181.438 77.5572H181.387L178.216 86.2825ZM180.076 75.3033H182.828L190.137 94.01H187.386L185.342 88.379H177.429L175.335 94.01H172.766L180.076 75.3033Z" fill="#862C25"/>
<path fill-rule="evenodd" clip-rule="evenodd" d="M193.94 75.3033H196.428V91.9135H206.333V94.01H193.94V75.3033Z" fill="#862C25"/>
<path fill-rule="evenodd" clip-rule="evenodd" d="M232.88 80.9364C232.356 78.2896 230.233 76.9533 227.641 76.9533C223.185 76.9533 221.299 80.6227 221.299 84.5255C221.299 88.7966 223.185 92.3589 227.665 92.3589C230.941 92.3589 232.827 90.0547 233.063 86.9635H235.552C235.081 91.6255 232.172 94.4554 227.457 94.4554C221.639 94.4554 218.808 90.1596 218.808 84.7086C218.808 79.2864 221.902 74.8568 227.665 74.8568C231.569 74.8568 234.792 76.9533 235.368 80.9364H232.88Z" fill="#862C25"/>
<path fill-rule="evenodd" clip-rule="evenodd" d="M248.29 83.9226C250.621 83.9226 252.613 83.3209 252.613 80.5948C252.613 78.7617 251.615 77.3987 249.283 77.3987H243.101V83.9226H248.29ZM240.612 75.3033H249.415C252.927 75.3033 255.102 77.2156 255.102 80.2019C255.102 82.4568 254.106 84.3167 251.852 84.9462V84.9966C254.027 85.4184 254.472 87.0138 254.656 88.8501C254.813 90.6843 254.709 92.7272 255.755 94.01H252.98C252.272 93.2497 252.665 91.2325 252.297 89.3983C252.036 87.5652 251.591 86.0191 249.18 86.0191H243.101V94.01H240.612V75.3033Z" fill="#862C25"/>
<path fill-rule="evenodd" clip-rule="evenodd" d="M264.8 86.2825H271.139L268.021 77.5572H267.97L264.8 86.2825ZM266.659 75.3033H269.41L276.721 94.01H273.969L271.926 88.379H264.012L261.917 94.01H259.349L266.659 75.3033Z" fill="#862C25"/>
<path fill-rule="evenodd" clip-rule="evenodd" d="M280.523 75.3033H292.812V77.3987H283.011V83.3455H291.607V85.4431H283.011V94.01H280.523V75.3033Z" fill="#862C25"/>
<path fill-rule="evenodd" clip-rule="evenodd" d="M302.824 77.3987H296.588V75.3033H311.547V77.3987H305.313V94.01H302.824V77.3987Z" fill="#862C25"/>
<path fill-rule="evenodd" clip-rule="evenodd" d="M324.837 75.3033H327.326V91.9135H337.23V94.01H324.837V75.3033Z" fill="#862C25"/>
<path fill-rule="evenodd" clip-rule="evenodd" d="M344.595 86.2825H350.936L347.818 77.5572H347.766L344.595 86.2825ZM346.456 75.3033H349.207L356.518 94.01H353.765L351.722 88.379H343.811L341.714 94.01H339.145L346.456 75.3033Z" fill="#862C25"/>
<path fill-rule="evenodd" clip-rule="evenodd" d="M374.312 91.6801C372.871 93.6459 370.512 94.4554 368.31 94.4554C362.731 94.4554 359.403 89.8962 359.403 85.0255C359.403 79.5755 362.39 74.8568 368.31 74.8568C372.399 74.8568 375.648 76.6931 376.355 81.066H373.867C373.369 78.2382 371.087 76.9533 368.31 76.9533C363.778 76.9533 361.892 80.8829 361.892 84.8927C361.892 88.7966 364.147 92.3589 368.31 92.3589C372.164 92.3589 374.468 89.6618 374.312 86.2536H368.337V84.1604H376.537V94.01H374.964L374.312 91.6801Z" fill="#862C25"/>
<path fill-rule="evenodd" clip-rule="evenodd" d="M382.176 75.3033H395.091V77.3987H384.664V83.3455H394.384V85.4431H384.664V91.9135H395.17V94.01H382.176V75.3033Z" fill="#862C25"/>
<path fill-rule="evenodd" clip-rule="evenodd" d="M407.831 83.9226C410.162 83.9226 412.154 83.3209 412.154 80.5948C412.154 78.7617 411.156 77.3987 408.826 77.3987H402.643V83.9226H407.831ZM400.154 75.3033H408.956C412.468 75.3033 414.642 77.2156 414.642 80.2019C414.642 82.4568 413.647 84.3167 411.393 84.9462V84.9966C413.569 85.4184 414.013 87.0138 414.197 88.8501C414.353 90.6843 414.249 92.7272 415.299 94.01H412.52C411.812 93.2497 412.206 91.2325 411.84 89.3983C411.577 87.5652 411.131 86.0191 408.72 86.0191H402.643V94.01H400.154V75.3033Z" fill="#862C25"/>
<path fill-rule="evenodd" clip-rule="evenodd" d="M430.892 80.7779C430.602 78.1054 428.821 76.9533 426.253 76.9533C424.158 76.9533 422.06 77.7124 422.06 80.1516C422.06 82.4568 425.049 82.7963 428.059 83.4772C431.048 84.1604 434.034 85.2054 434.034 88.8758C434.034 92.8568 430.13 94.4554 426.725 94.4554C422.532 94.4554 418.994 92.4135 418.994 87.8522H421.354C421.354 90.998 423.974 92.3589 426.802 92.3589C429.055 92.3589 431.546 91.6533 431.546 88.9551C431.546 86.3864 428.56 85.9399 425.571 85.2846C422.585 84.6293 419.571 83.7642 419.571 80.3347C419.571 76.5346 422.951 74.8568 426.357 74.8568C430.183 74.8568 433.091 76.6642 433.25 80.7779H430.892Z" fill="#862C25"/>
<path fill-rule="evenodd" clip-rule="evenodd" d="M0 32.5706H5.5121V64.9194H28.082V69.7056H0V32.5706Z" fill="#862C25"/>
<path fill-rule="evenodd" clip-rule="evenodd" d="M58.0377 55.4553C57.2582 56.3386 55.8545 56.7037 52.941 57.0667L47.0649 57.7969C43.0079 58.3152 40.8761 59.4073 40.8761 62.2694C40.8761 64.8156 43.4244 66.5833 47.2212 66.5833C53.0973 66.5833 58.0377 63.4643 58.0377 58.9405V55.4553ZM36.8715 50.9818C37.5482 44.1698 42.2284 41.5165 50.3927 41.5165C55.9583 41.5165 62.9266 42.9203 62.9266 49.2665V63.9333C62.9266 65.5426 63.6536 66.2728 65.2672 66.2728C65.839 66.2728 66.5671 66.1679 67.0875 66.064V69.7056C65.839 69.9122 64.2789 70.0161 63.0305 70.0161C60.4297 70.0161 58.7144 69.2869 58.3503 66.2182C56.2699 69.0267 51.1732 70.6403 46.7533 70.6403C37.7046 70.6403 35.6755 65.9591 35.6755 62.4246C35.6755 57.4308 38.6404 54.8835 47.3764 53.9445L53.3051 53.3202C56.2174 53.0097 58.0377 52.4904 58.0377 50.047C58.0377 46.3027 54.3983 45.5735 50.185 45.5735C45.7125 45.5735 41.9157 46.7685 41.7605 50.9818H36.8715Z" fill="#862C25"/>
<path fill-rule="evenodd" clip-rule="evenodd" d="M90.1787 46.1978C83.8325 46.1978 80.1406 50.3565 80.1406 55.9735C80.1406 61.5905 83.8325 65.5972 90.1787 65.5972C96.4703 65.5972 100.215 61.5905 100.215 55.9735C100.215 50.3565 96.4703 46.1978 90.1787 46.1978ZM100.215 42.4545H105.415V67.4164C105.415 77.1921 100.735 81.1463 89.5534 81.1463C83.6762 81.1463 76.9156 80.2115 75.8234 72.6704H81.025C81.9609 76.2038 85.1334 77.0893 90.0737 77.0893C97.4575 77.0893 100.215 73.345 100.215 68.8725V64.9194H100.111C97.1973 69.1317 93.09 69.9658 89.5534 69.9658C82.2735 69.9658 74.6274 66.0137 74.6274 55.9232C74.6274 45.7823 82.2735 41.8303 89.5009 41.8303C93.9744 41.8303 98.0828 43.3357 100.111 46.4579H100.215V42.4545Z" fill="#862C25"/>
<path fill-rule="evenodd" clip-rule="evenodd" d="M139.48 53.5815C138.7 48.6412 134.851 45.884 129.963 45.884C125.178 45.884 120.862 48.6926 120.081 53.5815H139.48ZM119.926 57.6385C120.342 63.2555 125.334 66.2728 129.963 66.2728C132.927 66.2728 136.984 65.2835 138.751 61.4353H144.263C141.664 67.9881 135.579 70.6403 130.223 70.6403C119.613 70.6403 114.413 63.9333 114.413 56.0784C114.413 48.2268 119.613 41.5165 130.223 41.5165C137.399 41.5165 144.993 45.6785 144.993 56.9628V57.6385H119.926Z" fill="#862C25"/>
<path fill-rule="evenodd" clip-rule="evenodd" d="M155.499 42.4545H160.699V47.4473H160.803C163.246 43.1301 166.732 41.5165 170.163 41.5165C171.463 41.5165 172.14 41.5701 173.127 41.8303V47.4473C171.828 47.1336 170.84 46.9248 169.435 46.9248C164.288 46.9248 160.699 49.9421 160.699 55.8686V69.7056H155.499V42.4545Z" fill="#862C25"/>
<path fill-rule="evenodd" clip-rule="evenodd" d="M186.234 34.0803H191.433V42.4545H199.234V46.5082H191.433V63.309C191.433 65.4933 192.994 66.2728 195.646 66.2728C196.842 66.2728 198.038 66.1175 199.234 65.9077V70.2752C197.467 70.5889 195.543 70.6403 193.41 70.6403C188.314 70.6403 186.234 68.1423 186.234 64.1934V46.5082H180.617V42.4545H186.234V34.0803Z" fill="#862C25"/>
<path fill-rule="evenodd" clip-rule="evenodd" d="M223.001 45.884C215.46 45.884 212.703 51.136 212.703 56.0784C212.703 61.0198 215.46 66.2728 223.001 66.2728C230.541 66.2728 233.3 61.0198 233.3 56.0784C233.3 51.136 230.541 45.884 223.001 45.884ZM223.001 41.5165C233.61 41.5165 238.811 48.2268 238.811 56.0784C238.811 63.9333 233.61 70.6403 223.001 70.6403C212.392 70.6403 207.192 63.9333 207.192 56.0784C207.192 48.2268 212.392 41.5165 223.001 41.5165Z" fill="#862C25"/>
<path fill-rule="evenodd" clip-rule="evenodd" d="M287.175 42.4545H292.688L281.922 69.7055H276.255L269.442 48.9024H269.338L262.526 69.7055H257.012L246.457 42.4545H252.228L259.769 63.2555H259.874L266.634 42.4545H272.354L279.272 63.2555H279.375L287.175 42.4545Z" fill="#862C25"/>
<path fill-rule="evenodd" clip-rule="evenodd" d="M301.53 42.4545H306.733V46.5629H306.835C309.278 42.765 313.597 41.5165 317.496 41.5165C324.049 41.5165 328.938 44.3251 328.938 51.136V69.7056H323.737V52.1767C323.737 48.1732 321.241 45.884 315.675 45.884C310.942 45.884 306.733 48.6412 306.733 53.9991V69.7056H301.53V42.4545Z" fill="#862C25"/>
<path fill-rule="evenodd" clip-rule="evenodd" d="M363.783 32.5706H369.295V56.3386C369.295 63.0489 373.766 65.8574 380.579 65.8574C387.393 65.8574 391.864 63.0489 391.864 56.3386V32.5706H397.377V55.663C397.377 65.5972 391.864 70.6403 380.579 70.6403C369.295 70.6403 363.783 65.5972 363.783 55.663V32.5706Z" fill="#862C25"/>
<path fill-rule="evenodd" clip-rule="evenodd" d="M408.817 69.7055H415.267V63.6699H408.817V69.7055Z" fill="#862C25"/>
<path fill-rule="evenodd" clip-rule="evenodd" d="M433.315 57.4832C433.42 64.1399 439.658 65.8573 445.275 65.8573C451.152 65.8573 455.313 63.6195 455.313 59.5615C455.313 56.1823 452.659 54.7796 448.395 54.0494L439.969 52.6467C435.55 51.9165 428.946 50.1508 428.946 42.9202C428.946 36.1586 434.302 31.6348 443.819 31.6348C451.254 31.6348 459.108 34.3394 459.63 43.2853H454.117C453.649 40.373 451.984 36.4198 443.091 36.4198C439.034 36.4198 434.457 38.1373 434.457 42.5059C434.457 44.794 435.965 46.6132 440.542 47.3927L449.643 48.9527C452.557 49.4731 460.826 50.8768 460.826 58.4715C460.826 67.9378 452.348 70.6403 444.859 70.6403C436.485 70.6403 427.802 67.7279 427.802 57.4832H433.315Z" fill="#862C25"/>
<path fill-rule="evenodd" clip-rule="evenodd" d="M470.239 69.7055H476.686V63.6699H470.239V69.7055Z" fill="#862C25"/>
<path fill-rule="evenodd" clip-rule="evenodd" d="M506.85 37.6683L499.882 54.104H513.975L506.85 37.6683ZM516.004 58.8869H497.801L493.069 69.7056H487.14L503.937 32.5706H510.231L527.029 69.7056H520.736L516.004 58.8869Z" fill="#862C25"/>
<path fill-rule="evenodd" clip-rule="evenodd" d="M537.481 69.7055H543.93V63.6699H537.481V69.7055Z" fill="#862C25"/>
<path fill-rule="evenodd" clip-rule="evenodd" d="M195.646 10.5318C195.326 8.22119 193.528 7.00056 191.024 7.00056C187.174 7.00056 185.697 10.4023 185.697 13.805C185.697 17.2067 187.174 20.6106 191.024 20.6106C193.818 20.6106 195.422 19.0066 195.646 16.3737H201.617C201.296 22.2777 196.962 25.7447 191.153 25.7447C184.221 25.7447 179.727 20.4489 179.727 13.805C179.727 7.16224 184.221 1.86749 191.153 1.86749C196.096 1.86749 201.456 5.01115 201.617 10.5318H195.646Z" fill="#373834"/>
<path fill-rule="evenodd" clip-rule="evenodd" d="M207.947 2.34717H213.917V10.6913H221.78V2.34717H227.749V25.265H221.78V15.8276H213.917V25.265H207.947V2.34717Z" fill="#373834"/>
<path fill-rule="evenodd" clip-rule="evenodd" d="M235.012 25.265H240.981V2.34717H235.012V25.265Z" fill="#373834"/>
<path fill-rule="evenodd" clip-rule="evenodd" d="M263.548 10.5318C263.227 8.22119 261.429 7.00056 258.925 7.00056C255.075 7.00056 253.599 10.4023 253.599 13.805C253.599 17.2067 255.075 20.6106 258.925 20.6106C261.719 20.6106 263.323 19.0066 263.548 16.3737H269.517C269.197 22.2777 264.864 25.7447 259.054 25.7447C252.122 25.7447 247.628 20.4489 247.628 13.805C247.628 7.16224 252.122 1.86749 259.054 1.86749C263.999 1.86749 269.358 5.01115 269.517 10.5318H263.548Z" fill="#373834"/>
<path fill-rule="evenodd" clip-rule="evenodd" d="M282.524 16.727H287.724L285.189 8.70086H285.124L282.524 16.727ZM282.138 2.34717H288.204L296.774 25.265H290.548L289.135 21.1556H281.144L279.699 25.265H273.57L282.138 2.34717Z" fill="#373834"/>
<path fill-rule="evenodd" clip-rule="evenodd" d="M322.876 25.265H319.025L318.67 22.7606C317.097 24.9738 314.404 25.7447 312.283 25.7447C305.353 25.7447 300.858 20.4489 300.858 13.805C300.858 7.16224 305.353 1.86749 312.283 1.86749C317.035 1.86749 322.106 4.40083 322.652 10.1453H316.681C316.489 8.18799 314.562 7.00056 312.155 7.00056C308.305 7.00056 306.83 10.4023 306.83 13.805C306.83 17.2067 308.305 20.6106 312.155 20.6106C315.108 20.6106 317.097 19.2293 317.419 17.1446H313.248V12.714H322.876V25.265Z" fill="#373834"/>
<path fill-rule="evenodd" clip-rule="evenodd" d="M340.346 20.6106C344.196 20.6106 345.673 17.2067 345.673 13.805C345.673 10.4023 344.196 7.00056 340.346 7.00056C336.492 7.00056 335.016 10.4023 335.016 13.805C335.016 17.2067 336.492 20.6106 340.346 20.6106ZM340.346 1.86749C347.565 1.86749 351.643 7.16224 351.643 13.805C351.643 20.4489 347.565 25.7447 340.346 25.7447C333.123 25.7447 329.047 20.4489 329.047 13.805C329.047 7.16224 333.123 1.86749 340.346 1.86749Z" fill="#373834"/>
<path fill-rule="evenodd" clip-rule="evenodd" d="M100.791 14.8383L97.084 11.6486H74.3953V17.348H98.3603L100.791 14.8383Z" fill="#229DC9"/>
<path fill-rule="evenodd" clip-rule="evenodd" d="M134.091 11.6486H118.328L115.901 14.1541L119.608 17.348H135.37L137.799 14.8383L134.091 11.6486Z" fill="#229DC9"/>
<path fill-rule="evenodd" clip-rule="evenodd" d="M155.338 11.6486L152.907 14.1541L156.615 17.348H171.962V11.6486H155.338Z" fill="#229DC9"/>
<path fill-rule="evenodd" clip-rule="evenodd" d="M157.422 20.7551L147.813 18.3449L145.968 28.081L143.251 18.5516L133.898 21.8226L140.792 14.7066L133.283 8.23832L142.894 10.6517L144.739 0.914551L147.456 10.4419L156.81 7.17402L149.917 14.2901L157.422 20.7551Z" fill="#862C25"/>
<path fill-rule="evenodd" clip-rule="evenodd" d="M120.416 20.7551L110.805 18.3449L108.961 28.081L106.243 18.5516L96.889 21.8226L103.784 14.7066L96.2744 8.23832L105.885 10.6517L107.73 0.914551L110.447 10.4419L119.801 7.17402L112.907 14.2901L120.416 20.7551Z" fill="#862C25"/>
<path fill-rule="evenodd" clip-rule="evenodd" d="M428.665 14.8383L432.37 11.6486H455.056V17.348H431.094L428.665 14.8383Z" fill="#229DC9"/>
<path fill-rule="evenodd" clip-rule="evenodd" d="M395.36 11.6486H411.125L413.55 14.1541L409.844 17.348H394.085L391.65 14.8383L395.36 11.6486Z" fill="#229DC9"/>
<path fill-rule="evenodd" clip-rule="evenodd" d="M374.113 11.6486L376.544 14.1541L372.836 17.348H357.492V11.6486H374.113Z" fill="#229DC9"/>
<path fill-rule="evenodd" clip-rule="evenodd" d="M372.026 20.7551L381.638 18.3449L383.484 28.081L386.2 18.5516L395.557 21.8226L388.658 14.7066L396.17 8.23832L386.56 10.6517L384.716 0.914551L381.996 10.4419L372.643 7.17402L379.536 14.2901L372.026 20.7551Z" fill="#862C25"/>
<path fill-rule="evenodd" clip-rule="evenodd" d="M409.038 20.7551L418.647 18.3449L420.492 28.081L423.21 18.5516L432.564 21.8226L425.672 14.7066L433.179 8.23832L423.568 10.6517L421.721 0.914551L419.007 10.4419L409.651 7.17402L416.549 14.2901L409.038 20.7551Z" fill="#862C25"/>
<mask id="mask0" mask-type="alpha" maskUnits="userSpaceOnUse" x="31" y="73" width="482" height="80">
<path fill-rule="evenodd" clip-rule="evenodd" d="M31.0811 152.671H512.85V73.6019H31.0811M185.384 106.352H357.657V77.085H185.384" fill="white"/>
</mask>
<g mask="url(#mask0)">
<path fill-rule="evenodd" clip-rule="evenodd" d="M439.731 117.449C437.945 117.317 436.594 117.54 435.08 118.221C434.844 118.556 434.605 118.873 434.371 119.179C437.384 119.939 441.559 121.233 444.735 122.666C444.794 122.691 444.853 122.716 444.911 122.741C446.31 121.93 447.677 120.842 449.052 119.428C446.04 118.456 441.878 117.62 439.731 117.449Z" fill="#373834"/>
<path fill-rule="evenodd" clip-rule="evenodd" d="M452.818 118.5C452.4 118.887 451.982 119.272 451.557 119.654C462.388 115.351 472.85 110.397 482.895 104.845C483.708 104.153 484.524 103.461 485.331 102.757C484.281 103.082 483.239 103.397 482.188 103.707C472.442 109.091 462.292 113.909 451.795 118.12C451.749 118.156 451.701 118.19 451.653 118.232C452.045 118.322 452.431 118.41 452.818 118.5Z" fill="#373834"/>
<path fill-rule="evenodd" clip-rule="evenodd" d="M424.389 122.032C424.296 122.145 424.206 122.256 424.119 122.361C427.144 123.242 431.287 124.683 434.415 126.223C435.21 126.615 436.008 127.009 436.814 127.395C436.217 128.03 435.622 128.669 435.019 129.305C434.649 129.697 434.275 130.065 433.905 130.416C436.206 129.859 439.275 128.461 442.751 124.68C438.968 123.072 433.65 121.509 430.944 121.073C428.018 120.608 426.217 121.145 424.389 122.032Z" fill="#373834"/>
<path fill-rule="evenodd" clip-rule="evenodd" d="M455.308 113.282C454.989 113.61 454.667 113.927 454.347 114.242C468.126 108.496 481.278 101.676 493.683 93.8911C494.583 93.0602 495.474 92.2208 496.36 91.3781C495.219 91.8578 494.074 92.3236 492.931 92.784C481.519 99.9375 469.477 106.274 456.888 111.706C456.609 111.984 456.328 112.265 456.047 112.544C455.804 112.791 455.56 113.036 455.308 113.282Z" fill="#373834"/>
<path fill-rule="evenodd" clip-rule="evenodd" d="M445.001 125.397C444.715 125.692 444.424 125.948 444.127 126.223C453.029 123.021 461.702 119.397 470.121 115.37C470.763 114.798 471.395 114.232 472.029 113.658C471.174 113.842 470.324 114.021 469.477 114.195C462.461 117.546 455.273 120.616 447.923 123.394C447.185 123.903 446.435 124.324 445.672 124.716C445.448 124.943 445.227 125.171 445.001 125.397Z" fill="#373834"/>
<path fill-rule="evenodd" clip-rule="evenodd" d="M447.442 109.121C457.674 105.051 467.562 100.386 477.045 95.1632C477.834 94.4554 478.614 93.7412 479.388 93.026C478.386 93.3633 477.376 93.6909 476.37 94.0121C466.761 99.2994 456.737 104.015 446.356 108.11C446.925 108.106 447.492 108.094 448.054 108.084C447.852 108.428 447.646 108.775 447.442 109.121Z" fill="#373834"/>
<path fill-rule="evenodd" clip-rule="evenodd" d="M454.498 109.982C455.172 109.87 455.852 109.756 456.53 109.637C468.841 104.301 480.619 98.0894 491.783 91.0912C492.659 90.2517 493.533 89.4026 494.39 88.5514C493.275 89.0364 492.158 89.515 491.04 89.984C478.616 97.7671 465.425 104.572 451.58 110.279C451.747 110.258 451.927 110.248 452.087 110.234C453.021 110.157 453.904 110.078 454.498 109.982Z" fill="#373834"/>
<path fill-rule="evenodd" clip-rule="evenodd" d="M443.065 107.81C449.463 105.368 455.731 102.689 461.855 99.7855C462.501 99.172 463.141 98.5552 463.777 97.9363C462.904 98.0959 462.028 98.2479 461.156 98.3978C453.592 101.98 445.808 105.218 437.823 108.092C438.133 108.143 438.44 108.194 438.751 108.242C440.085 107.972 441.494 107.821 443.065 107.81Z" fill="#373834"/>
<path fill-rule="evenodd" clip-rule="evenodd" d="M428.087 110.901C428.934 111.07 429.787 111.233 430.64 111.394C430.317 112.152 429.986 112.909 429.655 113.666C428.906 115.366 427.855 117.118 426.941 118.517C428.334 118.28 429.787 118.294 431.429 118.548C433.192 116.449 435.434 112.997 436.728 110.006C431.671 109.257 428.599 109.821 426.55 110.633C427.05 110.711 427.555 110.796 428.087 110.901Z" fill="#373834"/>
<path fill-rule="evenodd" clip-rule="evenodd" d="M449.719 116.904C451.08 115.585 452.293 113.93 453.542 112.168C453.552 112.156 453.564 112.141 453.575 112.126C453.035 112.113 452.425 112.082 451.775 112.042C450.229 111.948 448.491 111.829 446.839 111.906C446.187 113.106 445.373 114.392 444.504 115.61C446.389 115.992 448.213 116.441 449.719 116.904Z" fill="#373834"/>
<path fill-rule="evenodd" clip-rule="evenodd" d="M437.198 114.964C438.085 114.853 439.018 114.828 440.022 114.906C440.459 114.937 440.98 114.999 441.54 115.083C442.857 113.381 444.064 111.471 444.844 109.903C442.857 109.793 441.139 109.858 439.596 110.129C439.572 110.183 439.55 110.236 439.53 110.293C438.872 111.963 437.985 113.646 437.198 114.964Z" fill="#373834"/>
<path fill-rule="evenodd" clip-rule="evenodd" d="M383.681 140.703C384.144 140.647 384.629 140.574 385.149 140.454C385.16 140.451 385.172 140.451 385.18 140.451C386.124 140.24 387.146 139.923 388.269 139.431C388.3 139.417 388.339 139.395 388.372 139.381C389.763 138.762 391.275 137.902 392.923 136.682C389.375 134.435 384.25 131.955 381.586 131.047C379.642 130.393 378.06 130.234 376.314 130.529C375.822 130.999 375.339 131.44 374.858 131.859C377.976 133.444 381.094 135.266 383.306 136.852C384.041 137.383 384.781 137.911 385.529 138.434C384.998 138.821 384.471 139.205 383.936 139.59C383.748 139.723 383.556 139.859 383.37 139.994C382.964 140.278 382.569 140.55 382.165 140.801C382.577 140.801 383.027 140.771 383.484 140.723C383.547 140.719 383.616 140.712 383.681 140.703Z" fill="#373834"/>
<path fill-rule="evenodd" clip-rule="evenodd" d="M399.042 127.748C401.956 128.904 405.809 130.644 408.72 132.399C409.486 132.865 410.252 133.325 411.026 133.783C410.37 134.369 409.709 134.948 409.041 135.524C408.736 135.793 408.427 136.043 408.119 136.29C410.583 136.179 414.349 135.422 419.04 131.17C415.364 129.251 410.136 127.239 407.45 126.575C403.816 125.687 401.866 126.482 399.042 127.748Z" fill="#373834"/>
<path fill-rule="evenodd" clip-rule="evenodd" d="M421.218 129.323C421.999 129.751 422.781 130.181 423.568 130.604C422.943 131.215 422.315 131.823 421.681 132.428C421.175 132.911 420.672 133.351 420.167 133.769C420.613 133.826 420.996 133.845 421.33 133.817C423.766 133.65 427.629 132.873 432.336 128.164C428.599 126.414 423.309 124.656 420.608 124.116C417.106 123.428 415.2 124.219 412.624 125.527C415.209 126.482 418.559 127.859 421.218 129.323Z" fill="#373834"/>
<path fill-rule="evenodd" clip-rule="evenodd" d="M347.783 133.15H347.786C347.659 133.178 347.55 133.204 347.421 133.232C347.425 133.304 347.428 133.442 347.428 133.442C347.693 136.707 351.59 140.548 355.162 142.028C355.167 142.028 355.173 142.037 355.173 142.037C355.447 142.147 355.713 142.245 355.97 142.33C356.373 142.468 356.77 142.579 357.135 142.637C357.453 142.683 357.791 142.725 358.153 142.757C358.866 142.813 359.686 142.834 360.599 142.76C360.602 142.755 360.608 142.76 360.612 142.76C360.935 142.731 361.286 142.673 361.639 142.619C361.786 142.602 361.917 142.59 362.074 142.562C362.072 142.564 362.067 142.564 362.067 142.564C363.375 142.328 364.86 141.864 366.497 141.123C366.497 141.123 366.501 141.123 366.503 141.123C366.949 140.923 367.384 140.713 367.846 140.474C368.39 140.195 368.95 139.886 369.536 139.524C367.859 138.278 365.777 136.957 363.8 135.79C363.796 135.78 363.789 135.775 363.776 135.773C361.744 134.58 359.82 133.561 358.486 132.997C354.756 131.421 352.595 131.99 349.249 132.809C348.782 132.921 348.295 133.04 347.783 133.15Z" fill="#373834"/>
<path fill-rule="evenodd" clip-rule="evenodd" d="M387.893 129.235C387.504 129.647 387.115 130.028 386.722 130.404C389.879 131.859 393.046 133.555 395.296 135.045C396.047 135.546 396.802 136.043 397.559 136.535C396.87 137.086 396.179 137.634 395.484 138.183C395.22 138.384 394.965 138.575 394.708 138.767C394.742 138.771 394.781 138.771 394.814 138.773C397.291 138.83 401.252 138.402 406.44 134.143C402.825 132.066 397.642 129.823 394.968 129.042C391.975 128.178 390.055 128.509 387.893 129.235Z" fill="#373834"/>
<path fill-rule="evenodd" clip-rule="evenodd" d="M374.741 141.397C375.308 141.219 375.901 141.014 376.535 140.752C376.594 140.728 376.652 140.695 376.711 140.671C377.237 140.445 377.792 140.18 378.363 139.875C378.524 139.795 378.672 139.705 378.836 139.615C379.49 139.256 380.153 138.864 380.849 138.388C380.191 137.931 379.453 137.461 378.703 137.002C378.696 136.995 378.689 136.993 378.683 136.991C378.683 136.991 378.681 136.991 378.681 136.993C375.491 135.026 371.798 133.108 369.657 132.292C368.53 131.866 367.505 131.618 366.503 131.523C366.089 131.48 365.681 131.461 365.274 131.476C364.764 131.927 364.248 132.357 363.741 132.761C364.671 133.277 365.586 133.814 366.491 134.36C367.326 134.867 368.134 135.374 368.908 135.876C369.237 136.088 369.56 136.304 369.864 136.51C370.098 136.668 370.32 136.818 370.534 136.97C371.074 137.347 371.602 137.727 372.068 138.08C372.788 138.641 373.513 139.197 374.243 139.747C373.503 140.243 372.761 140.734 372.016 141.223C371.55 141.525 371.092 141.805 370.64 142.067C371.767 142.042 373.112 141.87 374.651 141.421C374.678 141.412 374.709 141.4 374.741 141.397Z" fill="#373834"/>
<path fill-rule="evenodd" clip-rule="evenodd" d="M414.673 117.528C408.492 116.096 405.108 116.885 402.977 117.763C403.36 117.865 403.731 117.966 404.125 118.08C404.975 118.325 405.826 118.563 406.676 118.797C406.281 119.523 405.879 120.244 405.471 120.968C405.012 121.788 404.424 122.699 403.703 123.685C405.129 123.576 406.581 123.714 408.198 124.109C408.615 124.211 409.102 124.349 409.619 124.502C411.595 122.331 413.502 119.682 414.673 117.528Z" fill="#373834"/>
<path fill-rule="evenodd" clip-rule="evenodd" d="M389.735 122.708C385.214 121.25 382.148 121.118 379.936 121.426C379.868 121.433 379.802 121.439 379.734 121.453C379.3 121.522 378.89 121.597 378.52 121.685C378.97 121.838 379.421 122.001 379.894 122.183C380.126 122.266 380.352 122.354 380.586 122.442C381.197 122.671 381.803 122.9 382.42 123.123C381.952 123.809 381.479 124.494 381.004 125.178C380.45 125.974 379.756 126.846 378.848 127.87C380.041 127.965 381.27 128.23 382.575 128.672C382.988 128.808 383.475 128.992 383.982 129.189C386.176 127.209 388.351 124.742 389.735 122.708Z" fill="#373834"/>
<path fill-rule="evenodd" clip-rule="evenodd" d="M364.303 128.576C364.513 128.384 364.7 128.195 364.91 127.997C365.202 127.703 365.496 127.412 365.765 127.123C365.924 126.964 366.075 126.811 366.216 126.65C366.633 126.2 367.039 125.757 367.379 125.335C366.721 125.066 366.108 124.843 365.518 124.645C360.25 122.809 357.062 123.136 355.008 123.634C352.682 124.191 350.01 126.57 348.538 129.176C348.307 129.585 348.096 129.995 347.933 130.413C348.053 130.385 348.165 130.356 348.28 130.33C348.838 130.203 349.389 130.068 349.934 129.947C349.955 129.937 349.971 129.937 349.988 129.935C350.547 129.816 351.097 129.707 351.658 129.628C353.979 129.277 356.448 129.35 359.66 130.704C360.073 130.876 360.547 131.096 361.047 131.337C361.769 130.8 362.475 130.209 363.166 129.6C363.555 129.263 363.934 128.921 364.303 128.576Z" fill="#373834"/>
<path fill-rule="evenodd" clip-rule="evenodd" d="M376.644 126.164C376.644 126.167 376.651 126.164 376.654 126.159C377.217 125.523 377.748 124.885 378.196 124.294C377.345 123.982 376.556 123.737 375.799 123.519C375.624 123.462 375.447 123.414 375.276 123.363C374.551 123.171 373.856 122.999 373.216 122.88C373.206 122.88 373.189 122.877 373.174 122.88C372.533 122.756 371.936 122.68 371.372 122.628C371.267 122.614 371.161 122.605 371.056 122.597C369.716 122.493 368.586 122.547 367.656 122.687C368.145 122.87 368.649 123.069 369.167 123.287C370 123.637 370.837 123.984 371.675 124.327C371.394 124.699 371.115 125.075 370.837 125.449C370.615 125.742 370.398 126.033 370.178 126.323C369.551 127.149 368.746 128.068 367.725 129.118C368.16 129.189 368.595 129.299 369.036 129.416C369.595 129.558 370.163 129.737 370.742 129.956C371.155 130.111 371.633 130.314 372.135 130.535C373.733 129.22 375.324 127.666 376.644 126.164Z" fill="#373834"/>
<path fill-rule="evenodd" clip-rule="evenodd" d="M345.019 132.647C345.039 132.345 345.056 132.043 345.076 131.741C343.976 131.738 342.875 131.73 341.772 131.712C337.893 131.656 333.999 131.521 330.092 131.304C325.93 131.076 321.759 130.757 317.57 130.345C281.745 126.821 245.024 116.518 209.698 98.4032C209.35 99.4011 209.004 100.401 208.66 101.404C243.8 119.356 280.304 129.669 315.98 133.331C320.144 133.76 324.304 134.1 328.449 134.349C329.578 134.414 330.703 134.475 331.832 134.53C336.03 134.733 340.208 134.845 344.367 134.868C344.694 134.868 345.019 134.87 345.346 134.87C345.204 134.394 345.068 133.914 345.03 133.447C345.005 133.176 345.005 132.913 345.019 132.647Z" fill="#373834"/>
<path fill-rule="evenodd" clip-rule="evenodd" d="M402.647 120.332C396.128 118.526 392.642 119.349 390.492 120.189C390.463 120.198 390.428 120.206 390.398 120.221C390.705 120.316 391.016 120.415 391.33 120.527C392.174 120.809 393.019 121.089 393.868 121.363C393.43 122.069 392.991 122.773 392.552 123.476C392.073 124.23 391.462 125.075 390.704 126.031C392.339 125.898 393.997 126.092 395.834 126.62C396.247 126.74 396.732 126.898 397.241 127.076C399.325 124.996 401.368 122.428 402.647 120.332Z" fill="#373834"/>
<path fill-rule="evenodd" clip-rule="evenodd" d="M418.598 115.822C418.237 116.566 417.871 117.303 417.499 118.044C416.955 119.134 416.221 120.354 415.316 121.673C417.17 121.209 419.032 121.196 421.194 121.614C423.043 119.579 425.433 116.213 426.839 113.275C420.322 112.053 416.988 113.178 414.962 114.203C414.688 114.345 414.397 114.533 414.078 114.789C414.717 114.91 415.366 115.045 416.047 115.215C416.898 115.42 417.749 115.625 418.598 115.822Z" fill="#373834"/>
<path fill-rule="evenodd" clip-rule="evenodd" d="M104.132 117.449C105.919 117.317 107.27 117.54 108.783 118.221C109.019 118.556 109.258 118.873 109.491 119.179C106.475 119.939 102.306 121.233 99.1278 122.666C99.0689 122.691 99.01 122.716 98.9522 122.741C97.5517 121.93 96.1833 120.842 94.8096 119.428C97.8237 118.456 101.983 117.62 104.132 117.449Z" fill="#373834"/>
<path fill-rule="evenodd" clip-rule="evenodd" d="M91.045 118.5C91.4604 118.887 91.8823 119.272 92.3042 119.654C81.4748 115.351 71.0128 110.397 60.9683 104.845C60.1545 104.153 59.3397 103.461 58.5334 102.757C59.5795 103.082 60.6246 103.397 61.675 103.707C71.4186 109.091 81.5691 113.909 92.0654 118.12C92.1136 118.156 92.1607 118.19 92.2067 118.232C91.8202 118.322 91.4337 118.41 91.045 118.5Z" fill="#373834"/>
<path fill-rule="evenodd" clip-rule="evenodd" d="M119.475 122.032C119.567 122.145 119.659 122.256 119.744 122.361C116.721 123.242 112.575 124.683 109.448 126.223C108.653 126.615 107.853 127.009 107.048 127.395C107.642 128.03 108.24 128.669 108.84 129.305C109.212 129.697 109.587 130.065 109.957 130.416C107.66 129.859 104.587 128.461 101.111 124.68C104.895 123.072 110.212 121.509 112.92 121.073C115.843 120.608 117.645 121.145 119.475 122.032Z" fill="#373834"/>
<path fill-rule="evenodd" clip-rule="evenodd" d="M88.5524 113.282C88.8768 113.61 89.198 113.927 89.5182 114.242C75.7358 108.496 62.583 101.676 50.1764 93.8911C49.2792 93.0602 48.3894 92.2208 47.5039 91.3781C48.6432 91.8578 49.7878 92.3236 50.9345 92.784C62.3431 99.9375 74.3877 106.274 86.9752 111.706C87.2536 111.984 87.533 112.265 87.8146 112.544C88.0598 112.791 88.305 113.036 88.5524 113.282Z" fill="#373834"/>
<path fill-rule="evenodd" clip-rule="evenodd" d="M98.8623 125.397C99.1504 125.692 99.4384 125.948 99.7339 126.223C90.833 123.021 82.1611 119.397 73.7409 115.37C73.1017 114.798 72.4689 114.232 71.834 113.658C72.6874 113.842 73.5375 114.021 74.3877 114.195C81.3999 117.546 88.5876 120.616 95.9414 123.394C96.6802 123.903 97.4286 124.324 98.1889 124.716C98.4137 124.943 98.6354 125.171 98.8623 125.397Z" fill="#373834"/>
<path fill-rule="evenodd" clip-rule="evenodd" d="M96.4222 109.121C86.1882 105.051 76.3022 100.386 66.8156 95.1632C66.0296 94.4554 65.2491 93.7412 64.4739 93.026C65.4761 93.3633 66.4847 93.6909 67.4912 94.0121C77.1031 99.2994 87.124 104.015 97.5047 108.11C96.9383 108.106 96.3719 108.094 95.8055 108.084C96.0121 108.428 96.2156 108.775 96.4222 109.121Z" fill="#373834"/>
<path fill-rule="evenodd" clip-rule="evenodd" d="M89.3672 109.982C88.6873 109.87 88.0106 109.756 87.3328 109.637C75.0227 104.301 63.2425 98.0894 52.077 91.0912C51.2011 90.2517 50.3328 89.4026 49.4719 88.5514C50.5866 89.0364 51.7033 89.515 52.8233 89.984C65.2459 97.7671 78.4394 104.572 92.2807 110.279C92.1147 110.258 91.9359 110.248 91.7763 110.234C90.8437 110.157 89.9615 110.078 89.3672 109.982Z" fill="#373834"/>
<path fill-rule="evenodd" clip-rule="evenodd" d="M100.799 107.81C94.3975 105.368 88.1306 102.689 82.0092 99.7855C81.3625 99.172 80.7211 98.5552 80.0862 97.9363C80.9588 98.0959 81.8357 98.2479 82.7095 98.3978C90.2699 101.98 98.0519 105.218 106.038 108.092C105.729 108.143 105.421 108.194 105.112 108.242C103.781 107.972 102.37 107.821 100.799 107.81Z" fill="#373834"/>
<path fill-rule="evenodd" clip-rule="evenodd" d="M115.778 110.901C114.928 111.07 114.075 111.233 113.223 111.394C113.546 112.152 113.876 112.909 114.209 113.666C114.954 115.366 116.006 117.118 116.923 118.517C115.531 118.28 114.073 118.294 112.434 118.548C110.671 116.449 108.429 112.997 107.135 110.006C112.192 109.257 115.263 109.821 117.311 110.633C116.811 110.711 116.306 110.796 115.778 110.901Z" fill="#373834"/>
<path fill-rule="evenodd" clip-rule="evenodd" d="M94.1426 116.904C92.7828 115.585 91.5707 113.93 90.3201 112.168C90.3105 112.156 90.2987 112.141 90.2891 112.126C90.8266 112.113 91.439 112.082 92.0879 112.042C93.6329 111.948 95.3707 111.829 97.0229 111.906C97.676 113.106 98.4865 114.392 99.3613 115.61C97.4726 115.992 95.6491 116.441 94.1426 116.904Z" fill="#373834"/>
<path fill-rule="evenodd" clip-rule="evenodd" d="M106.663 114.964C105.777 114.853 104.846 114.828 103.84 114.906C103.403 114.937 102.884 114.999 102.323 115.083C101.006 113.381 99.7971 111.471 99.0176 109.903C101.004 109.793 102.724 109.858 104.267 110.129C104.289 110.183 104.312 110.236 104.333 110.293C104.992 111.963 105.878 113.646 106.663 114.964Z" fill="#373834"/>
<path fill-rule="evenodd" clip-rule="evenodd" d="M160.184 140.703C159.718 140.647 159.233 140.574 158.713 140.454C158.703 140.451 158.692 140.451 158.684 140.451C157.739 140.24 156.715 139.923 155.593 139.431C155.565 139.417 155.524 139.395 155.49 139.381C154.1 138.762 152.588 137.902 150.941 136.682C154.486 134.435 159.61 131.955 162.277 131.047C164.221 130.393 165.804 130.234 167.549 130.529C168.038 130.999 168.523 131.44 169.003 131.859C165.888 133.444 162.767 135.266 160.555 136.852C159.819 137.383 159.078 137.911 158.335 138.434C158.863 138.821 159.393 139.205 159.927 139.59C160.115 139.723 160.305 139.859 160.496 139.994C160.897 140.278 161.293 140.55 161.697 140.801C161.282 140.801 160.833 140.771 160.38 140.723C160.313 140.719 160.249 140.712 160.184 140.703Z" fill="#373834"/>
<path fill-rule="evenodd" clip-rule="evenodd" d="M144.822 127.748C141.903 128.904 138.055 130.644 135.145 132.399C134.378 132.865 133.609 133.325 132.835 133.783C133.495 134.369 134.156 134.948 134.82 135.524C135.127 135.793 135.432 136.043 135.742 136.29C133.28 136.179 129.512 135.422 124.822 131.17C128.499 129.251 133.729 127.239 136.412 126.575C140.046 125.687 141.993 126.482 144.822 127.748Z" fill="#373834"/>
<path fill-rule="evenodd" clip-rule="evenodd" d="M122.646 129.323C121.865 129.751 121.08 130.181 120.294 130.604C120.922 131.215 121.548 131.823 122.181 132.428C122.686 132.911 123.192 133.351 123.696 133.769C123.248 133.826 122.869 133.845 122.532 133.817C120.096 133.65 116.235 132.873 111.527 128.164C115.263 126.414 120.554 124.656 123.256 124.116C126.758 123.428 128.662 124.219 131.239 125.527C128.655 126.482 125.304 127.859 122.646 129.323Z" fill="#373834"/>
<path fill-rule="evenodd" clip-rule="evenodd" d="M196.081 133.15H196.077C196.204 133.178 196.315 133.204 196.441 133.232C196.439 133.304 196.436 133.442 196.433 133.442C196.171 136.707 192.268 140.548 188.701 142.028C188.696 142.028 188.688 142.037 188.688 142.037C188.417 142.147 188.15 142.245 187.891 142.33C187.488 142.468 187.094 142.579 186.727 142.637C186.41 142.683 186.07 142.725 185.713 142.757C184.995 142.813 184.176 142.834 183.265 142.76C183.259 142.755 183.254 142.76 183.249 142.76C182.928 142.731 182.579 142.673 182.225 142.619C182.079 142.602 181.943 142.59 181.788 142.562C181.79 142.564 181.792 142.564 181.794 142.564C180.487 142.328 179.003 141.864 177.363 141.123C177.363 141.123 177.362 141.123 177.36 141.123C176.916 140.923 176.476 140.713 176.019 140.474C175.473 140.195 174.912 139.886 174.326 139.524C176.003 138.278 178.084 136.957 180.061 135.79C180.066 135.78 180.072 135.775 180.083 135.773C182.118 134.58 184.045 133.561 185.376 132.997C189.105 131.421 191.266 131.99 194.614 132.809C195.078 132.921 195.57 133.04 196.081 133.15Z" fill="#373834"/>
<path fill-rule="evenodd" clip-rule="evenodd" d="M155.971 129.235C156.361 129.647 156.749 130.028 157.141 130.404C153.984 131.859 150.817 133.555 148.568 135.045C147.816 135.546 147.063 136.043 146.305 136.535C146.993 137.086 147.684 137.634 148.379 138.183C148.64 138.384 148.897 138.575 149.155 138.767C149.12 138.771 149.081 138.771 149.048 138.773C146.571 138.83 142.61 138.402 137.421 134.143C141.038 132.066 146.22 129.823 148.896 129.042C151.887 128.178 153.81 128.509 155.971 129.235Z" fill="#373834"/>
<path fill-rule="evenodd" clip-rule="evenodd" d="M169.122 141.397C168.555 141.219 167.961 141.014 167.329 140.752C167.27 140.728 167.21 140.695 167.153 140.671C166.624 140.445 166.07 140.18 165.501 139.875C165.338 139.795 165.187 139.705 165.027 139.615C164.371 139.256 163.71 138.864 163.013 138.388C163.672 137.931 164.41 137.461 165.16 137.002C165.168 136.995 165.172 136.993 165.179 136.991C165.179 136.991 165.18 136.991 165.182 136.993C168.373 135.026 172.064 133.108 174.206 132.292C175.334 131.866 176.36 131.618 177.359 131.523C177.775 131.48 178.18 131.461 178.587 131.476C179.099 131.927 179.616 132.357 180.123 132.761C179.19 133.277 178.275 133.814 177.373 134.36C176.537 134.867 175.729 135.374 174.953 135.876C174.626 136.088 174.3 136.304 173.998 136.51C173.764 136.668 173.542 136.818 173.33 136.97C172.79 137.347 172.259 137.727 171.796 138.08C171.077 138.641 170.35 139.197 169.621 139.747C170.36 140.243 171.103 140.734 171.847 141.223C172.314 141.525 172.771 141.805 173.223 142.067C172.097 142.042 170.75 141.87 169.214 141.421C169.187 141.412 169.153 141.4 169.122 141.397Z" fill="#373834"/>
<path fill-rule="evenodd" clip-rule="evenodd" d="M129.188 117.528C135.37 116.096 138.755 116.885 140.884 117.763C140.502 117.865 140.13 117.966 139.737 118.08C138.889 118.325 138.039 118.563 137.186 118.797C137.583 119.523 137.984 120.244 138.39 120.968C138.852 121.788 139.44 122.699 140.157 123.685C138.735 123.576 137.283 123.714 135.663 124.109C135.248 124.211 134.759 124.349 134.243 124.502C132.268 122.331 130.363 119.682 129.188 117.528Z" fill="#373834"/>
<path fill-rule="evenodd" clip-rule="evenodd" d="M154.129 122.708C158.65 121.25 161.713 121.118 163.928 121.426C163.994 121.433 164.062 121.439 164.128 121.453C164.562 121.522 164.971 121.597 165.343 121.685C164.892 121.838 164.439 122.001 163.971 122.183C163.739 122.266 163.51 122.354 163.277 122.442C162.668 122.671 162.058 122.9 161.444 123.123C161.913 123.809 162.383 124.494 162.857 125.178C163.412 125.974 164.106 126.846 165.015 127.87C163.821 127.965 162.594 128.23 161.289 128.672C160.874 128.808 160.389 128.992 159.88 129.189C157.687 127.209 155.513 124.742 154.129 122.708Z" fill="#373834"/>
<path fill-rule="evenodd" clip-rule="evenodd" d="M179.561 128.576C179.352 128.384 179.162 128.195 178.953 127.997C178.659 127.703 178.368 127.412 178.096 127.123C177.936 126.964 177.787 126.811 177.648 126.65C177.228 126.2 176.826 125.757 176.484 125.335C177.14 125.066 177.756 124.843 178.345 124.645C183.611 122.809 186.802 123.136 188.856 123.634C191.179 124.191 193.854 126.57 195.326 129.176C195.555 129.585 195.767 129.995 195.928 130.413C195.811 130.385 195.698 130.356 195.582 130.33C195.024 130.203 194.477 130.068 193.927 129.947C193.908 129.937 193.89 129.937 193.872 129.935C193.315 129.816 192.765 129.707 192.204 129.628C189.882 129.277 187.415 129.35 184.201 130.704C183.791 130.876 183.316 131.096 182.815 131.337C182.094 130.8 181.389 130.209 180.698 129.6C180.308 129.263 179.929 128.921 179.561 128.576Z" fill="#373834"/>
<path fill-rule="evenodd" clip-rule="evenodd" d="M167.219 126.164C167.219 126.167 167.212 126.164 167.207 126.159C166.644 125.523 166.115 124.885 165.667 124.294C166.52 123.982 167.305 123.737 168.062 123.519C168.239 123.462 168.418 123.414 168.586 123.363C169.312 123.171 170.009 122.999 170.646 122.88C170.659 122.88 170.672 122.877 170.687 122.88C171.332 122.756 171.928 122.68 172.492 122.628C172.596 122.614 172.701 122.605 172.807 122.597C174.146 122.493 175.275 122.547 176.207 122.687C175.716 122.87 175.215 123.069 174.696 123.287C173.864 123.637 173.027 123.984 172.189 124.327C172.467 124.699 172.748 125.075 173.024 125.449C173.247 125.742 173.465 126.033 173.687 126.323C174.313 127.149 175.117 128.068 176.137 129.118C175.703 129.189 175.267 129.299 174.829 129.416C174.268 129.558 173.699 129.737 173.122 129.956C172.707 130.111 172.231 130.314 171.728 130.535C170.128 129.22 168.539 127.666 167.219 126.164Z" fill="#373834"/>
<path fill-rule="evenodd" clip-rule="evenodd" d="M198.842 132.647C198.824 132.345 198.806 132.043 198.786 131.741C199.887 131.738 200.987 131.73 202.092 131.712C205.969 131.656 209.863 131.521 213.771 131.304C217.928 131.076 222.107 130.757 226.294 130.345C262.12 126.821 298.837 116.518 334.164 98.4032C334.515 99.4011 334.858 100.401 335.204 101.404C300.064 119.356 263.557 129.669 227.884 133.331C223.718 133.76 219.559 134.1 215.413 134.349C214.284 134.414 213.159 134.475 212.03 134.53C207.834 134.733 203.654 134.845 199.492 134.868C199.168 134.868 198.842 134.87 198.516 134.87C198.658 134.394 198.794 133.914 198.833 133.447C198.855 133.176 198.859 132.913 198.842 132.647Z" fill="#373834"/>
<path fill-rule="evenodd" clip-rule="evenodd" d="M141.216 120.332C147.736 118.526 151.221 119.349 153.372 120.189C153.399 120.198 153.436 120.206 153.463 120.221C153.156 120.316 152.848 120.415 152.533 120.527C151.69 120.809 150.844 121.089 149.996 121.363C150.432 122.069 150.87 122.773 151.31 123.476C151.789 124.23 152.397 125.075 153.16 126.031C151.523 125.898 149.864 126.092 148.031 126.62C147.616 126.74 147.129 126.898 146.62 127.076C144.535 124.996 142.493 122.428 141.216 120.332Z" fill="#373834"/>
<path fill-rule="evenodd" clip-rule="evenodd" d="M125.262 115.822C125.625 116.566 125.992 117.303 126.362 118.044C126.907 119.134 127.644 120.354 128.547 121.673C126.694 121.209 124.831 121.196 122.671 121.614C120.821 119.579 118.431 116.213 117.025 113.275C123.539 112.053 126.874 113.178 128.901 114.203C129.175 114.345 129.464 114.533 129.785 114.789C129.146 114.91 128.496 115.045 127.817 115.215C126.965 115.42 126.113 115.625 125.262 115.822Z" fill="#373834"/>
</g>
</svg>
